M48
; DRILL file KiCad 10.0.3 date 2026-06-15T13:26:14
; FORMAT={-:-/ absolute / inch / decimal}
; #@! TF.CreationDate,2026-06-15T13:26:14+02:00
; #@! TF.GenerationSoftware,Kicad,Pcbnew,10.0.3
; #@! TF.FileFunction,Plated,1,2,PTH
FMAT,2
INCH
; #@! TA.AperFunction,Plated,PTH,ViaDrill
T1C0.0118
; #@! TA.AperFunction,Plated,PTH,ComponentDrill
T2C0.0118
; #@! TA.AperFunction,Plated,PTH,ComponentDrill
T3C0.0315
; #@! TA.AperFunction,Plated,PTH,ComponentDrill
T4C0.0394
; #@! TA.AperFunction,Plated,PTH,ComponentDrill
T5C0.0402
%
G90
G05
T1
X3.0709Y-2.6378
X3.0906Y-2.9724
X3.3465Y-2.8937
X3.5039Y-2.6181
X3.5039Y-3.0512
X3.6417Y-2.7362
X3.8976Y-2.3425
X4.2126Y-2.6378
X4.252Y-2.3425
X4.4291Y-3.2087
X4.4685Y-2.7165
X4.4882Y-3.1102
X4.5276Y-2.9528
X4.6063Y-3.0512
X4.626Y-2.6378
X4.6654Y-2.9528
X4.6654Y-3.2087
X4.7244Y-2.4606
X4.7244Y-3.1102
X4.8031Y-2.5394
X5.0197Y-2.5
X5.0394Y-2.3228
X5.3346Y-2.6969
X5.374Y-2.2835
X5.4134Y-2.5591
X5.4331Y-2.2835
X5.4331Y-2.5787
X5.4921Y-3.0512
T2
X5.7415Y-2.3425
X5.7415Y-2.3819
X5.7415Y-2.4213
T3
X3.6033Y-2.4787
X3.6033Y-2.5787
X3.9033Y-2.4787
X3.9033Y-2.5787
T4
X3.189Y-2.2039
X3.189Y-2.3039
X3.189Y-2.4039
X3.189Y-2.5039
X3.189Y-2.6039
X3.189Y-2.7039
X3.189Y-2.8039
X3.189Y-2.9039
X3.189Y-3.0039
X3.189Y-3.1039
X3.189Y-3.2039
X3.189Y-3.3039
X3.189Y-3.4039
X3.189Y-3.5039
X3.5039Y-2.7543
X3.5039Y-2.8543
X3.7561Y-2.0669
X3.8546Y-2.0669
X4.2323Y-2.0669
X4.3307Y-2.0669
X4.9963Y-2.0669
X5.0947Y-2.0669
X5.4983Y-2.0669
X5.5967Y-2.0669
T5
X4.1339Y-2.874
X4.1339Y-3.774
X4.2339Y-2.874
X4.2339Y-3.774
X4.3339Y-2.874
X4.3339Y-3.774
X4.4339Y-2.874
X4.4339Y-3.774
X4.5339Y-2.874
X4.5339Y-3.774
X4.6339Y-2.874
X4.6339Y-3.774
X4.7339Y-2.874
X4.7339Y-3.774
X4.8339Y-2.874
X4.8339Y-3.774
X4.9339Y-2.874
X4.9339Y-3.774
X5.0339Y-2.874
X5.0339Y-3.774
X5.1339Y-2.874
X5.1339Y-3.774
X5.2339Y-2.874
X5.2339Y-3.774
X5.3339Y-2.874
X5.3339Y-3.774
X5.4339Y-2.874
X5.4339Y-3.774
X5.5339Y-2.874
X5.5339Y-3.774
X5.6339Y-2.874
X5.6339Y-3.774
X5.7339Y-2.874
X5.7339Y-3.774
X5.8339Y-2.874
X5.8339Y-3.774
X5.9339Y-2.874
X5.9339Y-3.774
X6.0339Y-2.874
X6.0339Y-3.774
X6.1339Y-2.874
X6.1339Y-3.774
X6.2339Y-2.874
X6.2339Y-3.774
M30
