M48
; DRILL file KiCad 10.0.3 date 2026-06-18T13:12:58
; FORMAT={-:-/ absolute / inch / decimal}
; #@! TF.CreationDate,2026-06-18T13:12:58+02:00
; #@! TF.GenerationSoftware,Kicad,Pcbnew,10.0.3
; #@! TF.FileFunction,Plated,1,4,PTH
FMAT,2
INCH
; #@! TA.AperFunction,Plated,PTH,ComponentDrill
T1C0.0118
; #@! TA.AperFunction,Plated,PTH,ComponentDrill
T2C0.0197
; #@! TA.AperFunction,Plated,PTH,ComponentDrill
T3C0.0315
; #@! TA.AperFunction,Plated,PTH,ComponentDrill
T4C0.0374
; #@! TA.AperFunction,Plated,PTH,ComponentDrill
T5C0.0394
; #@! TA.AperFunction,Plated,PTH,ComponentDrill
T6C0.0472
; #@! TA.AperFunction,Plated,PTH,ComponentDrill
T7C0.0512
%
G90
G05
T1
X4.4409Y-4.1486
X4.4409Y-4.3061
X4.5197Y-4.1486
X4.5197Y-4.3061
X7.3248Y-3.3957
X7.3248Y-3.4744
X7.4823Y-3.3957
X7.4823Y-3.4744
T3
X6.4874Y-4.6867
X6.4874Y-4.7867
X6.4874Y-5.1205
X6.4874Y-5.2205
X6.7874Y-4.6867
X6.7874Y-4.7867
X6.7874Y-5.1205
X6.7874Y-5.2205
X7.0434Y-5.6097
X7.1922Y-5.6097
T4
X2.7933Y-5.4134
X2.7933Y-5.5118
X2.7933Y-5.6102
X2.7933Y-5.7087
X2.7933Y-5.8071
X2.7933Y-5.9055
X4.6496Y-3.4961
X4.748Y-3.4961
X4.8465Y-3.4961
X4.9449Y-3.4961
X5.0433Y-3.4961
X5.1417Y-3.4961
X6.0817Y-4.7323
X6.0817Y-4.8307
X6.0817Y-4.9291
X6.0817Y-5.0276
X6.0817Y-5.126
X6.0817Y-5.2244
T5
X4.7724Y-5.2657
X4.7724Y-5.4465
X4.778Y-5.6132
X4.8724Y-5.2657
X4.8724Y-5.4465
X4.878Y-5.6132
X4.9724Y-5.2657
X4.9724Y-5.4465
X4.978Y-5.6132
X6.1689Y-5.9429
X6.2689Y-5.9429
X6.3689Y-5.9429
X6.4689Y-5.9429
X6.5319Y-3.635
X6.5319Y-3.735
X6.5689Y-5.9429
X6.6689Y-5.9429
X6.7126Y-3.635
X6.7126Y-3.735
X6.7689Y-5.9429
X6.8689Y-5.9429
X6.9689Y-5.9429
X7.0689Y-5.9429
X7.1689Y-5.9429
X7.2689Y-5.9429
X7.3689Y-5.9429
X7.4689Y-5.9429
T6
X6.9616Y-4.7996
X6.9646Y-5.2714
X7.6703Y-4.7996
X7.6732Y-5.2714
T7
X4.9665Y-5.8858
X5.1634Y-5.8858
X5.4961Y-5.8543
X5.6929Y-5.8543
X5.8898Y-5.8543
X7.9449Y-4.5568
X7.9449Y-4.7536
X7.9449Y-5.0945
X7.9449Y-5.2913
T2
G00X4.4811Y-4.0569
M15
G01X4.4496Y-4.0569
M16
G05
G00X4.4811Y-4.3978
M15
G01X4.4496Y-4.3978
M16
G05
G00X4.6524Y-4.0569
M15
G01X4.6091Y-4.0569
M16
G05
G00X4.6524Y-4.3978
M15
G01X4.6091Y-4.3978
M16
G05
G00X7.2331Y-3.4358
M15
G01X7.2331Y-3.4043
M16
G05
G00X7.2331Y-3.6071
M15
G01X7.2331Y-3.5638
M16
G05
G00X7.574Y-3.4358
M15
G01X7.574Y-3.4043
M16
G05
G00X7.574Y-3.6071
M15
G01X7.574Y-3.5638
M16
G05
T6
G00X7.8312Y-5.6097
M15
G01X7.843Y-5.6097
M16
G05
G00X8.0296Y-5.6097
M15
G01X8.0414Y-5.6097
M16
G05
M30
