%TF.GenerationSoftware,KiCad,Pcbnew,10.0.3*%
%TF.CreationDate,2026-06-18T13:12:58+02:00*%
%TF.ProjectId,dualpress,6475616c-7072-4657-9373-2e6b69636164,rev?*%
%TF.SameCoordinates,Original*%
%TF.FileFunction,Copper,L4,Bot*%
%TF.FilePolarity,Positive*%
%FSLAX46Y46*%
G04 Gerber Fmt 4.6, Leading zero omitted, Abs format (unit mm)*
G04 Created by KiCad (PCBNEW 10.0.3) date 2026-06-18 13:12:58*
%MOMM*%
%LPD*%
G01*
G04 APERTURE LIST*
G04 Aperture macros list*
%AMRoundRect*
0 Rectangle with rounded corners*
0 $1 Rounding radius*
0 $2 $3 $4 $5 $6 $7 $8 $9 X,Y pos of 4 corners*
0 Add a 4 corners polygon primitive as box body*
4,1,4,$2,$3,$4,$5,$6,$7,$8,$9,$2,$3,0*
0 Add four circle primitives for the rounded corners*
1,1,$1+$1,$2,$3*
1,1,$1+$1,$4,$5*
1,1,$1+$1,$6,$7*
1,1,$1+$1,$8,$9*
0 Add four rect primitives between the rounded corners*
20,1,$1+$1,$2,$3,$4,$5,0*
20,1,$1+$1,$4,$5,$6,$7,0*
20,1,$1+$1,$6,$7,$8,$9,0*
20,1,$1+$1,$8,$9,$2,$3,0*%
G04 Aperture macros list end*
%TA.AperFunction,ComponentPad*%
%ADD10R,1.500000X1.500000*%
%TD*%
%TA.AperFunction,ComponentPad*%
%ADD11C,1.500000*%
%TD*%
%TA.AperFunction,ComponentPad*%
%ADD12R,2.200000X1.800000*%
%TD*%
%TA.AperFunction,ComponentPad*%
%ADD13R,1.700000X1.700000*%
%TD*%
%TA.AperFunction,ComponentPad*%
%ADD14C,1.700000*%
%TD*%
%TA.AperFunction,ComponentPad*%
%ADD15RoundRect,0.250000X0.550000X0.550000X-0.550000X0.550000X-0.550000X-0.550000X0.550000X-0.550000X0*%
%TD*%
%TA.AperFunction,ComponentPad*%
%ADD16C,1.600000*%
%TD*%
%TA.AperFunction,ComponentPad*%
%ADD17RoundRect,0.250001X-0.949999X-0.949999X0.949999X-0.949999X0.949999X0.949999X-0.949999X0.949999X0*%
%TD*%
%TA.AperFunction,ComponentPad*%
%ADD18C,2.400000*%
%TD*%
%TA.AperFunction,ComponentPad*%
%ADD19RoundRect,0.250000X-0.600000X-0.725000X0.600000X-0.725000X0.600000X0.725000X-0.600000X0.725000X0*%
%TD*%
%TA.AperFunction,ComponentPad*%
%ADD20O,1.700000X1.950000*%
%TD*%
%TA.AperFunction,ComponentPad*%
%ADD21RoundRect,0.250001X-1.149999X-1.149999X1.149999X-1.149999X1.149999X1.149999X-1.149999X1.149999X0*%
%TD*%
%TA.AperFunction,ComponentPad*%
%ADD22C,2.800000*%
%TD*%
%TA.AperFunction,ComponentPad*%
%ADD23RoundRect,0.250000X0.725000X-0.600000X0.725000X0.600000X-0.725000X0.600000X-0.725000X-0.600000X0*%
%TD*%
%TA.AperFunction,ComponentPad*%
%ADD24O,1.950000X1.700000*%
%TD*%
%TA.AperFunction,ComponentPad*%
%ADD25O,2.300000X1.300000*%
%TD*%
%TA.AperFunction,ComponentPad*%
%ADD26O,2.100000X1.300000*%
%TD*%
%TA.AperFunction,ComponentPad*%
%ADD27C,0.500000*%
%TD*%
%TA.AperFunction,ComponentPad*%
%ADD28O,1.300000X2.300000*%
%TD*%
%TA.AperFunction,ComponentPad*%
%ADD29O,1.300000X2.100000*%
%TD*%
%TA.AperFunction,ComponentPad*%
%ADD30RoundRect,0.250000X-0.725000X0.600000X-0.725000X-0.600000X0.725000X-0.600000X0.725000X0.600000X0*%
%TD*%
%TA.AperFunction,ComponentPad*%
%ADD31RoundRect,0.250001X1.149999X-1.149999X1.149999X1.149999X-1.149999X1.149999X-1.149999X-1.149999X0*%
%TD*%
%TA.AperFunction,ComponentPad*%
%ADD32RoundRect,0.250001X1.149999X1.149999X-1.149999X1.149999X-1.149999X-1.149999X1.149999X-1.149999X0*%
%TD*%
G04 APERTURE END LIST*
D10*
%TO.P,U7,1*%
%TO.N,+5V*%
X178901300Y-142486900D03*
D11*
%TO.P,U7,2*%
%TO.N,Net-(Q3-C)*%
X182681300Y-142486900D03*
D12*
%TO.P,U7,3*%
%TO.N,Net-(J7-Pin_1)*%
X199061300Y-142486900D03*
%TO.P,U7,4*%
%TO.N,Net-(J7-Pin_2)*%
X204101300Y-142486900D03*
%TD*%
D13*
%TO.P,JP2,1,A_1*%
%TO.N,I2C_SCL*%
X170500000Y-92330000D03*
D14*
%TO.P,JP2,2,B_2*%
%TO.N,Net-(JP2-B)*%
X170500000Y-94870000D03*
%TD*%
D15*
%TO.P,U5,1*%
%TO.N,Net-(R22-Pad1)*%
X172400000Y-121582500D03*
D16*
%TO.P,U5,2*%
%TO.N,Net-(J5-Pin_2)*%
X172400000Y-119042500D03*
%TO.P,U5,3*%
%TO.N,GND*%
X164780000Y-119042500D03*
%TO.P,U5,4*%
%TO.N,SENS_RELAY*%
X164780000Y-121582500D03*
%TD*%
D17*
%TO.P,R22,1*%
%TO.N,Net-(R22-Pad1)*%
X176825000Y-121910000D03*
D18*
%TO.P,R22,2*%
%TO.N,Net-(J5-Pin_1)*%
X194825000Y-121910000D03*
%TD*%
D19*
%TO.P,J8,1,Pin_1_1*%
%TO.N,+3V3*%
X118100000Y-88800000D03*
D20*
%TO.P,J8,2,Pin_2_2*%
%TO.N,GND*%
X120600000Y-88800000D03*
%TO.P,J8,3,Pin_3_3*%
%TO.N,I2C_SDA*%
X123100000Y-88800000D03*
%TO.P,J8,4,Pin_4_4*%
%TO.N,I2C_SCL*%
X125600000Y-88800000D03*
%TO.P,J8,5,Pin_5_5*%
%TO.N,I2C_INT*%
X128100000Y-88800000D03*
%TO.P,J8,6,Pin_6_6*%
%TO.N,I2C_RST*%
X130600000Y-88800000D03*
%TD*%
D21*
%TO.P,J7,1,Pin_1_1*%
%TO.N,Net-(J7-Pin_1)*%
X126150000Y-149500000D03*
D22*
%TO.P,J7,2,Pin_2_2*%
%TO.N,Net-(J7-Pin_2)*%
X131150000Y-149500000D03*
%TD*%
D13*
%TO.P,U6,1,T_IRQ_1*%
%TO.N,D_T_IRQ*%
X189710000Y-150950000D03*
D14*
%TO.P,U6,2,T_DO_2*%
%TO.N,D_T_DO*%
X187170000Y-150950000D03*
%TO.P,U6,3,T_DIN_3*%
%TO.N,D_SDI_T_DIN*%
X184630000Y-150950000D03*
%TO.P,U6,4,T_CS_4*%
%TO.N,D_T_CS*%
X182090000Y-150950000D03*
%TO.P,U6,5,T_CLK_5*%
%TO.N,D_SCK_T_CLK*%
X179550000Y-150950000D03*
%TO.P,U6,6,SDO(MISO)_6*%
%TO.N,unconnected-(U6-SDO(MISO)-Pad6)*%
X177010000Y-150950000D03*
%TO.P,U6,7,LED_7*%
%TO.N,Net-(Q4-D)*%
X174470000Y-150950000D03*
%TO.P,U6,8,SCK_8*%
%TO.N,D_SCK_T_CLK*%
X171930000Y-150950000D03*
%TO.P,U6,9,SDI_(MOSI)_9*%
%TO.N,D_SDI_T_DIN*%
X169390000Y-150950000D03*
%TO.P,U6,10,DC_10*%
%TO.N,D_DC*%
X166850000Y-150950000D03*
%TO.P,U6,11,RESET_11*%
%TO.N,D_RST*%
X164310000Y-150950000D03*
%TO.P,U6,12,CS_12*%
%TO.N,D_CS*%
X161770000Y-150950000D03*
%TO.P,U6,13,GND_13*%
%TO.N,GND*%
X159230000Y-150950000D03*
%TO.P,U6,14,VCC_14*%
%TO.N,+3V3*%
X156690000Y-150950000D03*
%TD*%
D23*
%TO.P,J10,1,Pin_1_1*%
%TO.N,UART_TX*%
X70950000Y-150000000D03*
D24*
%TO.P,J10,2,Pin_2_2*%
%TO.N,UART_RX*%
X70950000Y-147500000D03*
%TO.P,J10,3,Pin_3_3*%
%TO.N,UART_RTS*%
X70950000Y-145000000D03*
%TO.P,J10,4,Pin_4_4*%
%TO.N,UART_CTS*%
X70950000Y-142500000D03*
%TO.P,J10,5,Pin_5_5*%
%TO.N,+3V3*%
X70950000Y-140000000D03*
%TO.P,J10,6,Pin_6_6*%
%TO.N,GND*%
X70950000Y-137500000D03*
%TD*%
D13*
%TO.P,JP5,1,A_1*%
%TO.N,+3V3*%
X121220000Y-138340000D03*
D14*
%TO.P,JP5,2,C_2*%
%TO.N,Net-(JP5-C)*%
X123760000Y-138340000D03*
%TO.P,JP5,3,B_3*%
%TO.N,GND*%
X126300000Y-138340000D03*
%TD*%
D17*
%TO.P,R42,1*%
%TO.N,Net-(R42-Pad1)*%
X176900000Y-133892500D03*
D18*
%TO.P,R42,2*%
%TO.N,Net-(J4-Pin_1)*%
X194900000Y-133892500D03*
%TD*%
D25*
%TO.P,J2,S1,SHIELD_S1*%
%TO.N,GND*%
X117620000Y-103045000D03*
D26*
X113420000Y-103045000D03*
D27*
X114800000Y-105375000D03*
X112800000Y-105375000D03*
X114800000Y-109375000D03*
X112800000Y-109375000D03*
D25*
X117620000Y-111705000D03*
D26*
X113420000Y-111705000D03*
%TD*%
D28*
%TO.P,J1,S1,SHIELD_S1*%
%TO.N,GND*%
X192380000Y-91070000D03*
D29*
X192380000Y-86870000D03*
D27*
X190050000Y-88250000D03*
X190050000Y-86250000D03*
X186050000Y-88250000D03*
X186050000Y-86250000D03*
D28*
X183720000Y-91070000D03*
D29*
X183720000Y-86870000D03*
%TD*%
D13*
%TO.P,JP1,1,A_1*%
%TO.N,I2C_SDA*%
X165910000Y-92330000D03*
D14*
%TO.P,JP1,2,B_2*%
%TO.N,Net-(JP1-B)*%
X165910000Y-94870000D03*
%TD*%
D30*
%TO.P,J9,1,Pin_1_1*%
%TO.N,+3V3*%
X154475000Y-120200000D03*
D24*
%TO.P,J9,2,Pin_2_2*%
%TO.N,GND*%
X154475000Y-122700000D03*
%TO.P,J9,3,Pin_3_3*%
%TO.N,Net-(J9-Pin_3)*%
X154475000Y-125200000D03*
%TO.P,J9,4,Pin_4_4*%
%TO.N,Net-(J9-Pin_4)*%
X154475000Y-127700000D03*
%TO.P,J9,5,Pin_5_5*%
%TO.N,Net-(J9-Pin_5)*%
X154475000Y-130200000D03*
%TO.P,J9,6,Pin_6_6*%
%TO.N,GND*%
X154475000Y-132700000D03*
%TD*%
D31*
%TO.P,J4,1,Pin_1_1*%
%TO.N,Net-(J4-Pin_1)*%
X201800000Y-134400000D03*
D22*
%TO.P,J4,2,Pin_2_2*%
%TO.N,Net-(J4-Pin_2)*%
X201800000Y-129400000D03*
%TD*%
D15*
%TO.P,U4,1*%
%TO.N,Net-(R42-Pad1)*%
X172400000Y-132600000D03*
D16*
%TO.P,U4,2*%
%TO.N,Net-(J4-Pin_2)*%
X172400000Y-130060000D03*
%TO.P,U4,3*%
%TO.N,GND*%
X164780000Y-130060000D03*
%TO.P,U4,4*%
%TO.N,SENS_VALVE*%
X164780000Y-132600000D03*
%TD*%
D13*
%TO.P,JP3,1,A_1*%
%TO.N,+3V3*%
X121360000Y-142575000D03*
D14*
%TO.P,JP3,2,C_2*%
%TO.N,Net-(JP3-C)*%
X123900000Y-142575000D03*
%TO.P,JP3,3,B_3*%
%TO.N,GND*%
X126440000Y-142575000D03*
%TD*%
D13*
%TO.P,JP4,1,A_1*%
%TO.N,+3V3*%
X121220000Y-133750000D03*
D14*
%TO.P,JP4,2,C_2*%
%TO.N,Net-(JP4-C)*%
X123760000Y-133750000D03*
%TO.P,JP4,3,B_3*%
%TO.N,GND*%
X126300000Y-133750000D03*
%TD*%
D31*
%TO.P,J5,1,Pin_1_1*%
%TO.N,Net-(J5-Pin_1)*%
X201800000Y-120742500D03*
D22*
%TO.P,J5,2,Pin_2_2*%
%TO.N,Net-(J5-Pin_2)*%
X201800000Y-115742500D03*
%TD*%
D32*
%TO.P,J6,1,Pin_1_1*%
%TO.N,+5V*%
X149600000Y-148700000D03*
D22*
%TO.P,J6,2,Pin_2_2*%
%TO.N,Net-(J6-Pin_2)*%
X144600000Y-148700000D03*
%TO.P,J6,3,Pin_3_3*%
%TO.N,GND*%
X139600000Y-148700000D03*
%TD*%
M02*
