%TF.GenerationSoftware,KiCad,Pcbnew,10.0.3*%
%TF.CreationDate,2026-06-15T13:26:14+02:00*%
%TF.ProjectId,dualpress,6475616c-7072-4657-9373-2e6b69636164,rev?*%
%TF.SameCoordinates,Original*%
%TF.FileFunction,Soldermask,Bot*%
%TF.FilePolarity,Negative*%
%FSLAX46Y46*%
G04 Gerber Fmt 4.6, Leading zero omitted, Abs format (unit mm)*
G04 Created by KiCad (PCBNEW 10.0.3) date 2026-06-15 13:26:14*
%MOMM*%
%LPD*%
G01*
G04 APERTURE LIST*
G04 Aperture macros list*
%AMRoundRect*
0 Rectangle with rounded corners*
0 $1 Rounding radius*
0 $2 $3 $4 $5 $6 $7 $8 $9 X,Y pos of 4 corners*
0 Add a 4 corners polygon primitive as box body*
4,1,4,$2,$3,$4,$5,$6,$7,$8,$9,$2,$3,0*
0 Add four circle primitives for the rounded corners*
1,1,$1+$1,$2,$3*
1,1,$1+$1,$4,$5*
1,1,$1+$1,$6,$7*
1,1,$1+$1,$8,$9*
0 Add four rect primitives between the rounded corners*
20,1,$1+$1,$2,$3,$4,$5,0*
20,1,$1+$1,$4,$5,$6,$7,0*
20,1,$1+$1,$6,$7,$8,$9,0*
20,1,$1+$1,$8,$9,$2,$3,0*%
G04 Aperture macros list end*
%ADD10RoundRect,0.250000X0.550000X0.550000X-0.550000X0.550000X-0.550000X-0.550000X0.550000X-0.550000X0*%
%ADD11C,1.600000*%
%ADD12R,1.700000X1.700000*%
%ADD13C,1.700000*%
%ADD14RoundRect,0.102000X-0.765000X0.765000X-0.765000X-0.765000X0.765000X-0.765000X0.765000X0.765000X0*%
%ADD15C,1.734000*%
%ADD16C,1.200000*%
%ADD17RoundRect,0.250000X0.600000X0.750000X-0.600000X0.750000X-0.600000X-0.750000X0.600000X-0.750000X0*%
%ADD18O,1.700000X2.000000*%
G04 APERTURE END LIST*
D10*
%TO.C,U3*%
X99145000Y-65500000D03*
D11*
X99145000Y-62960000D03*
X91525000Y-62960000D03*
X91525000Y-65500000D03*
%TD*%
D12*
%TO.C,JP1*%
X89000000Y-72500000D03*
D13*
X89000000Y-69960000D03*
%TD*%
D14*
%TO.C,U1*%
X158340000Y-73000000D03*
D15*
X155800000Y-73000000D03*
X153260000Y-73000000D03*
X150720000Y-73000000D03*
X148180000Y-73000000D03*
X145640000Y-73000000D03*
X143100000Y-73000000D03*
X140560000Y-73000000D03*
X138020000Y-73000000D03*
X135480000Y-73000000D03*
X132940000Y-73000000D03*
X130400000Y-73000000D03*
X127860000Y-73000000D03*
X125320000Y-73000000D03*
X122780000Y-73000000D03*
X120240000Y-73000000D03*
X117700000Y-73000000D03*
X115160000Y-73000000D03*
X112620000Y-73000000D03*
X110080000Y-73000000D03*
X107540000Y-73000000D03*
X105000000Y-73000000D03*
X158340000Y-95860000D03*
X155800000Y-95860000D03*
X153260000Y-95860000D03*
X150720000Y-95860000D03*
X148180000Y-95860000D03*
X145640000Y-95860000D03*
X143100000Y-95860000D03*
X140560000Y-95860000D03*
X138020000Y-95860000D03*
X135480000Y-95860000D03*
X132940000Y-95860000D03*
X130400000Y-95860000D03*
X127860000Y-95860000D03*
X125320000Y-95860000D03*
X122780000Y-95860000D03*
X120240000Y-95860000D03*
X117700000Y-95860000D03*
X115160000Y-95860000D03*
X112620000Y-95860000D03*
X110080000Y-95860000D03*
X107540000Y-95860000D03*
X105000000Y-95860000D03*
%TD*%
D12*
%TO.C,U2*%
X81000000Y-55980000D03*
D13*
X81000000Y-58520000D03*
X81000000Y-61060000D03*
X81000000Y-63600000D03*
X81000000Y-66140000D03*
X81000000Y-68680000D03*
X81000000Y-71220000D03*
X81000000Y-73760000D03*
X81000000Y-76300000D03*
X81000000Y-78840000D03*
X81000000Y-81380000D03*
X81000000Y-83920000D03*
X81000000Y-86460000D03*
X81000000Y-89000000D03*
%TD*%
D16*
%TO.C,J4*%
X131005952Y-54500000D03*
D17*
X129405952Y-52500000D03*
D18*
X126905952Y-52500000D03*
%TD*%
D16*
%TO.C,J3*%
X99505952Y-54500000D03*
D17*
X97905952Y-52500000D03*
D18*
X95405952Y-52500000D03*
%TD*%
D16*
%TO.C,J2*%
X143755952Y-54500000D03*
D17*
X142155952Y-52500000D03*
D18*
X139655952Y-52500000D03*
%TD*%
D16*
%TO.C,J1*%
X111600000Y-54500000D03*
D17*
X110000000Y-52500000D03*
D18*
X107500000Y-52500000D03*
%TD*%
M02*
