%TF.GenerationSoftware,KiCad,Pcbnew,10.0.3*%
%TF.CreationDate,2026-06-18T13:12:58+02:00*%
%TF.ProjectId,dualpress,6475616c-7072-4657-9373-2e6b69636164,rev?*%
%TF.SameCoordinates,Original*%
%TF.FileFunction,Soldermask,Top*%
%TF.FilePolarity,Negative*%
%FSLAX46Y46*%
G04 Gerber Fmt 4.6, Leading zero omitted, Abs format (unit mm)*
G04 Created by KiCad (PCBNEW 10.0.3) date 2026-06-18 13:12:58*
%MOMM*%
%LPD*%
G01*
G04 APERTURE LIST*
G04 Aperture macros list*
%AMRoundRect*
0 Rectangle with rounded corners*
0 $1 Rounding radius*
0 $2 $3 $4 $5 $6 $7 $8 $9 X,Y pos of 4 corners*
0 Add a 4 corners polygon primitive as box body*
4,1,4,$2,$3,$4,$5,$6,$7,$8,$9,$2,$3,0*
0 Add four circle primitives for the rounded corners*
1,1,$1+$1,$2,$3*
1,1,$1+$1,$4,$5*
1,1,$1+$1,$6,$7*
1,1,$1+$1,$8,$9*
0 Add four rect primitives between the rounded corners*
20,1,$1+$1,$2,$3,$4,$5,0*
20,1,$1+$1,$4,$5,$6,$7,0*
20,1,$1+$1,$6,$7,$8,$9,0*
20,1,$1+$1,$8,$9,$2,$3,0*%
G04 Aperture macros list end*
%ADD10RoundRect,0.219000X0.294000X-0.219000X0.294000X0.219000X-0.294000X0.219000X-0.294000X-0.219000X0*%
%ADD11RoundRect,0.219000X-0.219000X-0.294000X0.219000X-0.294000X0.219000X0.294000X-0.219000X0.294000X0*%
%ADD12RoundRect,0.244000X0.244000X0.394000X-0.244000X0.394000X-0.244000X-0.394000X0.244000X-0.394000X0*%
%ADD13RoundRect,0.244000X-0.394000X0.244000X-0.394000X-0.244000X0.394000X-0.244000X0.394000X0.244000X0*%
%ADD14RoundRect,0.239000X-0.239000X-0.274000X0.239000X-0.274000X0.239000X0.274000X-0.239000X0.274000X0*%
%ADD15RoundRect,0.269000X-0.269000X-0.494000X0.269000X-0.494000X0.269000X0.494000X-0.269000X0.494000X0*%
%ADD16RoundRect,0.265778X-0.332222X-0.647222X0.332222X-0.647222X0.332222X0.647222X-0.332222X0.647222X0*%
%ADD17RoundRect,0.219000X-0.294000X0.219000X-0.294000X-0.219000X0.294000X-0.219000X0.294000X0.219000X0*%
%ADD18R,1.500000X1.500000*%
%ADD19C,1.500000*%
%ADD20R,2.200000X1.800000*%
%ADD21RoundRect,0.062500X0.062500X-0.337500X0.062500X0.337500X-0.062500X0.337500X-0.062500X-0.337500X0*%
%ADD22RoundRect,0.062500X0.337500X-0.062500X0.337500X0.062500X-0.337500X0.062500X-0.337500X-0.062500X0*%
%ADD23R,3.350000X3.350000*%
%ADD24RoundRect,0.258261X-1.029739X-0.929739X1.029739X-0.929739X1.029739X0.929739X-1.029739X0.929739X0*%
%ADD25R,1.700000X1.700000*%
%ADD26C,1.700000*%
%ADD27RoundRect,0.250000X0.550000X0.550000X-0.550000X0.550000X-0.550000X-0.550000X0.550000X-0.550000X0*%
%ADD28C,1.600000*%
%ADD29RoundRect,0.250001X-0.949999X-0.949999X0.949999X-0.949999X0.949999X0.949999X-0.949999X0.949999X0*%
%ADD30C,2.400000*%
%ADD31RoundRect,0.250000X-0.600000X-0.725000X0.600000X-0.725000X0.600000X0.725000X-0.600000X0.725000X0*%
%ADD32O,1.700000X1.950000*%
%ADD33RoundRect,0.250001X-1.149999X-1.149999X1.149999X-1.149999X1.149999X1.149999X-1.149999X1.149999X0*%
%ADD34C,2.800000*%
%ADD35RoundRect,0.258261X-0.929739X1.029739X-0.929739X-1.029739X0.929739X-1.029739X0.929739X1.029739X0*%
%ADD36RoundRect,0.375000X-0.625000X-0.375000X0.625000X-0.375000X0.625000X0.375000X-0.625000X0.375000X0*%
%ADD37RoundRect,0.500000X-0.500000X-1.400000X0.500000X-1.400000X0.500000X1.400000X-0.500000X1.400000X0*%
%ADD38R,1.500000X0.900000*%
%ADD39R,0.900000X1.500000*%
%ADD40R,0.900000X0.900000*%
%ADD41RoundRect,0.258261X0.929739X-1.029739X0.929739X1.029739X-0.929739X1.029739X-0.929739X-1.029739X0*%
%ADD42RoundRect,0.267317X0.470683X-0.280683X0.470683X0.280683X-0.470683X0.280683X-0.470683X-0.280683X0*%
%ADD43RoundRect,0.150000X0.150000X-0.587500X0.150000X0.587500X-0.150000X0.587500X-0.150000X-0.587500X0*%
%ADD44RoundRect,0.250000X0.725000X-0.600000X0.725000X0.600000X-0.725000X0.600000X-0.725000X-0.600000X0*%
%ADD45O,1.950000X1.700000*%
%ADD46RoundRect,0.150000X-0.590000X-0.150000X0.590000X-0.150000X0.590000X0.150000X-0.590000X0.150000X0*%
%ADD47RoundRect,0.250000X-0.600000X-0.250000X0.600000X-0.250000X0.600000X0.250000X-0.600000X0.250000X0*%
%ADD48R,1.400000X0.300000*%
%ADD49R,1.400000X0.500000*%
%ADD50O,2.300000X1.300000*%
%ADD51O,2.100000X1.300000*%
%ADD52C,0.500000*%
%ADD53RoundRect,0.500000X-1.000000X2.000000X-1.000000X-2.000000X1.000000X-2.000000X1.000000X2.000000X0*%
%ADD54R,0.300000X1.400000*%
%ADD55R,0.500000X1.400000*%
%ADD56O,1.300000X2.300000*%
%ADD57O,1.300000X2.100000*%
%ADD58RoundRect,0.500000X2.000000X1.000000X-2.000000X1.000000X-2.000000X-1.000000X2.000000X-1.000000X0*%
%ADD59RoundRect,0.250000X-0.725000X0.600000X-0.725000X-0.600000X0.725000X-0.600000X0.725000X0.600000X0*%
%ADD60RoundRect,0.250001X1.149999X-1.149999X1.149999X1.149999X-1.149999X1.149999X-1.149999X-1.149999X0*%
%ADD61RoundRect,0.150000X0.150000X-0.590000X0.150000X0.590000X-0.150000X0.590000X-0.150000X-0.590000X0*%
%ADD62C,0.787400*%
%ADD63RoundRect,0.250001X1.149999X1.149999X-1.149999X1.149999X-1.149999X-1.149999X1.149999X-1.149999X0*%
G04 APERTURE END LIST*
D10*
%TO.C,R32*%
X170050000Y-147460000D03*
X170050000Y-145820000D03*
%TD*%
D11*
%TO.C,R16*%
X165885000Y-112355000D03*
X167525000Y-112355000D03*
%TD*%
%TO.C,R3*%
X137967500Y-127945000D03*
X139607500Y-127945000D03*
%TD*%
D12*
%TO.C,D7*%
X123462500Y-104975000D03*
X120162500Y-104975000D03*
%TD*%
D13*
%TO.C,D6*%
X194550000Y-102100000D03*
X194550000Y-105400000D03*
%TD*%
D14*
%TO.C,D1*%
X144395000Y-116725000D03*
X145975000Y-116725000D03*
%TD*%
D15*
%TO.C,C18*%
X-32225000Y-180775000D03*
X-30325000Y-180775000D03*
%TD*%
%TO.C,C17*%
X-38675000Y-180775000D03*
X-36775000Y-180775000D03*
%TD*%
%TO.C,C16*%
X-38675000Y-177725000D03*
X-36775000Y-177725000D03*
%TD*%
%TO.C,C15*%
X-38675000Y-172675000D03*
X-36775000Y-172675000D03*
%TD*%
%TO.C,C12*%
X-32225000Y-177725000D03*
X-30325000Y-177725000D03*
%TD*%
%TO.C,C11*%
X-32225000Y-172675000D03*
X-30325000Y-172675000D03*
%TD*%
%TO.C,C9*%
X-32225000Y-169625000D03*
X-30325000Y-169625000D03*
%TD*%
%TO.C,C8*%
X-32225000Y-166575000D03*
X-30325000Y-166575000D03*
%TD*%
%TO.C,C7*%
X-38675000Y-169625000D03*
X-36775000Y-169625000D03*
%TD*%
%TO.C,C6*%
X-38675000Y-166575000D03*
X-36775000Y-166575000D03*
%TD*%
%TO.C,C4*%
X121520000Y-119400000D03*
X123420000Y-119400000D03*
%TD*%
%TO.C,C3*%
X138250000Y-124160000D03*
X140150000Y-124160000D03*
%TD*%
%TO.C,C2*%
X120870000Y-101250000D03*
X122770000Y-101250000D03*
%TD*%
%TO.C,C1*%
X138250000Y-121150000D03*
X140150000Y-121150000D03*
%TD*%
D16*
%TO.C,R41*%
X153180000Y-137900000D03*
X156100000Y-137900000D03*
%TD*%
D10*
%TO.C,R4*%
X151500000Y-114170000D03*
X151500000Y-112530000D03*
%TD*%
%TO.C,R7*%
X136655000Y-89690000D03*
X136655000Y-88050000D03*
%TD*%
D17*
%TO.C,R11*%
X190050000Y-102610000D03*
X190050000Y-104250000D03*
%TD*%
D18*
%TO.C,U7*%
X178901300Y-142486900D03*
D19*
X182681300Y-142486900D03*
D20*
X199061300Y-142486900D03*
X204101300Y-142486900D03*
%TD*%
D19*
%TO.C,TP3*%
X143200000Y-121420000D03*
%TD*%
D21*
%TO.C,U3*%
X166800000Y-108780000D03*
X167300000Y-108780000D03*
X167800000Y-108780000D03*
X168300000Y-108780000D03*
X168800000Y-108780000D03*
X169300000Y-108780000D03*
X169800000Y-108780000D03*
D22*
X170750000Y-107830000D03*
X170750000Y-107330000D03*
X170750000Y-106830000D03*
X170750000Y-106330000D03*
X170750000Y-105830000D03*
X170750000Y-105330000D03*
X170750000Y-104830000D03*
D21*
X169800000Y-103880000D03*
X169300000Y-103880000D03*
X168800000Y-103880000D03*
X168300000Y-103880000D03*
X167800000Y-103880000D03*
X167300000Y-103880000D03*
X166800000Y-103880000D03*
D22*
X165850000Y-104830000D03*
X165850000Y-105330000D03*
X165850000Y-105830000D03*
X165850000Y-106330000D03*
X165850000Y-106830000D03*
X165850000Y-107330000D03*
X165850000Y-107830000D03*
D23*
X168300000Y-106330000D03*
%TD*%
D24*
%TO.C,D5*%
X128412500Y-104625000D03*
X132712500Y-104625000D03*
%TD*%
%TO.C,D9*%
X128412500Y-115725000D03*
X132712500Y-115725000D03*
%TD*%
D25*
%TO.C,JP2*%
X170500000Y-92330000D03*
D26*
X170500000Y-94870000D03*
%TD*%
D10*
%TO.C,R2*%
X156000000Y-114170000D03*
X156000000Y-112530000D03*
%TD*%
D11*
%TO.C,R38*%
X132210000Y-133700000D03*
X133850000Y-133700000D03*
%TD*%
D19*
%TO.C,TP4*%
X164722500Y-139700000D03*
%TD*%
D16*
%TO.C,R39*%
X154790000Y-142000000D03*
X157710000Y-142000000D03*
%TD*%
D11*
%TO.C,R27*%
X147860000Y-139110000D03*
X149500000Y-139110000D03*
%TD*%
D27*
%TO.C,U5*%
X172400000Y-121582500D03*
D28*
X172400000Y-119042500D03*
X164780000Y-119042500D03*
X164780000Y-121582500D03*
%TD*%
D19*
%TO.C,TP10*%
X148000000Y-136040000D03*
%TD*%
D29*
%TO.C,R22*%
X176825000Y-121910000D03*
D30*
X194825000Y-121910000D03*
%TD*%
D31*
%TO.C,J8*%
X118100000Y-88800000D03*
D32*
X120600000Y-88800000D03*
X123100000Y-88800000D03*
X125600000Y-88800000D03*
X128100000Y-88800000D03*
X130600000Y-88800000D03*
%TD*%
D16*
%TO.C,R40*%
X154790000Y-145290000D03*
X157710000Y-145290000D03*
%TD*%
D10*
%TO.C,R33*%
X132750000Y-140895000D03*
X132750000Y-139255000D03*
%TD*%
D33*
%TO.C,J7*%
X126150000Y-149500000D03*
D34*
X131150000Y-149500000D03*
%TD*%
D35*
%TO.C,D2*%
X193800000Y-95450000D03*
X193800000Y-99750000D03*
%TD*%
D19*
%TO.C,TP2*%
X143200000Y-128520000D03*
%TD*%
D36*
%TO.C,U1*%
X128900000Y-121545000D03*
X128900000Y-123845000D03*
D37*
X135200000Y-123845000D03*
D36*
X128900000Y-126145000D03*
%TD*%
D38*
%TO.C,U2*%
X143000000Y-86830000D03*
X143000000Y-88100000D03*
X143000000Y-89370000D03*
X143000000Y-90640000D03*
X143000000Y-91910000D03*
X143000000Y-93180000D03*
X143000000Y-94450000D03*
X143000000Y-95720000D03*
X143000000Y-96990000D03*
X143000000Y-98260000D03*
X143000000Y-99530000D03*
X143000000Y-100800000D03*
X143000000Y-102070000D03*
X143000000Y-103340000D03*
D39*
X144765000Y-104590000D03*
X146035000Y-104590000D03*
X147305000Y-104590000D03*
X148575000Y-104590000D03*
X149845000Y-104590000D03*
X151115000Y-104590000D03*
X152385000Y-104590000D03*
X153655000Y-104590000D03*
X154925000Y-104590000D03*
X156195000Y-104590000D03*
X157465000Y-104590000D03*
X158735000Y-104590000D03*
D38*
X160500000Y-103340000D03*
X160500000Y-102070000D03*
X160500000Y-100800000D03*
X160500000Y-99530000D03*
X160500000Y-98260000D03*
X160500000Y-96990000D03*
X160500000Y-95720000D03*
X160500000Y-94450000D03*
X160500000Y-93180000D03*
X160500000Y-91910000D03*
X160500000Y-90640000D03*
X160500000Y-89370000D03*
X160500000Y-88100000D03*
X160500000Y-86830000D03*
D40*
X148850000Y-93150000D03*
X148850000Y-94550000D03*
X148850000Y-95950000D03*
X148850000Y-95950000D03*
X150250000Y-93150000D03*
X150250000Y-93150000D03*
X150250000Y-94550000D03*
X150250000Y-95950000D03*
X151650000Y-93150000D03*
X151650000Y-94550000D03*
X151650000Y-95950000D03*
%TD*%
D25*
%TO.C,U6*%
X189710000Y-150950000D03*
D26*
X187170000Y-150950000D03*
X184630000Y-150950000D03*
X182090000Y-150950000D03*
X179550000Y-150950000D03*
X177010000Y-150950000D03*
X174470000Y-150950000D03*
X171930000Y-150950000D03*
X169390000Y-150950000D03*
X166850000Y-150950000D03*
X164310000Y-150950000D03*
X161770000Y-150950000D03*
X159230000Y-150950000D03*
X156690000Y-150950000D03*
%TD*%
D10*
%TO.C,R5*%
X153750000Y-114170000D03*
X153750000Y-112530000D03*
%TD*%
D19*
%TO.C,TP6*%
X162022500Y-137500000D03*
%TD*%
%TO.C,TP1*%
X143200000Y-124970000D03*
%TD*%
D10*
%TO.C,R1*%
X147000000Y-114170000D03*
X147000000Y-112530000D03*
%TD*%
D41*
%TO.C,D3*%
X122662500Y-114875000D03*
X122662500Y-110575000D03*
%TD*%
D10*
%TO.C,R14*%
X170000000Y-101430000D03*
X170000000Y-99790000D03*
%TD*%
D42*
%TO.C,R31*%
X167100000Y-147550000D03*
X167100000Y-145730000D03*
%TD*%
D11*
%TO.C,R25*%
X143860000Y-139110000D03*
X145500000Y-139110000D03*
%TD*%
D43*
%TO.C,Q4*%
X174350000Y-147287500D03*
X176250000Y-147287500D03*
X175300000Y-145412500D03*
%TD*%
D44*
%TO.C,J10*%
X70950000Y-150000000D03*
D45*
X70950000Y-147500000D03*
X70950000Y-145000000D03*
X70950000Y-142500000D03*
X70950000Y-140000000D03*
X70950000Y-137500000D03*
%TD*%
D11*
%TO.C,R6*%
X164620000Y-86660000D03*
X166260000Y-86660000D03*
%TD*%
D19*
%TO.C,TP7*%
X161240000Y-126442500D03*
%TD*%
D11*
%TO.C,R8*%
X164620000Y-88910000D03*
X166260000Y-88910000D03*
%TD*%
%TO.C,R23*%
X159950000Y-134450000D03*
X161590000Y-134450000D03*
%TD*%
D25*
%TO.C,JP5*%
X121220000Y-138340000D03*
D26*
X123760000Y-138340000D03*
X126300000Y-138340000D03*
%TD*%
D46*
%TO.C,Q3*%
X118330000Y-148225000D03*
X118330000Y-150125000D03*
X120210000Y-149175000D03*
%TD*%
D47*
%TO.C,S2*%
X112400000Y-115695000D03*
X119000000Y-115695000D03*
X112400000Y-119395000D03*
X119000000Y-119395000D03*
%TD*%
D29*
%TO.C,R42*%
X176900000Y-133892500D03*
D30*
X194900000Y-133892500D03*
%TD*%
D19*
%TO.C,TP5*%
X164240000Y-126442500D03*
%TD*%
D11*
%TO.C,R29*%
X118210000Y-152300000D03*
X119850000Y-152300000D03*
%TD*%
%TO.C,R12*%
X135742500Y-112025000D03*
X137382500Y-112025000D03*
%TD*%
D35*
%TO.C,D4*%
X188800000Y-95700000D03*
X188800000Y-100000000D03*
%TD*%
D11*
%TO.C,R10*%
X135742500Y-109775000D03*
X137382500Y-109775000D03*
%TD*%
D10*
%TO.C,R36*%
X130600000Y-140875000D03*
X130600000Y-139235000D03*
%TD*%
%TO.C,R15*%
X165500000Y-101430000D03*
X165500000Y-99790000D03*
%TD*%
D48*
%TO.C,J2*%
X118300000Y-106125000D03*
X118300000Y-107125000D03*
X118300000Y-107625000D03*
X118300000Y-108625000D03*
D49*
X118300000Y-109775000D03*
X118300000Y-110575000D03*
D48*
X118300000Y-109125000D03*
X118300000Y-108125000D03*
X118300000Y-106625000D03*
X118300000Y-105625000D03*
D49*
X118300000Y-104975000D03*
X118300000Y-104175000D03*
D50*
X117620000Y-103045000D03*
D51*
X113420000Y-103045000D03*
D52*
X114800000Y-105375000D03*
X112800000Y-105375000D03*
D53*
X113800000Y-107375000D03*
D52*
X114800000Y-109375000D03*
X112800000Y-109375000D03*
D50*
X117620000Y-111705000D03*
D51*
X113420000Y-111705000D03*
%TD*%
D35*
%TO.C,D8*%
X183550000Y-95700000D03*
X183550000Y-100000000D03*
%TD*%
D17*
%TO.C,R26*%
X146750000Y-140970000D03*
X146750000Y-142610000D03*
%TD*%
D54*
%TO.C,J1*%
X189300000Y-91750000D03*
X188300000Y-91750000D03*
X187800000Y-91750000D03*
X186800000Y-91750000D03*
D55*
X185650000Y-91750000D03*
X184850000Y-91750000D03*
D54*
X186300000Y-91750000D03*
X187300000Y-91750000D03*
X188800000Y-91750000D03*
X189800000Y-91750000D03*
D55*
X190450000Y-91750000D03*
X191250000Y-91750000D03*
D56*
X192380000Y-91070000D03*
D57*
X192380000Y-86870000D03*
D52*
X190050000Y-88250000D03*
X190050000Y-86250000D03*
D58*
X188050000Y-87250000D03*
D52*
X186050000Y-88250000D03*
X186050000Y-86250000D03*
D56*
X183720000Y-91070000D03*
D57*
X183720000Y-86870000D03*
%TD*%
D25*
%TO.C,JP1*%
X165910000Y-92330000D03*
D26*
X165910000Y-94870000D03*
%TD*%
D59*
%TO.C,J9*%
X154475000Y-120200000D03*
D45*
X154475000Y-122700000D03*
X154475000Y-125200000D03*
X154475000Y-127700000D03*
X154475000Y-130200000D03*
X154475000Y-132700000D03*
%TD*%
D60*
%TO.C,J4*%
X201800000Y-134400000D03*
D34*
X201800000Y-129400000D03*
%TD*%
D11*
%TO.C,R28*%
X132510000Y-98295000D03*
X134150000Y-98295000D03*
%TD*%
D61*
%TO.C,Q2*%
X151950000Y-110020000D03*
X153850000Y-110020000D03*
X152900000Y-108140000D03*
%TD*%
D47*
%TO.C,S1*%
X112600000Y-95295000D03*
X119200000Y-95295000D03*
X112600000Y-98995000D03*
X119200000Y-98995000D03*
%TD*%
D10*
%TO.C,R13*%
X167750000Y-101430000D03*
X167750000Y-99790000D03*
%TD*%
D27*
%TO.C,U4*%
X172400000Y-132600000D03*
D28*
X172400000Y-130060000D03*
X164780000Y-130060000D03*
X164780000Y-132600000D03*
%TD*%
D10*
%TO.C,R37*%
X135000000Y-140895000D03*
X135000000Y-139255000D03*
%TD*%
D25*
%TO.C,JP3*%
X121360000Y-142575000D03*
D26*
X123900000Y-142575000D03*
X126440000Y-142575000D03*
%TD*%
D19*
%TO.C,TP9*%
X144500000Y-136040000D03*
%TD*%
D11*
%TO.C,R24*%
X160400000Y-122642500D03*
X162040000Y-122642500D03*
%TD*%
%TO.C,R34*%
X132610000Y-136050000D03*
X134250000Y-136050000D03*
%TD*%
%TO.C,R35*%
X132210000Y-131450000D03*
X133850000Y-131450000D03*
%TD*%
D25*
%TO.C,JP4*%
X121220000Y-133750000D03*
D26*
X123760000Y-133750000D03*
X126300000Y-133750000D03*
%TD*%
D19*
%TO.C,TP8*%
X141000000Y-136040000D03*
%TD*%
D11*
%TO.C,R30*%
X132510000Y-96045000D03*
X134150000Y-96045000D03*
%TD*%
D17*
%TO.C,R9*%
X192300000Y-102610000D03*
X192300000Y-104250000D03*
%TD*%
D61*
%TO.C,Q1*%
X147325000Y-110020000D03*
X149225000Y-110020000D03*
X148275000Y-108140000D03*
%TD*%
D62*
%TO.C,J3*%
X121165000Y-124730000D03*
X122435000Y-124730000D03*
X121165000Y-126000000D03*
X122435000Y-126000000D03*
X121165000Y-127270000D03*
X122435000Y-127270000D03*
%TD*%
D60*
%TO.C,J5*%
X201800000Y-120742500D03*
D34*
X201800000Y-115742500D03*
%TD*%
D63*
%TO.C,J6*%
X149600000Y-148700000D03*
D34*
X144600000Y-148700000D03*
X139600000Y-148700000D03*
%TD*%
M02*
