%TF.GenerationSoftware,KiCad,Pcbnew,10.0.3*%
%TF.CreationDate,2026-06-15T13:26:14+02:00*%
%TF.ProjectId,dualpress,6475616c-7072-4657-9373-2e6b69636164,rev?*%
%TF.SameCoordinates,Original*%
%TF.FileFunction,Copper,L2,Bot*%
%TF.FilePolarity,Positive*%
%FSLAX46Y46*%
G04 Gerber Fmt 4.6, Leading zero omitted, Abs format (unit mm)*
G04 Created by KiCad (PCBNEW 10.0.3) date 2026-06-15 13:26:14*
%MOMM*%
%LPD*%
G01*
G04 APERTURE LIST*
G04 Aperture macros list*
%AMRoundRect*
0 Rectangle with rounded corners*
0 $1 Rounding radius*
0 $2 $3 $4 $5 $6 $7 $8 $9 X,Y pos of 4 corners*
0 Add a 4 corners polygon primitive as box body*
4,1,4,$2,$3,$4,$5,$6,$7,$8,$9,$2,$3,0*
0 Add four circle primitives for the rounded corners*
1,1,$1+$1,$2,$3*
1,1,$1+$1,$4,$5*
1,1,$1+$1,$6,$7*
1,1,$1+$1,$8,$9*
0 Add four rect primitives between the rounded corners*
20,1,$1+$1,$2,$3,$4,$5,0*
20,1,$1+$1,$4,$5,$6,$7,0*
20,1,$1+$1,$6,$7,$8,$9,0*
20,1,$1+$1,$8,$9,$2,$3,0*%
G04 Aperture macros list end*
%TA.AperFunction,ComponentPad*%
%ADD10RoundRect,0.250000X0.550000X0.550000X-0.550000X0.550000X-0.550000X-0.550000X0.550000X-0.550000X0*%
%TD*%
%TA.AperFunction,ComponentPad*%
%ADD11C,1.600000*%
%TD*%
%TA.AperFunction,ComponentPad*%
%ADD12C,0.500000*%
%TD*%
%TA.AperFunction,SMDPad,CuDef*%
%ADD13RoundRect,0.250000X0.920000X1.550000X-0.920000X1.550000X-0.920000X-1.550000X0.920000X-1.550000X0*%
%TD*%
%TA.AperFunction,ComponentPad*%
%ADD14R,1.700000X1.700000*%
%TD*%
%TA.AperFunction,ComponentPad*%
%ADD15C,1.700000*%
%TD*%
%TA.AperFunction,ComponentPad*%
%ADD16R,1.530000X1.530000*%
%TD*%
%TA.AperFunction,ComponentPad*%
%ADD17C,1.530000*%
%TD*%
%TA.AperFunction,ComponentPad*%
%ADD18RoundRect,0.250000X0.600000X0.750000X-0.600000X0.750000X-0.600000X-0.750000X0.600000X-0.750000X0*%
%TD*%
%TA.AperFunction,ComponentPad*%
%ADD19O,1.700000X2.000000*%
%TD*%
%TA.AperFunction,ViaPad*%
%ADD20C,0.600000*%
%TD*%
%TA.AperFunction,Conductor*%
%ADD21C,0.200000*%
%TD*%
G04 APERTURE END LIST*
D10*
%TO.P,U3,1*%
%TO.N,Net-(D1-K)*%
X99145000Y-65500000D03*
D11*
%TO.P,U3,2*%
%TO.N,Net-(R1-Pad1)*%
X99145000Y-62960000D03*
%TO.P,U3,3*%
%TO.N,GND*%
X91525000Y-62960000D03*
%TO.P,U3,4*%
%TO.N,/GPIO_7*%
X91525000Y-65500000D03*
%TD*%
D12*
%TO.P,U5,4,VOUT_4*%
%TO.N,Net-(D2-A)*%
X145835000Y-61500000D03*
X145835000Y-60500000D03*
D13*
X145835000Y-60500000D03*
D12*
X145835000Y-59500000D03*
%TD*%
D14*
%TO.P,JP1,1,A_1*%
%TO.N,Net-(JP1-A)*%
X89000000Y-72500000D03*
D15*
%TO.P,JP1,2,B_2*%
%TO.N,/GPIO_12*%
X89000000Y-69960000D03*
%TD*%
D16*
%TO.P,U1,J1_1,3V3_J1_1*%
%TO.N,+3V3*%
X158340000Y-73000000D03*
D17*
%TO.P,U1,J1_2,3V3_J1_2*%
X155800000Y-73000000D03*
%TO.P,U1,J1_3,RST_J1_3*%
%TO.N,unconnected-(U1-RST-PadJ1_3)*%
X153260000Y-73000000D03*
%TO.P,U1,J1_4,GPIO4_J1_4*%
%TO.N,/GPIO_4*%
X150720000Y-73000000D03*
%TO.P,U1,J1_5,GPIO5_J1_5*%
%TO.N,/GPIO_5*%
X148180000Y-73000000D03*
%TO.P,U1,J1_6,GPIO6_J1_6*%
%TO.N,/GPIO_6*%
X145640000Y-73000000D03*
%TO.P,U1,J1_7,GPIO7_J1_7*%
%TO.N,/GPIO_7*%
X143100000Y-73000000D03*
%TO.P,U1,J1_8,GPIO15_J1_8*%
%TO.N,/GPIO_15*%
X140560000Y-73000000D03*
%TO.P,U1,J1_9,GPIO16_J1_9*%
%TO.N,unconnected-(U1-GPIO16-PadJ1_9)*%
X138020000Y-73000000D03*
%TO.P,U1,J1_10,GPIO17_J1_10*%
%TO.N,unconnected-(U1-GPIO17-PadJ1_10)*%
X135480000Y-73000000D03*
%TO.P,U1,J1_11,GPIO18_J1_11*%
%TO.N,unconnected-(U1-GPIO18-PadJ1_11)*%
X132940000Y-73000000D03*
%TO.P,U1,J1_12,GPIO8_J1_12*%
%TO.N,/GPIO_8*%
X130400000Y-73000000D03*
%TO.P,U1,J1_13,GPIO3_J1_13*%
%TO.N,unconnected-(U1-GPIO3-PadJ1_13)*%
X127860000Y-73000000D03*
%TO.P,U1,J1_14,GPIO46_J1_14*%
%TO.N,unconnected-(U1-GPIO46-PadJ1_14)*%
X125320000Y-73000000D03*
%TO.P,U1,J1_15,GPIO9_J1_15*%
%TO.N,/GPIO_9*%
X122780000Y-73000000D03*
%TO.P,U1,J1_16,GPIO10_J1_16*%
%TO.N,/GPIO_10*%
X120240000Y-73000000D03*
%TO.P,U1,J1_17,GPIO11_J1_17*%
%TO.N,/GPIO_11*%
X117700000Y-73000000D03*
%TO.P,U1,J1_18,GPIO12_J1_18*%
%TO.N,/GPIO_12*%
X115160000Y-73000000D03*
%TO.P,U1,J1_19,GPIO13_J1_19*%
%TO.N,/GPIO_13*%
X112620000Y-73000000D03*
%TO.P,U1,J1_20,GPIO14_J1_20*%
%TO.N,/GPIO_14*%
X110080000Y-73000000D03*
%TO.P,U1,J1_21,5V0_J1_21*%
%TO.N,+5V*%
X107540000Y-73000000D03*
%TO.P,U1,J1_22,GND_J1_22*%
%TO.N,GND*%
X105000000Y-73000000D03*
%TO.P,U1,J3_1,GND_J3_1*%
X158340000Y-95860000D03*
%TO.P,U1,J3_2,U0TXD/GPIO43_J3_2*%
%TO.N,unconnected-(U1-U0TXD{slash}GPIO43-PadJ3_2)*%
X155800000Y-95860000D03*
%TO.P,U1,J3_3,U0RXD/GPIO44_J3_3*%
%TO.N,unconnected-(U1-U0RXD{slash}GPIO44-PadJ3_3)*%
X153260000Y-95860000D03*
%TO.P,U1,J3_4,GPIO1_J3_4*%
%TO.N,unconnected-(U1-GPIO1-PadJ3_4)*%
X150720000Y-95860000D03*
%TO.P,U1,J3_5,GPIO2_J3_5*%
%TO.N,unconnected-(U1-GPIO2-PadJ3_5)*%
X148180000Y-95860000D03*
%TO.P,U1,J3_6,MTMS/GPIO42_J3_6*%
%TO.N,unconnected-(U1-MTMS{slash}GPIO42-PadJ3_6)*%
X145640000Y-95860000D03*
%TO.P,U1,J3_7,MTDI/GPIO41_J3_7*%
%TO.N,unconnected-(U1-MTDI{slash}GPIO41-PadJ3_7)*%
X143100000Y-95860000D03*
%TO.P,U1,J3_8,MTDO/GPIO40_J3_8*%
%TO.N,unconnected-(U1-MTDO{slash}GPIO40-PadJ3_8)*%
X140560000Y-95860000D03*
%TO.P,U1,J3_9,MTCK/GPIO39_J3_9*%
%TO.N,unconnected-(U1-MTCK{slash}GPIO39-PadJ3_9)*%
X138020000Y-95860000D03*
%TO.P,U1,J3_10,GPIO38_J3_10*%
%TO.N,unconnected-(U1-GPIO38-PadJ3_10)*%
X135480000Y-95860000D03*
%TO.P,U1,J3_11,GPIO37_J3_11*%
%TO.N,unconnected-(U1-GPIO37-PadJ3_11)*%
X132940000Y-95860000D03*
%TO.P,U1,J3_12,GPIO36_J3_12*%
%TO.N,unconnected-(U1-GPIO36-PadJ3_12)*%
X130400000Y-95860000D03*
%TO.P,U1,J3_13,GPIO35_J3_13*%
%TO.N,unconnected-(U1-GPIO35-PadJ3_13)*%
X127860000Y-95860000D03*
%TO.P,U1,J3_14,GPIO0_J3_14*%
%TO.N,unconnected-(U1-GPIO0-PadJ3_14)*%
X125320000Y-95860000D03*
%TO.P,U1,J3_15,GPIO45_J3_15*%
%TO.N,unconnected-(U1-GPIO45-PadJ3_15)*%
X122780000Y-95860000D03*
%TO.P,U1,J3_16,GPIO48_J3_16*%
%TO.N,unconnected-(U1-GPIO48-PadJ3_16)*%
X120240000Y-95860000D03*
%TO.P,U1,J3_17,GPIO47_J3_17*%
%TO.N,unconnected-(U1-GPIO47-PadJ3_17)*%
X117700000Y-95860000D03*
%TO.P,U1,J3_18,GPIO21_J3_18*%
%TO.N,unconnected-(U1-GPIO21-PadJ3_18)*%
X115160000Y-95860000D03*
%TO.P,U1,J3_19,USB_D+/GPIO20_J3_19*%
%TO.N,unconnected-(U1-USB_D+{slash}GPIO20-PadJ3_19)*%
X112620000Y-95860000D03*
%TO.P,U1,J3_20,USB_D-/GPIO19_J3_20*%
%TO.N,unconnected-(U1-USB_D-{slash}GPIO19-PadJ3_20)*%
X110080000Y-95860000D03*
%TO.P,U1,J3_21,GND_J3_21*%
%TO.N,GND*%
X107540000Y-95860000D03*
%TO.P,U1,J3_22,GND_J3_22*%
X105000000Y-95860000D03*
%TD*%
D14*
%TO.P,U2,1,T_IRQ_1*%
%TO.N,/GPIO_6*%
X81000000Y-55980000D03*
D15*
%TO.P,U2,2,T_DO_2*%
%TO.N,/GPIO_12*%
X81000000Y-58520000D03*
%TO.P,U2,3,T_DIN_3*%
%TO.N,/GPIO_11*%
X81000000Y-61060000D03*
%TO.P,U2,4,T_CS_4*%
%TO.N,/GPIO_5*%
X81000000Y-63600000D03*
%TO.P,U2,5,T_CLK_5*%
%TO.N,/GPIO_10*%
X81000000Y-66140000D03*
%TO.P,U2,6,SDO_(MISO)_6*%
%TO.N,Net-(JP1-A)*%
X81000000Y-68680000D03*
%TO.P,U2,7,LED_7*%
%TO.N,/GPIO_4*%
X81000000Y-71220000D03*
%TO.P,U2,8,SCK_8*%
%TO.N,/GPIO_10*%
X81000000Y-73760000D03*
%TO.P,U2,9,SDI_(MISO)_9*%
%TO.N,/GPIO_11*%
X81000000Y-76300000D03*
%TO.P,U2,10,DC_10*%
%TO.N,/GPIO_8*%
X81000000Y-78840000D03*
%TO.P,U2,11,RESET_11*%
%TO.N,/GPIO_15*%
X81000000Y-81380000D03*
%TO.P,U2,12,CS_12*%
%TO.N,/GPIO_9*%
X81000000Y-83920000D03*
%TO.P,U2,13,GND_13*%
%TO.N,GND*%
X81000000Y-86460000D03*
%TO.P,U2,14,VCC_14*%
%TO.N,+3V3*%
X81000000Y-89000000D03*
%TD*%
D18*
%TO.P,J4,1,Pin_1_1*%
%TO.N,/GPIO_???*%
X129405952Y-52500000D03*
D19*
%TO.P,J4,2,Pin_2_2*%
%TO.N,+5V*%
X126905952Y-52500000D03*
%TD*%
D18*
%TO.P,J3,1,Pin_1_1*%
%TO.N,N/C*%
X97905952Y-52500000D03*
D19*
%TO.P,J3,2,Pin_2_2*%
X95405952Y-52500000D03*
%TD*%
D18*
%TO.P,J2,1,Pin_1_1*%
%TO.N,/GPIO_13*%
X142155952Y-52500000D03*
D19*
%TO.P,J2,2,Pin_2_2*%
%TO.N,+5V*%
X139655952Y-52500000D03*
%TD*%
D18*
%TO.P,J1,1,Pin_1_1*%
%TO.N,Net-(D1-A)*%
X110000000Y-52500000D03*
D19*
%TO.P,J1,2,Pin_2_2*%
%TO.N,Net-(J1-Pin_2)*%
X107500000Y-52500000D03*
%TD*%
D20*
%TO.N,/GPIO_12*%
X92500000Y-69500000D03*
X89000000Y-66500000D03*
%TO.N,GND*%
X128000000Y-59000000D03*
X136500000Y-58000000D03*
X138000000Y-65500000D03*
X138000000Y-58000000D03*
X127500000Y-63500000D03*
X137500000Y-65000000D03*
%TO.N,/GPIO_11*%
X78000000Y-67000000D03*
X78500000Y-75500000D03*
%TO.N,/GPIO_4*%
X85000000Y-73500000D03*
X89000000Y-77500000D03*
X117000000Y-77500000D03*
X139500000Y-77500000D03*
%TO.N,/GPIO_10*%
X118500000Y-75000000D03*
X115000000Y-75000000D03*
%TO.N,/GPIO_15*%
X112500000Y-81500000D03*
X118500000Y-81500000D03*
%TO.N,/GPIO_8*%
X120000000Y-79000000D03*
X114000000Y-79000000D03*
%TO.N,/GPIO_6*%
X108000000Y-59500000D03*
X135500000Y-68500000D03*
X120000000Y-62500000D03*
X122000000Y-64500000D03*
X99000000Y-59500000D03*
%TO.N,/GPIO_13*%
X117500000Y-67000000D03*
%TO.N,/GPIO_7*%
X113500000Y-69000000D03*
X107000000Y-67000000D03*
%TD*%
%TO.N,/GPIO_12*%
D21*
X89000000Y-66500000D02*
X92000000Y-69500000D01*
X92000000Y-69500000D02*
X92500000Y-69500000D01*
%TO.N,/GPIO_11*%
X78000000Y-67000000D02*
X78000000Y-75000000D01*
X78000000Y-75000000D02*
X78500000Y-75500000D01*
%TO.N,/GPIO_4*%
X117000000Y-77500000D02*
X139500000Y-77500000D01*
X85000000Y-73500000D02*
X89000000Y-77500000D01*
%TO.N,/GPIO_10*%
X115000000Y-75000000D02*
X118500000Y-75000000D01*
%TO.N,/GPIO_15*%
X112500000Y-81500000D02*
X118500000Y-81500000D01*
%TO.N,/GPIO_8*%
X114000000Y-79000000D02*
X120000000Y-79000000D01*
%TO.N,/GPIO_6*%
X135500000Y-68500000D02*
X141140000Y-68500000D01*
X141140000Y-68500000D02*
X145640000Y-73000000D01*
X120000000Y-62500000D02*
X122000000Y-64500000D01*
X99000000Y-59500000D02*
X108000000Y-59500000D01*
%TO.N,/GPIO_13*%
X117500000Y-67000000D02*
X112620000Y-71880000D01*
X112620000Y-71880000D02*
X112620000Y-73000000D01*
%TO.N,/GPIO_7*%
X109000000Y-69000000D02*
X113500000Y-69000000D01*
X107000000Y-67000000D02*
X109000000Y-69000000D01*
%TD*%
%TA.AperFunction,Conductor*%
%TO.N,GND*%
G36*
X159444311Y-49019685D02*
G01*
X159490066Y-49072489D01*
X159501265Y-49122722D01*
X159735758Y-71868593D01*
X159716766Y-71935832D01*
X159664436Y-71982128D01*
X159595384Y-71992784D01*
X159531533Y-71964416D01*
X159512500Y-71944185D01*
X159462546Y-71877454D01*
X159439709Y-71860358D01*
X159347335Y-71791206D01*
X159347328Y-71791202D01*
X159212482Y-71740908D01*
X159212483Y-71740908D01*
X159152883Y-71734501D01*
X159152881Y-71734500D01*
X159152873Y-71734500D01*
X159152864Y-71734500D01*
X157527129Y-71734500D01*
X157527123Y-71734501D01*
X157467516Y-71740908D01*
X157332671Y-71791202D01*
X157332664Y-71791206D01*
X157217455Y-71877452D01*
X157217452Y-71877455D01*
X157131206Y-71992664D01*
X157131202Y-71992671D01*
X157080908Y-72127517D01*
X157074501Y-72187116D01*
X157074500Y-72187135D01*
X157074500Y-72219568D01*
X157054815Y-72286607D01*
X157002011Y-72332362D01*
X156932853Y-72342306D01*
X156869297Y-72313281D01*
X156850182Y-72292454D01*
X156797227Y-72219568D01*
X156765269Y-72175582D01*
X156624418Y-72034731D01*
X156463266Y-71917647D01*
X156400500Y-71885666D01*
X156285780Y-71827213D01*
X156096342Y-71765661D01*
X155948782Y-71742290D01*
X155899597Y-71734500D01*
X155700403Y-71734500D01*
X155634822Y-71744887D01*
X155503659Y-71765661D01*
X155503656Y-71765661D01*
X155314219Y-71827213D01*
X155136733Y-71917647D01*
X155098286Y-71945581D01*
X154975582Y-72034731D01*
X154975580Y-72034733D01*
X154975579Y-72034733D01*
X154834733Y-72175579D01*
X154834733Y-72175580D01*
X154834731Y-72175582D01*
X154802773Y-72219568D01*
X154717647Y-72336733D01*
X154640485Y-72488172D01*
X154592510Y-72538968D01*
X154524689Y-72555763D01*
X154458554Y-72533225D01*
X154419515Y-72488172D01*
X154342483Y-72336990D01*
X154342353Y-72336734D01*
X154225269Y-72175582D01*
X154084418Y-72034731D01*
X153923266Y-71917647D01*
X153860500Y-71885666D01*
X153745780Y-71827213D01*
X153556342Y-71765661D01*
X153408782Y-71742290D01*
X153359597Y-71734500D01*
X153160403Y-71734500D01*
X153094822Y-71744887D01*
X152963659Y-71765661D01*
X152963656Y-71765661D01*
X152774219Y-71827213D01*
X152596733Y-71917647D01*
X152558286Y-71945581D01*
X152435582Y-72034731D01*
X152435580Y-72034733D01*
X152435579Y-72034733D01*
X152294733Y-72175579D01*
X152294733Y-72175580D01*
X152294731Y-72175582D01*
X152262773Y-72219568D01*
X152177647Y-72336733D01*
X152100485Y-72488172D01*
X152052510Y-72538968D01*
X151984689Y-72555763D01*
X151918554Y-72533225D01*
X151879515Y-72488172D01*
X151802483Y-72336990D01*
X151802353Y-72336734D01*
X151685269Y-72175582D01*
X151544418Y-72034731D01*
X151383266Y-71917647D01*
X151320500Y-71885666D01*
X151205780Y-71827213D01*
X151016342Y-71765661D01*
X150868782Y-71742290D01*
X150819597Y-71734500D01*
X150620403Y-71734500D01*
X150554822Y-71744887D01*
X150423659Y-71765661D01*
X150423656Y-71765661D01*
X150234219Y-71827213D01*
X150056733Y-71917647D01*
X150018286Y-71945581D01*
X149895582Y-72034731D01*
X149895580Y-72034733D01*
X149895579Y-72034733D01*
X149754733Y-72175579D01*
X149754733Y-72175580D01*
X149754731Y-72175582D01*
X149722773Y-72219568D01*
X149637647Y-72336733D01*
X149560485Y-72488172D01*
X149512510Y-72538968D01*
X149444689Y-72555763D01*
X149378554Y-72533225D01*
X149339515Y-72488172D01*
X149262483Y-72336990D01*
X149262353Y-72336734D01*
X149145269Y-72175582D01*
X149004418Y-72034731D01*
X148843266Y-71917647D01*
X148780500Y-71885666D01*
X148665780Y-71827213D01*
X148476342Y-71765661D01*
X148328782Y-71742290D01*
X148279597Y-71734500D01*
X148080403Y-71734500D01*
X148014822Y-71744887D01*
X147883659Y-71765661D01*
X147883656Y-71765661D01*
X147694219Y-71827213D01*
X147516733Y-71917647D01*
X147478286Y-71945581D01*
X147355582Y-72034731D01*
X147355580Y-72034733D01*
X147355579Y-72034733D01*
X147214733Y-72175579D01*
X147214733Y-72175580D01*
X147214731Y-72175582D01*
X147182773Y-72219568D01*
X147097647Y-72336733D01*
X147020485Y-72488172D01*
X146972510Y-72538968D01*
X146904689Y-72555763D01*
X146838554Y-72533225D01*
X146799515Y-72488172D01*
X146722483Y-72336990D01*
X146722353Y-72336734D01*
X146605269Y-72175582D01*
X146464418Y-72034731D01*
X146303266Y-71917647D01*
X146240500Y-71885666D01*
X146125780Y-71827213D01*
X145936342Y-71765661D01*
X145788782Y-71742290D01*
X145739597Y-71734500D01*
X145540403Y-71734500D01*
X145474822Y-71744887D01*
X145343659Y-71765661D01*
X145339588Y-71766638D01*
X145269806Y-71763138D01*
X145222976Y-71733741D01*
X141627590Y-68138355D01*
X141627588Y-68138352D01*
X141508717Y-68019481D01*
X141508716Y-68019480D01*
X141421904Y-67969360D01*
X141421904Y-67969359D01*
X141421900Y-67969358D01*
X141371785Y-67940423D01*
X141219057Y-67899499D01*
X141060943Y-67899499D01*
X141053347Y-67899499D01*
X141053331Y-67899500D01*
X136079766Y-67899500D01*
X136012727Y-67879815D01*
X136010875Y-67878602D01*
X135879185Y-67790609D01*
X135879172Y-67790602D01*
X135733501Y-67730264D01*
X135733489Y-67730261D01*
X135578845Y-67699500D01*
X135578842Y-67699500D01*
X135421158Y-67699500D01*
X135421155Y-67699500D01*
X135266510Y-67730261D01*
X135266498Y-67730264D01*
X135120827Y-67790602D01*
X135120814Y-67790609D01*
X134989711Y-67878210D01*
X134989707Y-67878213D01*
X134878213Y-67989707D01*
X134878210Y-67989711D01*
X134790609Y-68120814D01*
X134790602Y-68120827D01*
X134730264Y-68266498D01*
X134730261Y-68266510D01*
X134699500Y-68421153D01*
X134699500Y-68578846D01*
X134730261Y-68733489D01*
X134730264Y-68733501D01*
X134790602Y-68879172D01*
X134790609Y-68879185D01*
X134878210Y-69010288D01*
X134878213Y-69010292D01*
X134989707Y-69121786D01*
X134989711Y-69121789D01*
X135120814Y-69209390D01*
X135120827Y-69209397D01*
X135224126Y-69252184D01*
X135266503Y-69269737D01*
X135421153Y-69300499D01*
X135421156Y-69300500D01*
X135421158Y-69300500D01*
X135578844Y-69300500D01*
X135578845Y-69300499D01*
X135733497Y-69269737D01*
X135879179Y-69209394D01*
X135895615Y-69198412D01*
X136010875Y-69121398D01*
X136077553Y-69100520D01*
X136079766Y-69100500D01*
X140839903Y-69100500D01*
X140906942Y-69120185D01*
X140927584Y-69136819D01*
X143316698Y-71525933D01*
X143350183Y-71587256D01*
X143345199Y-71656948D01*
X143303327Y-71712881D01*
X143237863Y-71737298D01*
X143209623Y-71736088D01*
X143199597Y-71734500D01*
X143000403Y-71734500D01*
X142934822Y-71744887D01*
X142803659Y-71765661D01*
X142803656Y-71765661D01*
X142614219Y-71827213D01*
X142436733Y-71917647D01*
X142398286Y-71945581D01*
X142275582Y-72034731D01*
X142275580Y-72034733D01*
X142275579Y-72034733D01*
X142134733Y-72175579D01*
X142134733Y-72175580D01*
X142134731Y-72175582D01*
X142102773Y-72219568D01*
X142017647Y-72336733D01*
X141940485Y-72488172D01*
X141892510Y-72538968D01*
X141824689Y-72555763D01*
X141758554Y-72533225D01*
X141719515Y-72488172D01*
X141642483Y-72336990D01*
X141642353Y-72336734D01*
X141525269Y-72175582D01*
X141384418Y-72034731D01*
X141223266Y-71917647D01*
X141160500Y-71885666D01*
X141045780Y-71827213D01*
X140856342Y-71765661D01*
X140708782Y-71742290D01*
X140659597Y-71734500D01*
X140460403Y-71734500D01*
X140394822Y-71744887D01*
X140263659Y-71765661D01*
X140263656Y-71765661D01*
X140074219Y-71827213D01*
X139896733Y-71917647D01*
X139858286Y-71945581D01*
X139735582Y-72034731D01*
X139735580Y-72034733D01*
X139735579Y-72034733D01*
X139594733Y-72175579D01*
X139594733Y-72175580D01*
X139594731Y-72175582D01*
X139562773Y-72219568D01*
X139477647Y-72336733D01*
X139400485Y-72488172D01*
X139352510Y-72538968D01*
X139284689Y-72555763D01*
X139218554Y-72533225D01*
X139179515Y-72488172D01*
X139102483Y-72336990D01*
X139102353Y-72336734D01*
X138985269Y-72175582D01*
X138844418Y-72034731D01*
X138683266Y-71917647D01*
X138620500Y-71885666D01*
X138505780Y-71827213D01*
X138316342Y-71765661D01*
X138168782Y-71742290D01*
X138119597Y-71734500D01*
X137920403Y-71734500D01*
X137854822Y-71744887D01*
X137723659Y-71765661D01*
X137723656Y-71765661D01*
X137534219Y-71827213D01*
X137356733Y-71917647D01*
X137318286Y-71945581D01*
X137195582Y-72034731D01*
X137195580Y-72034733D01*
X137195579Y-72034733D01*
X137054733Y-72175579D01*
X137054733Y-72175580D01*
X137054731Y-72175582D01*
X137022773Y-72219568D01*
X136937647Y-72336733D01*
X136860485Y-72488172D01*
X136812510Y-72538968D01*
X136744689Y-72555763D01*
X136678554Y-72533225D01*
X136639515Y-72488172D01*
X136562483Y-72336990D01*
X136562353Y-72336734D01*
X136445269Y-72175582D01*
X136304418Y-72034731D01*
X136143266Y-71917647D01*
X136080500Y-71885666D01*
X135965780Y-71827213D01*
X135776342Y-71765661D01*
X135628782Y-71742290D01*
X135579597Y-71734500D01*
X135380403Y-71734500D01*
X135314822Y-71744887D01*
X135183659Y-71765661D01*
X135183656Y-71765661D01*
X134994219Y-71827213D01*
X134816733Y-71917647D01*
X134778286Y-71945581D01*
X134655582Y-72034731D01*
X134655580Y-72034733D01*
X134655579Y-72034733D01*
X134514733Y-72175579D01*
X134514733Y-72175580D01*
X134514731Y-72175582D01*
X134482773Y-72219568D01*
X134397647Y-72336733D01*
X134320485Y-72488172D01*
X134272510Y-72538968D01*
X134204689Y-72555763D01*
X134138554Y-72533225D01*
X134099515Y-72488172D01*
X134022483Y-72336990D01*
X134022353Y-72336734D01*
X133905269Y-72175582D01*
X133764418Y-72034731D01*
X133603266Y-71917647D01*
X133540500Y-71885666D01*
X133425780Y-71827213D01*
X133236342Y-71765661D01*
X133088782Y-71742290D01*
X133039597Y-71734500D01*
X132840403Y-71734500D01*
X132774822Y-71744887D01*
X132643659Y-71765661D01*
X132643656Y-71765661D01*
X132454219Y-71827213D01*
X132276733Y-71917647D01*
X132238286Y-71945581D01*
X132115582Y-72034731D01*
X132115580Y-72034733D01*
X132115579Y-72034733D01*
X131974733Y-72175579D01*
X131974733Y-72175580D01*
X131974731Y-72175582D01*
X131942773Y-72219568D01*
X131857647Y-72336733D01*
X131780485Y-72488172D01*
X131732510Y-72538968D01*
X131664689Y-72555763D01*
X131598554Y-72533225D01*
X131559515Y-72488172D01*
X131482483Y-72336990D01*
X131482353Y-72336734D01*
X131365269Y-72175582D01*
X131224418Y-72034731D01*
X131063266Y-71917647D01*
X131000500Y-71885666D01*
X130885780Y-71827213D01*
X130696342Y-71765661D01*
X130548782Y-71742290D01*
X130499597Y-71734500D01*
X130300403Y-71734500D01*
X130234822Y-71744887D01*
X130103659Y-71765661D01*
X130103656Y-71765661D01*
X129914219Y-71827213D01*
X129736733Y-71917647D01*
X129698286Y-71945581D01*
X129575582Y-72034731D01*
X129575580Y-72034733D01*
X129575579Y-72034733D01*
X129434733Y-72175579D01*
X129434733Y-72175580D01*
X129434731Y-72175582D01*
X129402773Y-72219568D01*
X129317647Y-72336733D01*
X129240485Y-72488172D01*
X129192510Y-72538968D01*
X129124689Y-72555763D01*
X129058554Y-72533225D01*
X129019515Y-72488172D01*
X128942483Y-72336990D01*
X128942353Y-72336734D01*
X128825269Y-72175582D01*
X128684418Y-72034731D01*
X128523266Y-71917647D01*
X128460500Y-71885666D01*
X128345780Y-71827213D01*
X128156342Y-71765661D01*
X128008782Y-71742290D01*
X127959597Y-71734500D01*
X127760403Y-71734500D01*
X127694822Y-71744887D01*
X127563659Y-71765661D01*
X127563656Y-71765661D01*
X127374219Y-71827213D01*
X127196733Y-71917647D01*
X127158286Y-71945581D01*
X127035582Y-72034731D01*
X127035580Y-72034733D01*
X127035579Y-72034733D01*
X126894733Y-72175579D01*
X126894733Y-72175580D01*
X126894731Y-72175582D01*
X126862773Y-72219568D01*
X126777647Y-72336733D01*
X126700485Y-72488172D01*
X126652510Y-72538968D01*
X126584689Y-72555763D01*
X126518554Y-72533225D01*
X126479515Y-72488172D01*
X126402483Y-72336990D01*
X126402353Y-72336734D01*
X126285269Y-72175582D01*
X126144418Y-72034731D01*
X125983266Y-71917647D01*
X125920500Y-71885666D01*
X125805780Y-71827213D01*
X125616342Y-71765661D01*
X125468782Y-71742290D01*
X125419597Y-71734500D01*
X125220403Y-71734500D01*
X125154822Y-71744887D01*
X125023659Y-71765661D01*
X125023656Y-71765661D01*
X124834219Y-71827213D01*
X124656733Y-71917647D01*
X124618286Y-71945581D01*
X124495582Y-72034731D01*
X124495580Y-72034733D01*
X124495579Y-72034733D01*
X124354733Y-72175579D01*
X124354733Y-72175580D01*
X124354731Y-72175582D01*
X124322773Y-72219568D01*
X124237647Y-72336733D01*
X124160485Y-72488172D01*
X124112510Y-72538968D01*
X124044689Y-72555763D01*
X123978554Y-72533225D01*
X123939515Y-72488172D01*
X123862483Y-72336990D01*
X123862353Y-72336734D01*
X123745269Y-72175582D01*
X123604418Y-72034731D01*
X123443266Y-71917647D01*
X123380500Y-71885666D01*
X123265780Y-71827213D01*
X123076342Y-71765661D01*
X122928782Y-71742290D01*
X122879597Y-71734500D01*
X122680403Y-71734500D01*
X122614822Y-71744887D01*
X122483659Y-71765661D01*
X122483656Y-71765661D01*
X122294219Y-71827213D01*
X122116733Y-71917647D01*
X122078286Y-71945581D01*
X121955582Y-72034731D01*
X121955580Y-72034733D01*
X121955579Y-72034733D01*
X121814733Y-72175579D01*
X121814733Y-72175580D01*
X121814731Y-72175582D01*
X121782773Y-72219568D01*
X121697647Y-72336733D01*
X121620485Y-72488172D01*
X121572510Y-72538968D01*
X121504689Y-72555763D01*
X121438554Y-72533225D01*
X121399515Y-72488172D01*
X121322483Y-72336990D01*
X121322353Y-72336734D01*
X121205269Y-72175582D01*
X121064418Y-72034731D01*
X120903266Y-71917647D01*
X120840500Y-71885666D01*
X120725780Y-71827213D01*
X120536342Y-71765661D01*
X120388782Y-71742290D01*
X120339597Y-71734500D01*
X120140403Y-71734500D01*
X120074822Y-71744887D01*
X119943659Y-71765661D01*
X119943656Y-71765661D01*
X119754219Y-71827213D01*
X119576733Y-71917647D01*
X119538286Y-71945581D01*
X119415582Y-72034731D01*
X119415580Y-72034733D01*
X119415579Y-72034733D01*
X119274733Y-72175579D01*
X119274733Y-72175580D01*
X119274731Y-72175582D01*
X119242773Y-72219568D01*
X119157647Y-72336733D01*
X119080485Y-72488172D01*
X119032510Y-72538968D01*
X118964689Y-72555763D01*
X118898554Y-72533225D01*
X118859515Y-72488172D01*
X118782483Y-72336990D01*
X118782353Y-72336734D01*
X118665269Y-72175582D01*
X118524418Y-72034731D01*
X118363266Y-71917647D01*
X118300500Y-71885666D01*
X118185780Y-71827213D01*
X117996342Y-71765661D01*
X117848782Y-71742290D01*
X117799597Y-71734500D01*
X117600403Y-71734500D01*
X117534822Y-71744887D01*
X117403659Y-71765661D01*
X117403656Y-71765661D01*
X117214219Y-71827213D01*
X117036733Y-71917647D01*
X116998286Y-71945581D01*
X116875582Y-72034731D01*
X116875580Y-72034733D01*
X116875579Y-72034733D01*
X116734733Y-72175579D01*
X116734733Y-72175580D01*
X116734731Y-72175582D01*
X116702773Y-72219568D01*
X116617647Y-72336733D01*
X116540485Y-72488172D01*
X116492510Y-72538968D01*
X116424689Y-72555763D01*
X116358554Y-72533225D01*
X116319515Y-72488172D01*
X116242483Y-72336990D01*
X116242353Y-72336734D01*
X116125269Y-72175582D01*
X115984418Y-72034731D01*
X115823266Y-71917647D01*
X115760500Y-71885666D01*
X115645780Y-71827213D01*
X115456342Y-71765661D01*
X115308782Y-71742290D01*
X115259597Y-71734500D01*
X115060403Y-71734500D01*
X114994822Y-71744887D01*
X114863659Y-71765661D01*
X114863656Y-71765661D01*
X114674219Y-71827213D01*
X114496733Y-71917647D01*
X114458286Y-71945581D01*
X114335582Y-72034731D01*
X114335580Y-72034733D01*
X114335579Y-72034733D01*
X114194733Y-72175579D01*
X114194733Y-72175580D01*
X114194731Y-72175582D01*
X114162773Y-72219568D01*
X114077647Y-72336733D01*
X114000485Y-72488172D01*
X113952510Y-72538968D01*
X113884689Y-72555763D01*
X113818554Y-72533225D01*
X113779515Y-72488172D01*
X113702483Y-72336990D01*
X113702353Y-72336734D01*
X113585269Y-72175582D01*
X113467141Y-72057454D01*
X113433656Y-71996131D01*
X113438640Y-71926439D01*
X113467139Y-71882094D01*
X117514662Y-67834572D01*
X117575983Y-67801089D01*
X117578150Y-67800638D01*
X117636085Y-67789113D01*
X117733497Y-67769737D01*
X117879179Y-67709394D01*
X118010289Y-67621789D01*
X118121789Y-67510289D01*
X118209394Y-67379179D01*
X118222520Y-67347491D01*
X118244242Y-67295048D01*
X118269737Y-67233497D01*
X118300500Y-67078842D01*
X118300500Y-66921158D01*
X118300500Y-66921155D01*
X118300499Y-66921153D01*
X118276499Y-66800498D01*
X118269737Y-66766503D01*
X118244352Y-66705218D01*
X118209397Y-66620827D01*
X118209390Y-66620814D01*
X118121789Y-66489711D01*
X118121786Y-66489707D01*
X118010292Y-66378213D01*
X118010288Y-66378210D01*
X117879185Y-66290609D01*
X117879172Y-66290602D01*
X117733501Y-66230264D01*
X117733489Y-66230261D01*
X117578845Y-66199500D01*
X117578842Y-66199500D01*
X117421158Y-66199500D01*
X117421155Y-66199500D01*
X117266510Y-66230261D01*
X117266498Y-66230264D01*
X117120827Y-66290602D01*
X117120814Y-66290609D01*
X116989711Y-66378210D01*
X116989707Y-66378213D01*
X116878213Y-66489707D01*
X116878210Y-66489711D01*
X116790609Y-66620814D01*
X116790602Y-66620827D01*
X116730264Y-66766498D01*
X116730261Y-66766508D01*
X116699361Y-66921850D01*
X116666976Y-66983761D01*
X116665425Y-66985339D01*
X114512181Y-69138583D01*
X114450858Y-69172068D01*
X114381166Y-69167084D01*
X114325233Y-69125212D01*
X114300816Y-69059748D01*
X114300500Y-69050902D01*
X114300500Y-68921155D01*
X114300499Y-68921153D01*
X114274531Y-68790606D01*
X114269737Y-68766503D01*
X114256062Y-68733489D01*
X114209397Y-68620827D01*
X114209390Y-68620814D01*
X114121789Y-68489711D01*
X114121786Y-68489707D01*
X114010292Y-68378213D01*
X114010288Y-68378210D01*
X113879185Y-68290609D01*
X113879172Y-68290602D01*
X113733501Y-68230264D01*
X113733489Y-68230261D01*
X113578845Y-68199500D01*
X113578842Y-68199500D01*
X113421158Y-68199500D01*
X113421155Y-68199500D01*
X113266510Y-68230261D01*
X113266498Y-68230264D01*
X113120827Y-68290602D01*
X113120814Y-68290609D01*
X112989125Y-68378602D01*
X112922447Y-68399480D01*
X112920234Y-68399500D01*
X109300097Y-68399500D01*
X109233058Y-68379815D01*
X109212416Y-68363181D01*
X107834574Y-66985339D01*
X107801089Y-66924016D01*
X107800638Y-66921849D01*
X107776499Y-66800498D01*
X107769737Y-66766503D01*
X107744352Y-66705218D01*
X107709397Y-66620827D01*
X107709390Y-66620814D01*
X107621789Y-66489711D01*
X107621786Y-66489707D01*
X107510292Y-66378213D01*
X107510288Y-66378210D01*
X107379185Y-66290609D01*
X107379172Y-66290602D01*
X107233501Y-66230264D01*
X107233489Y-66230261D01*
X107078845Y-66199500D01*
X107078842Y-66199500D01*
X106921158Y-66199500D01*
X106921155Y-66199500D01*
X106766510Y-66230261D01*
X106766498Y-66230264D01*
X106620827Y-66290602D01*
X106620814Y-66290609D01*
X106489711Y-66378210D01*
X106489707Y-66378213D01*
X106378213Y-66489707D01*
X106378210Y-66489711D01*
X106290609Y-66620814D01*
X106290602Y-66620827D01*
X106230264Y-66766498D01*
X106230261Y-66766510D01*
X106199500Y-66921153D01*
X106199500Y-67078846D01*
X106230261Y-67233489D01*
X106230264Y-67233501D01*
X106290602Y-67379172D01*
X106290609Y-67379185D01*
X106378210Y-67510288D01*
X106378213Y-67510292D01*
X106489707Y-67621786D01*
X106489711Y-67621789D01*
X106620814Y-67709390D01*
X106620827Y-67709397D01*
X106766498Y-67769735D01*
X106766503Y-67769737D01*
X106831147Y-67782595D01*
X106921849Y-67800638D01*
X106983760Y-67833023D01*
X106985339Y-67834574D01*
X108515139Y-69364374D01*
X108515149Y-69364385D01*
X108519479Y-69368715D01*
X108519480Y-69368716D01*
X108631284Y-69480520D01*
X108682847Y-69510289D01*
X108718095Y-69530639D01*
X108718097Y-69530641D01*
X108756151Y-69552611D01*
X108768215Y-69559577D01*
X108920943Y-69600500D01*
X109079057Y-69600500D01*
X112920234Y-69600500D01*
X112987273Y-69620185D01*
X112989125Y-69621398D01*
X113120814Y-69709390D01*
X113120827Y-69709397D01*
X113266498Y-69769735D01*
X113266503Y-69769737D01*
X113421153Y-69800499D01*
X113421156Y-69800500D01*
X113550902Y-69800500D01*
X113617941Y-69820185D01*
X113663696Y-69872989D01*
X113673640Y-69942147D01*
X113644615Y-70005703D01*
X113638583Y-70012181D01*
X112139481Y-71511282D01*
X112139477Y-71511287D01*
X112125070Y-71536243D01*
X112121448Y-71542517D01*
X112060423Y-71648215D01*
X112019499Y-71800943D01*
X112019499Y-71800945D01*
X112019499Y-71809741D01*
X111999814Y-71876780D01*
X111960288Y-71915469D01*
X111956735Y-71917645D01*
X111853317Y-71992784D01*
X111795582Y-72034731D01*
X111795580Y-72034733D01*
X111795579Y-72034733D01*
X111654733Y-72175579D01*
X111654733Y-72175580D01*
X111654731Y-72175582D01*
X111622773Y-72219568D01*
X111537647Y-72336733D01*
X111460485Y-72488172D01*
X111412510Y-72538968D01*
X111344689Y-72555763D01*
X111278554Y-72533225D01*
X111239515Y-72488172D01*
X111162483Y-72336990D01*
X111162353Y-72336734D01*
X111045269Y-72175582D01*
X110904418Y-72034731D01*
X110743266Y-71917647D01*
X110680500Y-71885666D01*
X110565780Y-71827213D01*
X110376342Y-71765661D01*
X110228782Y-71742290D01*
X110179597Y-71734500D01*
X109980403Y-71734500D01*
X109914822Y-71744887D01*
X109783659Y-71765661D01*
X109783656Y-71765661D01*
X109594219Y-71827213D01*
X109416733Y-71917647D01*
X109378286Y-71945581D01*
X109255582Y-72034731D01*
X109255580Y-72034733D01*
X109255579Y-72034733D01*
X109114733Y-72175579D01*
X109114733Y-72175580D01*
X109114731Y-72175582D01*
X109082773Y-72219568D01*
X108997647Y-72336733D01*
X108920485Y-72488172D01*
X108872510Y-72538968D01*
X108804689Y-72555763D01*
X108738554Y-72533225D01*
X108699515Y-72488172D01*
X108622483Y-72336990D01*
X108622353Y-72336734D01*
X108505269Y-72175582D01*
X108364418Y-72034731D01*
X108203266Y-71917647D01*
X108140500Y-71885666D01*
X108025780Y-71827213D01*
X107836342Y-71765661D01*
X107688782Y-71742290D01*
X107639597Y-71734500D01*
X107440403Y-71734500D01*
X107374822Y-71744887D01*
X107243659Y-71765661D01*
X107243656Y-71765661D01*
X107054219Y-71827213D01*
X106876733Y-71917647D01*
X106838286Y-71945581D01*
X106715582Y-72034731D01*
X106715580Y-72034733D01*
X106715579Y-72034733D01*
X106574733Y-72175579D01*
X106574733Y-72175580D01*
X106574731Y-72175582D01*
X106542773Y-72219568D01*
X106457645Y-72336735D01*
X106380203Y-72488723D01*
X106332229Y-72539518D01*
X106264408Y-72556313D01*
X106198273Y-72533775D01*
X106159234Y-72488722D01*
X106081924Y-72336994D01*
X106054417Y-72299135D01*
X106054417Y-72299134D01*
X105491128Y-72862424D01*
X105475245Y-72803147D01*
X105408102Y-72686853D01*
X105313147Y-72591898D01*
X105196853Y-72524755D01*
X105137574Y-72508871D01*
X105700864Y-71945581D01*
X105700863Y-71945580D01*
X105663008Y-71918077D01*
X105485594Y-71827679D01*
X105296222Y-71766147D01*
X105099563Y-71735000D01*
X104900437Y-71735000D01*
X104703777Y-71766147D01*
X104514405Y-71827679D01*
X104336990Y-71918077D01*
X104299135Y-71945580D01*
X104299135Y-71945581D01*
X104862425Y-72508871D01*
X104803147Y-72524755D01*
X104686853Y-72591898D01*
X104591898Y-72686853D01*
X104524755Y-72803147D01*
X104508871Y-72862425D01*
X103945581Y-72299135D01*
X103945580Y-72299135D01*
X103918077Y-72336990D01*
X103827679Y-72514405D01*
X103766147Y-72703777D01*
X103735000Y-72900436D01*
X103735000Y-73099563D01*
X103766147Y-73296222D01*
X103827679Y-73485594D01*
X103918077Y-73663008D01*
X103945580Y-73700863D01*
X103945581Y-73700864D01*
X104508871Y-73137574D01*
X104524755Y-73196853D01*
X104591898Y-73313147D01*
X104686853Y-73408102D01*
X104803147Y-73475245D01*
X104862425Y-73491128D01*
X104299134Y-74054417D01*
X104336994Y-74081924D01*
X104514405Y-74172320D01*
X104703777Y-74233852D01*
X104900437Y-74265000D01*
X105099563Y-74265000D01*
X105296222Y-74233852D01*
X105485594Y-74172320D01*
X105663005Y-74081924D01*
X105700863Y-74054418D01*
X105700863Y-74054417D01*
X105137574Y-73491128D01*
X105196853Y-73475245D01*
X105313147Y-73408102D01*
X105408102Y-73313147D01*
X105475245Y-73196853D01*
X105491128Y-73137574D01*
X106054417Y-73700863D01*
X106054418Y-73700863D01*
X106081924Y-73663005D01*
X106159234Y-73511277D01*
X106207208Y-73460481D01*
X106275029Y-73443686D01*
X106341164Y-73466223D01*
X106380204Y-73511277D01*
X106455422Y-73658899D01*
X106457647Y-73663266D01*
X106574731Y-73824418D01*
X106715582Y-73965269D01*
X106876734Y-74082353D01*
X107053304Y-74172320D01*
X107054219Y-74172786D01*
X107243657Y-74234338D01*
X107243658Y-74234338D01*
X107243661Y-74234339D01*
X107440403Y-74265500D01*
X107440404Y-74265500D01*
X107639596Y-74265500D01*
X107639597Y-74265500D01*
X107836339Y-74234339D01*
X107836342Y-74234338D01*
X107836343Y-74234338D01*
X108025780Y-74172786D01*
X108025780Y-74172785D01*
X108025783Y-74172785D01*
X108203266Y-74082353D01*
X108364418Y-73965269D01*
X108505269Y-73824418D01*
X108622353Y-73663266D01*
X108699515Y-73511827D01*
X108747490Y-73461031D01*
X108815311Y-73444236D01*
X108881446Y-73466773D01*
X108920485Y-73511827D01*
X108997647Y-73663266D01*
X109114731Y-73824418D01*
X109255582Y-73965269D01*
X109416734Y-74082353D01*
X109593304Y-74172320D01*
X109594219Y-74172786D01*
X109783657Y-74234338D01*
X109783658Y-74234338D01*
X109783661Y-74234339D01*
X109980403Y-74265500D01*
X109980404Y-74265500D01*
X110179596Y-74265500D01*
X110179597Y-74265500D01*
X110376339Y-74234339D01*
X110376342Y-74234338D01*
X110376343Y-74234338D01*
X110565780Y-74172786D01*
X110565780Y-74172785D01*
X110565783Y-74172785D01*
X110743266Y-74082353D01*
X110904418Y-73965269D01*
X111045269Y-73824418D01*
X111162353Y-73663266D01*
X111239515Y-73511827D01*
X111287490Y-73461031D01*
X111355311Y-73444236D01*
X111421446Y-73466773D01*
X111460485Y-73511827D01*
X111537647Y-73663266D01*
X111654731Y-73824418D01*
X111795582Y-73965269D01*
X111956734Y-74082353D01*
X112133304Y-74172320D01*
X112134219Y-74172786D01*
X112323657Y-74234338D01*
X112323658Y-74234338D01*
X112323661Y-74234339D01*
X112520403Y-74265500D01*
X112520404Y-74265500D01*
X112719596Y-74265500D01*
X112719597Y-74265500D01*
X112916339Y-74234339D01*
X112916342Y-74234338D01*
X112916343Y-74234338D01*
X113105780Y-74172786D01*
X113105780Y-74172785D01*
X113105783Y-74172785D01*
X113283266Y-74082353D01*
X113444418Y-73965269D01*
X113585269Y-73824418D01*
X113702353Y-73663266D01*
X113779515Y-73511827D01*
X113827490Y-73461031D01*
X113895311Y-73444236D01*
X113961446Y-73466773D01*
X114000485Y-73511827D01*
X114077647Y-73663266D01*
X114194731Y-73824418D01*
X114335582Y-73965269D01*
X114496734Y-74082353D01*
X114527730Y-74098146D01*
X114555459Y-74112275D01*
X114606255Y-74160250D01*
X114623050Y-74228071D01*
X114600512Y-74294206D01*
X114568055Y-74325862D01*
X114489711Y-74378210D01*
X114489707Y-74378213D01*
X114378213Y-74489707D01*
X114378210Y-74489711D01*
X114290609Y-74620814D01*
X114290602Y-74620827D01*
X114230264Y-74766498D01*
X114230261Y-74766510D01*
X114199500Y-74921153D01*
X114199500Y-75078846D01*
X114230261Y-75233489D01*
X114230264Y-75233501D01*
X114290602Y-75379172D01*
X114290609Y-75379185D01*
X114378210Y-75510288D01*
X114378213Y-75510292D01*
X114489707Y-75621786D01*
X114489711Y-75621789D01*
X114620814Y-75709390D01*
X114620827Y-75709397D01*
X114766498Y-75769735D01*
X114766503Y-75769737D01*
X114921153Y-75800499D01*
X114921156Y-75800500D01*
X114921158Y-75800500D01*
X115078844Y-75800500D01*
X115078845Y-75800499D01*
X115233497Y-75769737D01*
X115379179Y-75709394D01*
X115379185Y-75709390D01*
X115510875Y-75621398D01*
X115577553Y-75600520D01*
X115579766Y-75600500D01*
X117920234Y-75600500D01*
X117987273Y-75620185D01*
X117989125Y-75621398D01*
X118120814Y-75709390D01*
X118120827Y-75709397D01*
X118266498Y-75769735D01*
X118266503Y-75769737D01*
X118421153Y-75800499D01*
X118421156Y-75800500D01*
X118421158Y-75800500D01*
X118578844Y-75800500D01*
X118578845Y-75800499D01*
X118733497Y-75769737D01*
X118879179Y-75709394D01*
X119010289Y-75621789D01*
X119121789Y-75510289D01*
X119209394Y-75379179D01*
X119269737Y-75233497D01*
X119300500Y-75078842D01*
X119300500Y-74921158D01*
X119300500Y-74921155D01*
X119300499Y-74921153D01*
X119274531Y-74790606D01*
X119269737Y-74766503D01*
X119269735Y-74766498D01*
X119209397Y-74620827D01*
X119209390Y-74620814D01*
X119121789Y-74489711D01*
X119121786Y-74489707D01*
X119010292Y-74378213D01*
X119010288Y-74378210D01*
X118879185Y-74290609D01*
X118879172Y-74290602D01*
X118733501Y-74230264D01*
X118733489Y-74230261D01*
X118578846Y-74199500D01*
X118572782Y-74198903D01*
X118573030Y-74196379D01*
X118516620Y-74179815D01*
X118470865Y-74127011D01*
X118460921Y-74057853D01*
X118489946Y-73994297D01*
X118510774Y-73975182D01*
X118511284Y-73974810D01*
X118524418Y-73965269D01*
X118665269Y-73824418D01*
X118782353Y-73663266D01*
X118859515Y-73511827D01*
X118907490Y-73461031D01*
X118975311Y-73444236D01*
X119041446Y-73466773D01*
X119080485Y-73511827D01*
X119157647Y-73663266D01*
X119274731Y-73824418D01*
X119415582Y-73965269D01*
X119576734Y-74082353D01*
X119753304Y-74172320D01*
X119754219Y-74172786D01*
X119943657Y-74234338D01*
X119943658Y-74234338D01*
X119943661Y-74234339D01*
X120140403Y-74265500D01*
X120140404Y-74265500D01*
X120339596Y-74265500D01*
X120339597Y-74265500D01*
X120536339Y-74234339D01*
X120536342Y-74234338D01*
X120536343Y-74234338D01*
X120725780Y-74172786D01*
X120725780Y-74172785D01*
X120725783Y-74172785D01*
X120903266Y-74082353D01*
X121064418Y-73965269D01*
X121205269Y-73824418D01*
X121322353Y-73663266D01*
X121399515Y-73511827D01*
X121447490Y-73461031D01*
X121515311Y-73444236D01*
X121581446Y-73466773D01*
X121620485Y-73511827D01*
X121697647Y-73663266D01*
X121814731Y-73824418D01*
X121955582Y-73965269D01*
X122116734Y-74082353D01*
X122293304Y-74172320D01*
X122294219Y-74172786D01*
X122483657Y-74234338D01*
X122483658Y-74234338D01*
X122483661Y-74234339D01*
X122680403Y-74265500D01*
X122680404Y-74265500D01*
X122879596Y-74265500D01*
X122879597Y-74265500D01*
X123076339Y-74234339D01*
X123076342Y-74234338D01*
X123076343Y-74234338D01*
X123265780Y-74172786D01*
X123265780Y-74172785D01*
X123265783Y-74172785D01*
X123443266Y-74082353D01*
X123604418Y-73965269D01*
X123745269Y-73824418D01*
X123862353Y-73663266D01*
X123939515Y-73511827D01*
X123987490Y-73461031D01*
X124055311Y-73444236D01*
X124121446Y-73466773D01*
X124160485Y-73511827D01*
X124237647Y-73663266D01*
X124354731Y-73824418D01*
X124495582Y-73965269D01*
X124656734Y-74082353D01*
X124833304Y-74172320D01*
X124834219Y-74172786D01*
X125023657Y-74234338D01*
X125023658Y-74234338D01*
X125023661Y-74234339D01*
X125220403Y-74265500D01*
X125220404Y-74265500D01*
X125419596Y-74265500D01*
X125419597Y-74265500D01*
X125616339Y-74234339D01*
X125616342Y-74234338D01*
X125616343Y-74234338D01*
X125805780Y-74172786D01*
X125805780Y-74172785D01*
X125805783Y-74172785D01*
X125983266Y-74082353D01*
X126144418Y-73965269D01*
X126285269Y-73824418D01*
X126402353Y-73663266D01*
X126479515Y-73511827D01*
X126527490Y-73461031D01*
X126595311Y-73444236D01*
X126661446Y-73466773D01*
X126700485Y-73511827D01*
X126777647Y-73663266D01*
X126894731Y-73824418D01*
X127035582Y-73965269D01*
X127196734Y-74082353D01*
X127373304Y-74172320D01*
X127374219Y-74172786D01*
X127563657Y-74234338D01*
X127563658Y-74234338D01*
X127563661Y-74234339D01*
X127760403Y-74265500D01*
X127760404Y-74265500D01*
X127959596Y-74265500D01*
X127959597Y-74265500D01*
X128156339Y-74234339D01*
X128156342Y-74234338D01*
X128156343Y-74234338D01*
X128345780Y-74172786D01*
X128345780Y-74172785D01*
X128345783Y-74172785D01*
X128523266Y-74082353D01*
X128684418Y-73965269D01*
X128825269Y-73824418D01*
X128942353Y-73663266D01*
X129019515Y-73511827D01*
X129067490Y-73461031D01*
X129135311Y-73444236D01*
X129201446Y-73466773D01*
X129240485Y-73511827D01*
X129317647Y-73663266D01*
X129434731Y-73824418D01*
X129575582Y-73965269D01*
X129736734Y-74082353D01*
X129913304Y-74172320D01*
X129914219Y-74172786D01*
X130103657Y-74234338D01*
X130103658Y-74234338D01*
X130103661Y-74234339D01*
X130300403Y-74265500D01*
X130300404Y-74265500D01*
X130499596Y-74265500D01*
X130499597Y-74265500D01*
X130696339Y-74234339D01*
X130696342Y-74234338D01*
X130696343Y-74234338D01*
X130885780Y-74172786D01*
X130885780Y-74172785D01*
X130885783Y-74172785D01*
X131063266Y-74082353D01*
X131224418Y-73965269D01*
X131365269Y-73824418D01*
X131482353Y-73663266D01*
X131559515Y-73511827D01*
X131607490Y-73461031D01*
X131675311Y-73444236D01*
X131741446Y-73466773D01*
X131780485Y-73511827D01*
X131857647Y-73663266D01*
X131974731Y-73824418D01*
X132115582Y-73965269D01*
X132276734Y-74082353D01*
X132453304Y-74172320D01*
X132454219Y-74172786D01*
X132643657Y-74234338D01*
X132643658Y-74234338D01*
X132643661Y-74234339D01*
X132840403Y-74265500D01*
X132840404Y-74265500D01*
X133039596Y-74265500D01*
X133039597Y-74265500D01*
X133236339Y-74234339D01*
X133236342Y-74234338D01*
X133236343Y-74234338D01*
X133425780Y-74172786D01*
X133425780Y-74172785D01*
X133425783Y-74172785D01*
X133603266Y-74082353D01*
X133764418Y-73965269D01*
X133905269Y-73824418D01*
X134022353Y-73663266D01*
X134099515Y-73511827D01*
X134147490Y-73461031D01*
X134215311Y-73444236D01*
X134281446Y-73466773D01*
X134320485Y-73511827D01*
X134397647Y-73663266D01*
X134514731Y-73824418D01*
X134655582Y-73965269D01*
X134816734Y-74082353D01*
X134993304Y-74172320D01*
X134994219Y-74172786D01*
X135183657Y-74234338D01*
X135183658Y-74234338D01*
X135183661Y-74234339D01*
X135380403Y-74265500D01*
X135380404Y-74265500D01*
X135579596Y-74265500D01*
X135579597Y-74265500D01*
X135776339Y-74234339D01*
X135776342Y-74234338D01*
X135776343Y-74234338D01*
X135965780Y-74172786D01*
X135965780Y-74172785D01*
X135965783Y-74172785D01*
X136143266Y-74082353D01*
X136304418Y-73965269D01*
X136445269Y-73824418D01*
X136562353Y-73663266D01*
X136639515Y-73511827D01*
X136687490Y-73461031D01*
X136755311Y-73444236D01*
X136821446Y-73466773D01*
X136860485Y-73511827D01*
X136937647Y-73663266D01*
X137054731Y-73824418D01*
X137195582Y-73965269D01*
X137356734Y-74082353D01*
X137533304Y-74172320D01*
X137534219Y-74172786D01*
X137723657Y-74234338D01*
X137723658Y-74234338D01*
X137723661Y-74234339D01*
X137920403Y-74265500D01*
X137920404Y-74265500D01*
X138119596Y-74265500D01*
X138119597Y-74265500D01*
X138316339Y-74234339D01*
X138316342Y-74234338D01*
X138316343Y-74234338D01*
X138505780Y-74172786D01*
X138505780Y-74172785D01*
X138505783Y-74172785D01*
X138683266Y-74082353D01*
X138844418Y-73965269D01*
X138985269Y-73824418D01*
X139102353Y-73663266D01*
X139179515Y-73511827D01*
X139227490Y-73461031D01*
X139295311Y-73444236D01*
X139361446Y-73466773D01*
X139400485Y-73511827D01*
X139477647Y-73663266D01*
X139594731Y-73824418D01*
X139735582Y-73965269D01*
X139896734Y-74082353D01*
X140073304Y-74172320D01*
X140074219Y-74172786D01*
X140263657Y-74234338D01*
X140263658Y-74234338D01*
X140263661Y-74234339D01*
X140460403Y-74265500D01*
X140460404Y-74265500D01*
X140659596Y-74265500D01*
X140659597Y-74265500D01*
X140856339Y-74234339D01*
X140856342Y-74234338D01*
X140856343Y-74234338D01*
X141045780Y-74172786D01*
X141045780Y-74172785D01*
X141045783Y-74172785D01*
X141223266Y-74082353D01*
X141384418Y-73965269D01*
X141525269Y-73824418D01*
X141642353Y-73663266D01*
X141719515Y-73511827D01*
X141767490Y-73461031D01*
X141835311Y-73444236D01*
X141901446Y-73466773D01*
X141940485Y-73511827D01*
X142017647Y-73663266D01*
X142134731Y-73824418D01*
X142275582Y-73965269D01*
X142436734Y-74082353D01*
X142613304Y-74172320D01*
X142614219Y-74172786D01*
X142803657Y-74234338D01*
X142803658Y-74234338D01*
X142803661Y-74234339D01*
X143000403Y-74265500D01*
X143000404Y-74265500D01*
X143199596Y-74265500D01*
X143199597Y-74265500D01*
X143396339Y-74234339D01*
X143396342Y-74234338D01*
X143396343Y-74234338D01*
X143585780Y-74172786D01*
X143585780Y-74172785D01*
X143585783Y-74172785D01*
X143763266Y-74082353D01*
X143924418Y-73965269D01*
X144065269Y-73824418D01*
X144182353Y-73663266D01*
X144259515Y-73511827D01*
X144307490Y-73461031D01*
X144375311Y-73444236D01*
X144441446Y-73466773D01*
X144480485Y-73511827D01*
X144557647Y-73663266D01*
X144674731Y-73824418D01*
X144815582Y-73965269D01*
X144976734Y-74082353D01*
X145153304Y-74172320D01*
X145154219Y-74172786D01*
X145343657Y-74234338D01*
X145343658Y-74234338D01*
X145343661Y-74234339D01*
X145540403Y-74265500D01*
X145540404Y-74265500D01*
X145739596Y-74265500D01*
X145739597Y-74265500D01*
X145936339Y-74234339D01*
X145936342Y-74234338D01*
X145936343Y-74234338D01*
X146125780Y-74172786D01*
X146125780Y-74172785D01*
X146125783Y-74172785D01*
X146303266Y-74082353D01*
X146464418Y-73965269D01*
X146605269Y-73824418D01*
X146722353Y-73663266D01*
X146799515Y-73511827D01*
X146847490Y-73461031D01*
X146915311Y-73444236D01*
X146981446Y-73466773D01*
X147020485Y-73511827D01*
X147097647Y-73663266D01*
X147214731Y-73824418D01*
X147355582Y-73965269D01*
X147516734Y-74082353D01*
X147693304Y-74172320D01*
X147694219Y-74172786D01*
X147883657Y-74234338D01*
X147883658Y-74234338D01*
X147883661Y-74234339D01*
X148080403Y-74265500D01*
X148080404Y-74265500D01*
X148279596Y-74265500D01*
X148279597Y-74265500D01*
X148476339Y-74234339D01*
X148476342Y-74234338D01*
X148476343Y-74234338D01*
X148665780Y-74172786D01*
X148665780Y-74172785D01*
X148665783Y-74172785D01*
X148843266Y-74082353D01*
X149004418Y-73965269D01*
X149145269Y-73824418D01*
X149262353Y-73663266D01*
X149339515Y-73511827D01*
X149387490Y-73461031D01*
X149455311Y-73444236D01*
X149521446Y-73466773D01*
X149560485Y-73511827D01*
X149637647Y-73663266D01*
X149754731Y-73824418D01*
X149895582Y-73965269D01*
X150056734Y-74082353D01*
X150233304Y-74172320D01*
X150234219Y-74172786D01*
X150423657Y-74234338D01*
X150423658Y-74234338D01*
X150423661Y-74234339D01*
X150620403Y-74265500D01*
X150620404Y-74265500D01*
X150819596Y-74265500D01*
X150819597Y-74265500D01*
X151016339Y-74234339D01*
X151016342Y-74234338D01*
X151016343Y-74234338D01*
X151205780Y-74172786D01*
X151205780Y-74172785D01*
X151205783Y-74172785D01*
X151383266Y-74082353D01*
X151544418Y-73965269D01*
X151685269Y-73824418D01*
X151802353Y-73663266D01*
X151879515Y-73511827D01*
X151927490Y-73461031D01*
X151995311Y-73444236D01*
X152061446Y-73466773D01*
X152100485Y-73511827D01*
X152177647Y-73663266D01*
X152294731Y-73824418D01*
X152435582Y-73965269D01*
X152596734Y-74082353D01*
X152773304Y-74172320D01*
X152774219Y-74172786D01*
X152963657Y-74234338D01*
X152963658Y-74234338D01*
X152963661Y-74234339D01*
X153160403Y-74265500D01*
X153160404Y-74265500D01*
X153359596Y-74265500D01*
X153359597Y-74265500D01*
X153556339Y-74234339D01*
X153556342Y-74234338D01*
X153556343Y-74234338D01*
X153745780Y-74172786D01*
X153745780Y-74172785D01*
X153745783Y-74172785D01*
X153923266Y-74082353D01*
X154084418Y-73965269D01*
X154225269Y-73824418D01*
X154342353Y-73663266D01*
X154419515Y-73511827D01*
X154467490Y-73461031D01*
X154535311Y-73444236D01*
X154601446Y-73466773D01*
X154640485Y-73511827D01*
X154717647Y-73663266D01*
X154834731Y-73824418D01*
X154975582Y-73965269D01*
X155136734Y-74082353D01*
X155313304Y-74172320D01*
X155314219Y-74172786D01*
X155503657Y-74234338D01*
X155503658Y-74234338D01*
X155503661Y-74234339D01*
X155700403Y-74265500D01*
X155700404Y-74265500D01*
X155899596Y-74265500D01*
X155899597Y-74265500D01*
X156096339Y-74234339D01*
X156096342Y-74234338D01*
X156096343Y-74234338D01*
X156285780Y-74172786D01*
X156285780Y-74172785D01*
X156285783Y-74172785D01*
X156463266Y-74082353D01*
X156624418Y-73965269D01*
X156765269Y-73824418D01*
X156850184Y-73707542D01*
X156905511Y-73664878D01*
X156975125Y-73658899D01*
X157036920Y-73691504D01*
X157071277Y-73752343D01*
X157074500Y-73780426D01*
X157074500Y-73812868D01*
X157074501Y-73812876D01*
X157080908Y-73872483D01*
X157131202Y-74007328D01*
X157131206Y-74007335D01*
X157217452Y-74122544D01*
X157217455Y-74122547D01*
X157332664Y-74208793D01*
X157332671Y-74208797D01*
X157467517Y-74259091D01*
X157467516Y-74259091D01*
X157474444Y-74259835D01*
X157527127Y-74265500D01*
X159152872Y-74265499D01*
X159212483Y-74259091D01*
X159347331Y-74208796D01*
X159462546Y-74122546D01*
X159535486Y-74025110D01*
X159591417Y-73983242D01*
X159661108Y-73978258D01*
X159722431Y-74011743D01*
X159755916Y-74073066D01*
X159758743Y-74098146D01*
X159998703Y-97374222D01*
X159979711Y-97441461D01*
X159927381Y-97487757D01*
X159874710Y-97499500D01*
X75624000Y-97499500D01*
X75556961Y-97479815D01*
X75511206Y-97427011D01*
X75500000Y-97375500D01*
X75500000Y-95760436D01*
X103735000Y-95760436D01*
X103735000Y-95959563D01*
X103766147Y-96156222D01*
X103827679Y-96345594D01*
X103918077Y-96523008D01*
X103945580Y-96560863D01*
X103945581Y-96560864D01*
X104508871Y-95997574D01*
X104524755Y-96056853D01*
X104591898Y-96173147D01*
X104686853Y-96268102D01*
X104803147Y-96335245D01*
X104862425Y-96351128D01*
X104299134Y-96914417D01*
X104336994Y-96941924D01*
X104514405Y-97032320D01*
X104703777Y-97093852D01*
X104900437Y-97125000D01*
X105099563Y-97125000D01*
X105296222Y-97093852D01*
X105485594Y-97032320D01*
X105663005Y-96941924D01*
X105700863Y-96914418D01*
X105700863Y-96914417D01*
X105137574Y-96351128D01*
X105196853Y-96335245D01*
X105313147Y-96268102D01*
X105408102Y-96173147D01*
X105475245Y-96056853D01*
X105491128Y-95997574D01*
X106054417Y-96560863D01*
X106054418Y-96560863D01*
X106081924Y-96523005D01*
X106159515Y-96370727D01*
X106207490Y-96319931D01*
X106275311Y-96303136D01*
X106341446Y-96325674D01*
X106380485Y-96370727D01*
X106458077Y-96523008D01*
X106485580Y-96560863D01*
X106485581Y-96560864D01*
X107048871Y-95997574D01*
X107064755Y-96056853D01*
X107131898Y-96173147D01*
X107226853Y-96268102D01*
X107343147Y-96335245D01*
X107402425Y-96351128D01*
X106839134Y-96914417D01*
X106876994Y-96941924D01*
X107054405Y-97032320D01*
X107243777Y-97093852D01*
X107440437Y-97125000D01*
X107639563Y-97125000D01*
X107836222Y-97093852D01*
X108025594Y-97032320D01*
X108203005Y-96941924D01*
X108240863Y-96914418D01*
X108240863Y-96914417D01*
X107677574Y-96351128D01*
X107736853Y-96335245D01*
X107853147Y-96268102D01*
X107948102Y-96173147D01*
X108015245Y-96056853D01*
X108031128Y-95997574D01*
X108594417Y-96560863D01*
X108594418Y-96560863D01*
X108621924Y-96523005D01*
X108699234Y-96371277D01*
X108747208Y-96320481D01*
X108815029Y-96303686D01*
X108881164Y-96326223D01*
X108920204Y-96371277D01*
X108997514Y-96523005D01*
X108997647Y-96523266D01*
X109114731Y-96684418D01*
X109255582Y-96825269D01*
X109416734Y-96942353D01*
X109593304Y-97032320D01*
X109594219Y-97032786D01*
X109783657Y-97094338D01*
X109783658Y-97094338D01*
X109783661Y-97094339D01*
X109980403Y-97125500D01*
X109980404Y-97125500D01*
X110179596Y-97125500D01*
X110179597Y-97125500D01*
X110376339Y-97094339D01*
X110376342Y-97094338D01*
X110376343Y-97094338D01*
X110565780Y-97032786D01*
X110565780Y-97032785D01*
X110565783Y-97032785D01*
X110743266Y-96942353D01*
X110904418Y-96825269D01*
X111045269Y-96684418D01*
X111162353Y-96523266D01*
X111239515Y-96371827D01*
X111287490Y-96321031D01*
X111355311Y-96304236D01*
X111421446Y-96326773D01*
X111460485Y-96371827D01*
X111537647Y-96523266D01*
X111654731Y-96684418D01*
X111795582Y-96825269D01*
X111956734Y-96942353D01*
X112133304Y-97032320D01*
X112134219Y-97032786D01*
X112323657Y-97094338D01*
X112323658Y-97094338D01*
X112323661Y-97094339D01*
X112520403Y-97125500D01*
X112520404Y-97125500D01*
X112719596Y-97125500D01*
X112719597Y-97125500D01*
X112916339Y-97094339D01*
X112916342Y-97094338D01*
X112916343Y-97094338D01*
X113105780Y-97032786D01*
X113105780Y-97032785D01*
X113105783Y-97032785D01*
X113283266Y-96942353D01*
X113444418Y-96825269D01*
X113585269Y-96684418D01*
X113702353Y-96523266D01*
X113779515Y-96371827D01*
X113827490Y-96321031D01*
X113895311Y-96304236D01*
X113961446Y-96326773D01*
X114000485Y-96371827D01*
X114077647Y-96523266D01*
X114194731Y-96684418D01*
X114335582Y-96825269D01*
X114496734Y-96942353D01*
X114673304Y-97032320D01*
X114674219Y-97032786D01*
X114863657Y-97094338D01*
X114863658Y-97094338D01*
X114863661Y-97094339D01*
X115060403Y-97125500D01*
X115060404Y-97125500D01*
X115259596Y-97125500D01*
X115259597Y-97125500D01*
X115456339Y-97094339D01*
X115456342Y-97094338D01*
X115456343Y-97094338D01*
X115645780Y-97032786D01*
X115645780Y-97032785D01*
X115645783Y-97032785D01*
X115823266Y-96942353D01*
X115984418Y-96825269D01*
X116125269Y-96684418D01*
X116242353Y-96523266D01*
X116319515Y-96371827D01*
X116367490Y-96321031D01*
X116435311Y-96304236D01*
X116501446Y-96326773D01*
X116540485Y-96371827D01*
X116617647Y-96523266D01*
X116734731Y-96684418D01*
X116875582Y-96825269D01*
X117036734Y-96942353D01*
X117213304Y-97032320D01*
X117214219Y-97032786D01*
X117403657Y-97094338D01*
X117403658Y-97094338D01*
X117403661Y-97094339D01*
X117600403Y-97125500D01*
X117600404Y-97125500D01*
X117799596Y-97125500D01*
X117799597Y-97125500D01*
X117996339Y-97094339D01*
X117996342Y-97094338D01*
X117996343Y-97094338D01*
X118185780Y-97032786D01*
X118185780Y-97032785D01*
X118185783Y-97032785D01*
X118363266Y-96942353D01*
X118524418Y-96825269D01*
X118665269Y-96684418D01*
X118782353Y-96523266D01*
X118859515Y-96371827D01*
X118907490Y-96321031D01*
X118975311Y-96304236D01*
X119041446Y-96326773D01*
X119080485Y-96371827D01*
X119157647Y-96523266D01*
X119274731Y-96684418D01*
X119415582Y-96825269D01*
X119576734Y-96942353D01*
X119753304Y-97032320D01*
X119754219Y-97032786D01*
X119943657Y-97094338D01*
X119943658Y-97094338D01*
X119943661Y-97094339D01*
X120140403Y-97125500D01*
X120140404Y-97125500D01*
X120339596Y-97125500D01*
X120339597Y-97125500D01*
X120536339Y-97094339D01*
X120536342Y-97094338D01*
X120536343Y-97094338D01*
X120725780Y-97032786D01*
X120725780Y-97032785D01*
X120725783Y-97032785D01*
X120903266Y-96942353D01*
X121064418Y-96825269D01*
X121205269Y-96684418D01*
X121322353Y-96523266D01*
X121399515Y-96371827D01*
X121447490Y-96321031D01*
X121515311Y-96304236D01*
X121581446Y-96326773D01*
X121620485Y-96371827D01*
X121697647Y-96523266D01*
X121814731Y-96684418D01*
X121955582Y-96825269D01*
X122116734Y-96942353D01*
X122293304Y-97032320D01*
X122294219Y-97032786D01*
X122483657Y-97094338D01*
X122483658Y-97094338D01*
X122483661Y-97094339D01*
X122680403Y-97125500D01*
X122680404Y-97125500D01*
X122879596Y-97125500D01*
X122879597Y-97125500D01*
X123076339Y-97094339D01*
X123076342Y-97094338D01*
X123076343Y-97094338D01*
X123265780Y-97032786D01*
X123265780Y-97032785D01*
X123265783Y-97032785D01*
X123443266Y-96942353D01*
X123604418Y-96825269D01*
X123745269Y-96684418D01*
X123862353Y-96523266D01*
X123939515Y-96371827D01*
X123987490Y-96321031D01*
X124055311Y-96304236D01*
X124121446Y-96326773D01*
X124160485Y-96371827D01*
X124237647Y-96523266D01*
X124354731Y-96684418D01*
X124495582Y-96825269D01*
X124656734Y-96942353D01*
X124833304Y-97032320D01*
X124834219Y-97032786D01*
X125023657Y-97094338D01*
X125023658Y-97094338D01*
X125023661Y-97094339D01*
X125220403Y-97125500D01*
X125220404Y-97125500D01*
X125419596Y-97125500D01*
X125419597Y-97125500D01*
X125616339Y-97094339D01*
X125616342Y-97094338D01*
X125616343Y-97094338D01*
X125805780Y-97032786D01*
X125805780Y-97032785D01*
X125805783Y-97032785D01*
X125983266Y-96942353D01*
X126144418Y-96825269D01*
X126285269Y-96684418D01*
X126402353Y-96523266D01*
X126479515Y-96371827D01*
X126527490Y-96321031D01*
X126595311Y-96304236D01*
X126661446Y-96326773D01*
X126700485Y-96371827D01*
X126777647Y-96523266D01*
X126894731Y-96684418D01*
X127035582Y-96825269D01*
X127196734Y-96942353D01*
X127373304Y-97032320D01*
X127374219Y-97032786D01*
X127563657Y-97094338D01*
X127563658Y-97094338D01*
X127563661Y-97094339D01*
X127760403Y-97125500D01*
X127760404Y-97125500D01*
X127959596Y-97125500D01*
X127959597Y-97125500D01*
X128156339Y-97094339D01*
X128156342Y-97094338D01*
X128156343Y-97094338D01*
X128345780Y-97032786D01*
X128345780Y-97032785D01*
X128345783Y-97032785D01*
X128523266Y-96942353D01*
X128684418Y-96825269D01*
X128825269Y-96684418D01*
X128942353Y-96523266D01*
X129019515Y-96371827D01*
X129067490Y-96321031D01*
X129135311Y-96304236D01*
X129201446Y-96326773D01*
X129240485Y-96371827D01*
X129317647Y-96523266D01*
X129434731Y-96684418D01*
X129575582Y-96825269D01*
X129736734Y-96942353D01*
X129913304Y-97032320D01*
X129914219Y-97032786D01*
X130103657Y-97094338D01*
X130103658Y-97094338D01*
X130103661Y-97094339D01*
X130300403Y-97125500D01*
X130300404Y-97125500D01*
X130499596Y-97125500D01*
X130499597Y-97125500D01*
X130696339Y-97094339D01*
X130696342Y-97094338D01*
X130696343Y-97094338D01*
X130885780Y-97032786D01*
X130885780Y-97032785D01*
X130885783Y-97032785D01*
X131063266Y-96942353D01*
X131224418Y-96825269D01*
X131365269Y-96684418D01*
X131482353Y-96523266D01*
X131559515Y-96371827D01*
X131607490Y-96321031D01*
X131675311Y-96304236D01*
X131741446Y-96326773D01*
X131780485Y-96371827D01*
X131857647Y-96523266D01*
X131974731Y-96684418D01*
X132115582Y-96825269D01*
X132276734Y-96942353D01*
X132453304Y-97032320D01*
X132454219Y-97032786D01*
X132643657Y-97094338D01*
X132643658Y-97094338D01*
X132643661Y-97094339D01*
X132840403Y-97125500D01*
X132840404Y-97125500D01*
X133039596Y-97125500D01*
X133039597Y-97125500D01*
X133236339Y-97094339D01*
X133236342Y-97094338D01*
X133236343Y-97094338D01*
X133425780Y-97032786D01*
X133425780Y-97032785D01*
X133425783Y-97032785D01*
X133603266Y-96942353D01*
X133764418Y-96825269D01*
X133905269Y-96684418D01*
X134022353Y-96523266D01*
X134099515Y-96371827D01*
X134147490Y-96321031D01*
X134215311Y-96304236D01*
X134281446Y-96326773D01*
X134320485Y-96371827D01*
X134397647Y-96523266D01*
X134514731Y-96684418D01*
X134655582Y-96825269D01*
X134816734Y-96942353D01*
X134993304Y-97032320D01*
X134994219Y-97032786D01*
X135183657Y-97094338D01*
X135183658Y-97094338D01*
X135183661Y-97094339D01*
X135380403Y-97125500D01*
X135380404Y-97125500D01*
X135579596Y-97125500D01*
X135579597Y-97125500D01*
X135776339Y-97094339D01*
X135776342Y-97094338D01*
X135776343Y-97094338D01*
X135965780Y-97032786D01*
X135965780Y-97032785D01*
X135965783Y-97032785D01*
X136143266Y-96942353D01*
X136304418Y-96825269D01*
X136445269Y-96684418D01*
X136562353Y-96523266D01*
X136639515Y-96371827D01*
X136687490Y-96321031D01*
X136755311Y-96304236D01*
X136821446Y-96326773D01*
X136860485Y-96371827D01*
X136937647Y-96523266D01*
X137054731Y-96684418D01*
X137195582Y-96825269D01*
X137356734Y-96942353D01*
X137533304Y-97032320D01*
X137534219Y-97032786D01*
X137723657Y-97094338D01*
X137723658Y-97094338D01*
X137723661Y-97094339D01*
X137920403Y-97125500D01*
X137920404Y-97125500D01*
X138119596Y-97125500D01*
X138119597Y-97125500D01*
X138316339Y-97094339D01*
X138316342Y-97094338D01*
X138316343Y-97094338D01*
X138505780Y-97032786D01*
X138505780Y-97032785D01*
X138505783Y-97032785D01*
X138683266Y-96942353D01*
X138844418Y-96825269D01*
X138985269Y-96684418D01*
X139102353Y-96523266D01*
X139179515Y-96371827D01*
X139227490Y-96321031D01*
X139295311Y-96304236D01*
X139361446Y-96326773D01*
X139400485Y-96371827D01*
X139477647Y-96523266D01*
X139594731Y-96684418D01*
X139735582Y-96825269D01*
X139896734Y-96942353D01*
X140073304Y-97032320D01*
X140074219Y-97032786D01*
X140263657Y-97094338D01*
X140263658Y-97094338D01*
X140263661Y-97094339D01*
X140460403Y-97125500D01*
X140460404Y-97125500D01*
X140659596Y-97125500D01*
X140659597Y-97125500D01*
X140856339Y-97094339D01*
X140856342Y-97094338D01*
X140856343Y-97094338D01*
X141045780Y-97032786D01*
X141045780Y-97032785D01*
X141045783Y-97032785D01*
X141223266Y-96942353D01*
X141384418Y-96825269D01*
X141525269Y-96684418D01*
X141642353Y-96523266D01*
X141719515Y-96371827D01*
X141767490Y-96321031D01*
X141835311Y-96304236D01*
X141901446Y-96326773D01*
X141940485Y-96371827D01*
X142017647Y-96523266D01*
X142134731Y-96684418D01*
X142275582Y-96825269D01*
X142436734Y-96942353D01*
X142613304Y-97032320D01*
X142614219Y-97032786D01*
X142803657Y-97094338D01*
X142803658Y-97094338D01*
X142803661Y-97094339D01*
X143000403Y-97125500D01*
X143000404Y-97125500D01*
X143199596Y-97125500D01*
X143199597Y-97125500D01*
X143396339Y-97094339D01*
X143396342Y-97094338D01*
X143396343Y-97094338D01*
X143585780Y-97032786D01*
X143585780Y-97032785D01*
X143585783Y-97032785D01*
X143763266Y-96942353D01*
X143924418Y-96825269D01*
X144065269Y-96684418D01*
X144182353Y-96523266D01*
X144259515Y-96371827D01*
X144307490Y-96321031D01*
X144375311Y-96304236D01*
X144441446Y-96326773D01*
X144480485Y-96371827D01*
X144557647Y-96523266D01*
X144674731Y-96684418D01*
X144815582Y-96825269D01*
X144976734Y-96942353D01*
X145153304Y-97032320D01*
X145154219Y-97032786D01*
X145343657Y-97094338D01*
X145343658Y-97094338D01*
X145343661Y-97094339D01*
X145540403Y-97125500D01*
X145540404Y-97125500D01*
X145739596Y-97125500D01*
X145739597Y-97125500D01*
X145936339Y-97094339D01*
X145936342Y-97094338D01*
X145936343Y-97094338D01*
X146125780Y-97032786D01*
X146125780Y-97032785D01*
X146125783Y-97032785D01*
X146303266Y-96942353D01*
X146464418Y-96825269D01*
X146605269Y-96684418D01*
X146722353Y-96523266D01*
X146799515Y-96371827D01*
X146847490Y-96321031D01*
X146915311Y-96304236D01*
X146981446Y-96326773D01*
X147020485Y-96371827D01*
X147097647Y-96523266D01*
X147214731Y-96684418D01*
X147355582Y-96825269D01*
X147516734Y-96942353D01*
X147693304Y-97032320D01*
X147694219Y-97032786D01*
X147883657Y-97094338D01*
X147883658Y-97094338D01*
X147883661Y-97094339D01*
X148080403Y-97125500D01*
X148080404Y-97125500D01*
X148279596Y-97125500D01*
X148279597Y-97125500D01*
X148476339Y-97094339D01*
X148476342Y-97094338D01*
X148476343Y-97094338D01*
X148665780Y-97032786D01*
X148665780Y-97032785D01*
X148665783Y-97032785D01*
X148843266Y-96942353D01*
X149004418Y-96825269D01*
X149145269Y-96684418D01*
X149262353Y-96523266D01*
X149339515Y-96371827D01*
X149387490Y-96321031D01*
X149455311Y-96304236D01*
X149521446Y-96326773D01*
X149560485Y-96371827D01*
X149637647Y-96523266D01*
X149754731Y-96684418D01*
X149895582Y-96825269D01*
X150056734Y-96942353D01*
X150233304Y-97032320D01*
X150234219Y-97032786D01*
X150423657Y-97094338D01*
X150423658Y-97094338D01*
X150423661Y-97094339D01*
X150620403Y-97125500D01*
X150620404Y-97125500D01*
X150819596Y-97125500D01*
X150819597Y-97125500D01*
X151016339Y-97094339D01*
X151016342Y-97094338D01*
X151016343Y-97094338D01*
X151205780Y-97032786D01*
X151205780Y-97032785D01*
X151205783Y-97032785D01*
X151383266Y-96942353D01*
X151544418Y-96825269D01*
X151685269Y-96684418D01*
X151802353Y-96523266D01*
X151879515Y-96371827D01*
X151927490Y-96321031D01*
X151995311Y-96304236D01*
X152061446Y-96326773D01*
X152100485Y-96371827D01*
X152177647Y-96523266D01*
X152294731Y-96684418D01*
X152435582Y-96825269D01*
X152596734Y-96942353D01*
X152773304Y-97032320D01*
X152774219Y-97032786D01*
X152963657Y-97094338D01*
X152963658Y-97094338D01*
X152963661Y-97094339D01*
X153160403Y-97125500D01*
X153160404Y-97125500D01*
X153359596Y-97125500D01*
X153359597Y-97125500D01*
X153556339Y-97094339D01*
X153556342Y-97094338D01*
X153556343Y-97094338D01*
X153745780Y-97032786D01*
X153745780Y-97032785D01*
X153745783Y-97032785D01*
X153923266Y-96942353D01*
X154084418Y-96825269D01*
X154225269Y-96684418D01*
X154342353Y-96523266D01*
X154419515Y-96371827D01*
X154467490Y-96321031D01*
X154535311Y-96304236D01*
X154601446Y-96326773D01*
X154640485Y-96371827D01*
X154717647Y-96523266D01*
X154834731Y-96684418D01*
X154975582Y-96825269D01*
X155136734Y-96942353D01*
X155313304Y-97032320D01*
X155314219Y-97032786D01*
X155503657Y-97094338D01*
X155503658Y-97094338D01*
X155503661Y-97094339D01*
X155700403Y-97125500D01*
X155700404Y-97125500D01*
X155899596Y-97125500D01*
X155899597Y-97125500D01*
X156096339Y-97094339D01*
X156096342Y-97094338D01*
X156096343Y-97094338D01*
X156285780Y-97032786D01*
X156285780Y-97032785D01*
X156285783Y-97032785D01*
X156463266Y-96942353D01*
X156624418Y-96825269D01*
X156765269Y-96684418D01*
X156882353Y-96523266D01*
X156959795Y-96371276D01*
X157007769Y-96320481D01*
X157075590Y-96303686D01*
X157141725Y-96326223D01*
X157180765Y-96371277D01*
X157258077Y-96523008D01*
X157285580Y-96560863D01*
X157285581Y-96560864D01*
X157848871Y-95997574D01*
X157864755Y-96056853D01*
X157931898Y-96173147D01*
X158026853Y-96268102D01*
X158143147Y-96335245D01*
X158202425Y-96351128D01*
X157639134Y-96914417D01*
X157676994Y-96941924D01*
X157854405Y-97032320D01*
X158043777Y-97093852D01*
X158240437Y-97125000D01*
X158439563Y-97125000D01*
X158636222Y-97093852D01*
X158825594Y-97032320D01*
X159003005Y-96941924D01*
X159040863Y-96914418D01*
X159040863Y-96914417D01*
X158477574Y-96351128D01*
X158536853Y-96335245D01*
X158653147Y-96268102D01*
X158748102Y-96173147D01*
X158815245Y-96056853D01*
X158831128Y-95997574D01*
X159394417Y-96560863D01*
X159394418Y-96560863D01*
X159421924Y-96523005D01*
X159512320Y-96345594D01*
X159573852Y-96156222D01*
X159605000Y-95959563D01*
X159605000Y-95760436D01*
X159573852Y-95563777D01*
X159512320Y-95374405D01*
X159421924Y-95196994D01*
X159394417Y-95159135D01*
X159394417Y-95159134D01*
X158831128Y-95722424D01*
X158815245Y-95663147D01*
X158748102Y-95546853D01*
X158653147Y-95451898D01*
X158536853Y-95384755D01*
X158477574Y-95368871D01*
X159040864Y-94805581D01*
X159040863Y-94805580D01*
X159003008Y-94778077D01*
X158825594Y-94687679D01*
X158636222Y-94626147D01*
X158439563Y-94595000D01*
X158240437Y-94595000D01*
X158043777Y-94626147D01*
X157854405Y-94687679D01*
X157676990Y-94778077D01*
X157639135Y-94805580D01*
X157639135Y-94805581D01*
X158202425Y-95368871D01*
X158143147Y-95384755D01*
X158026853Y-95451898D01*
X157931898Y-95546853D01*
X157864755Y-95663147D01*
X157848871Y-95722425D01*
X157285581Y-95159135D01*
X157285580Y-95159135D01*
X157258075Y-95196993D01*
X157180764Y-95348723D01*
X157132790Y-95399518D01*
X157064969Y-95416313D01*
X156998834Y-95393775D01*
X156959795Y-95348722D01*
X156882486Y-95196996D01*
X156882353Y-95196734D01*
X156765269Y-95035582D01*
X156624418Y-94894731D01*
X156463266Y-94777647D01*
X156285780Y-94687213D01*
X156096342Y-94625661D01*
X155948782Y-94602290D01*
X155899597Y-94594500D01*
X155700403Y-94594500D01*
X155634822Y-94604887D01*
X155503659Y-94625661D01*
X155503656Y-94625661D01*
X155314219Y-94687213D01*
X155136733Y-94777647D01*
X155098286Y-94805581D01*
X154975582Y-94894731D01*
X154975580Y-94894733D01*
X154975579Y-94894733D01*
X154834733Y-95035579D01*
X154834733Y-95035580D01*
X154834731Y-95035582D01*
X154784447Y-95104790D01*
X154717647Y-95196733D01*
X154640485Y-95348172D01*
X154592510Y-95398968D01*
X154524689Y-95415763D01*
X154458554Y-95393225D01*
X154419515Y-95348172D01*
X154342486Y-95196996D01*
X154342353Y-95196734D01*
X154225269Y-95035582D01*
X154084418Y-94894731D01*
X153923266Y-94777647D01*
X153745780Y-94687213D01*
X153556342Y-94625661D01*
X153408782Y-94602290D01*
X153359597Y-94594500D01*
X153160403Y-94594500D01*
X153094822Y-94604887D01*
X152963659Y-94625661D01*
X152963656Y-94625661D01*
X152774219Y-94687213D01*
X152596733Y-94777647D01*
X152558286Y-94805581D01*
X152435582Y-94894731D01*
X152435580Y-94894733D01*
X152435579Y-94894733D01*
X152294733Y-95035579D01*
X152294733Y-95035580D01*
X152294731Y-95035582D01*
X152244447Y-95104790D01*
X152177647Y-95196733D01*
X152100485Y-95348172D01*
X152052510Y-95398968D01*
X151984689Y-95415763D01*
X151918554Y-95393225D01*
X151879515Y-95348172D01*
X151802486Y-95196996D01*
X151802353Y-95196734D01*
X151685269Y-95035582D01*
X151544418Y-94894731D01*
X151383266Y-94777647D01*
X151205780Y-94687213D01*
X151016342Y-94625661D01*
X150868782Y-94602290D01*
X150819597Y-94594500D01*
X150620403Y-94594500D01*
X150554822Y-94604887D01*
X150423659Y-94625661D01*
X150423656Y-94625661D01*
X150234219Y-94687213D01*
X150056733Y-94777647D01*
X150018286Y-94805581D01*
X149895582Y-94894731D01*
X149895580Y-94894733D01*
X149895579Y-94894733D01*
X149754733Y-95035579D01*
X149754733Y-95035580D01*
X149754731Y-95035582D01*
X149704447Y-95104790D01*
X149637647Y-95196733D01*
X149560485Y-95348172D01*
X149512510Y-95398968D01*
X149444689Y-95415763D01*
X149378554Y-95393225D01*
X149339515Y-95348172D01*
X149262486Y-95196996D01*
X149262353Y-95196734D01*
X149145269Y-95035582D01*
X149004418Y-94894731D01*
X148843266Y-94777647D01*
X148665780Y-94687213D01*
X148476342Y-94625661D01*
X148328782Y-94602290D01*
X148279597Y-94594500D01*
X148080403Y-94594500D01*
X148014822Y-94604887D01*
X147883659Y-94625661D01*
X147883656Y-94625661D01*
X147694219Y-94687213D01*
X147516733Y-94777647D01*
X147478286Y-94805581D01*
X147355582Y-94894731D01*
X147355580Y-94894733D01*
X147355579Y-94894733D01*
X147214733Y-95035579D01*
X147214733Y-95035580D01*
X147214731Y-95035582D01*
X147164447Y-95104790D01*
X147097647Y-95196733D01*
X147020485Y-95348172D01*
X146972510Y-95398968D01*
X146904689Y-95415763D01*
X146838554Y-95393225D01*
X146799515Y-95348172D01*
X146722486Y-95196996D01*
X146722353Y-95196734D01*
X146605269Y-95035582D01*
X146464418Y-94894731D01*
X146303266Y-94777647D01*
X146125780Y-94687213D01*
X145936342Y-94625661D01*
X145788782Y-94602290D01*
X145739597Y-94594500D01*
X145540403Y-94594500D01*
X145474822Y-94604887D01*
X145343659Y-94625661D01*
X145343656Y-94625661D01*
X145154219Y-94687213D01*
X144976733Y-94777647D01*
X144938286Y-94805581D01*
X144815582Y-94894731D01*
X144815580Y-94894733D01*
X144815579Y-94894733D01*
X144674733Y-95035579D01*
X144674733Y-95035580D01*
X144674731Y-95035582D01*
X144624447Y-95104790D01*
X144557647Y-95196733D01*
X144480485Y-95348172D01*
X144432510Y-95398968D01*
X144364689Y-95415763D01*
X144298554Y-95393225D01*
X144259515Y-95348172D01*
X144182486Y-95196996D01*
X144182353Y-95196734D01*
X144065269Y-95035582D01*
X143924418Y-94894731D01*
X143763266Y-94777647D01*
X143585780Y-94687213D01*
X143396342Y-94625661D01*
X143248782Y-94602290D01*
X143199597Y-94594500D01*
X143000403Y-94594500D01*
X142934822Y-94604887D01*
X142803659Y-94625661D01*
X142803656Y-94625661D01*
X142614219Y-94687213D01*
X142436733Y-94777647D01*
X142398286Y-94805581D01*
X142275582Y-94894731D01*
X142275580Y-94894733D01*
X142275579Y-94894733D01*
X142134733Y-95035579D01*
X142134733Y-95035580D01*
X142134731Y-95035582D01*
X142084447Y-95104790D01*
X142017647Y-95196733D01*
X141940485Y-95348172D01*
X141892510Y-95398968D01*
X141824689Y-95415763D01*
X141758554Y-95393225D01*
X141719515Y-95348172D01*
X141642486Y-95196996D01*
X141642353Y-95196734D01*
X141525269Y-95035582D01*
X141384418Y-94894731D01*
X141223266Y-94777647D01*
X141045780Y-94687213D01*
X140856342Y-94625661D01*
X140708782Y-94602290D01*
X140659597Y-94594500D01*
X140460403Y-94594500D01*
X140394822Y-94604887D01*
X140263659Y-94625661D01*
X140263656Y-94625661D01*
X140074219Y-94687213D01*
X139896733Y-94777647D01*
X139858286Y-94805581D01*
X139735582Y-94894731D01*
X139735580Y-94894733D01*
X139735579Y-94894733D01*
X139594733Y-95035579D01*
X139594733Y-95035580D01*
X139594731Y-95035582D01*
X139544447Y-95104790D01*
X139477647Y-95196733D01*
X139400485Y-95348172D01*
X139352510Y-95398968D01*
X139284689Y-95415763D01*
X139218554Y-95393225D01*
X139179515Y-95348172D01*
X139102486Y-95196996D01*
X139102353Y-95196734D01*
X138985269Y-95035582D01*
X138844418Y-94894731D01*
X138683266Y-94777647D01*
X138505780Y-94687213D01*
X138316342Y-94625661D01*
X138168782Y-94602290D01*
X138119597Y-94594500D01*
X137920403Y-94594500D01*
X137854822Y-94604887D01*
X137723659Y-94625661D01*
X137723656Y-94625661D01*
X137534219Y-94687213D01*
X137356733Y-94777647D01*
X137318286Y-94805581D01*
X137195582Y-94894731D01*
X137195580Y-94894733D01*
X137195579Y-94894733D01*
X137054733Y-95035579D01*
X137054733Y-95035580D01*
X137054731Y-95035582D01*
X137004447Y-95104790D01*
X136937647Y-95196733D01*
X136860485Y-95348172D01*
X136812510Y-95398968D01*
X136744689Y-95415763D01*
X136678554Y-95393225D01*
X136639515Y-95348172D01*
X136562486Y-95196996D01*
X136562353Y-95196734D01*
X136445269Y-95035582D01*
X136304418Y-94894731D01*
X136143266Y-94777647D01*
X135965780Y-94687213D01*
X135776342Y-94625661D01*
X135628782Y-94602290D01*
X135579597Y-94594500D01*
X135380403Y-94594500D01*
X135314822Y-94604887D01*
X135183659Y-94625661D01*
X135183656Y-94625661D01*
X134994219Y-94687213D01*
X134816733Y-94777647D01*
X134778286Y-94805581D01*
X134655582Y-94894731D01*
X134655580Y-94894733D01*
X134655579Y-94894733D01*
X134514733Y-95035579D01*
X134514733Y-95035580D01*
X134514731Y-95035582D01*
X134464447Y-95104790D01*
X134397647Y-95196733D01*
X134320485Y-95348172D01*
X134272510Y-95398968D01*
X134204689Y-95415763D01*
X134138554Y-95393225D01*
X134099515Y-95348172D01*
X134022486Y-95196996D01*
X134022353Y-95196734D01*
X133905269Y-95035582D01*
X133764418Y-94894731D01*
X133603266Y-94777647D01*
X133425780Y-94687213D01*
X133236342Y-94625661D01*
X133088782Y-94602290D01*
X133039597Y-94594500D01*
X132840403Y-94594500D01*
X132774822Y-94604887D01*
X132643659Y-94625661D01*
X132643656Y-94625661D01*
X132454219Y-94687213D01*
X132276733Y-94777647D01*
X132238286Y-94805581D01*
X132115582Y-94894731D01*
X132115580Y-94894733D01*
X132115579Y-94894733D01*
X131974733Y-95035579D01*
X131974733Y-95035580D01*
X131974731Y-95035582D01*
X131924447Y-95104790D01*
X131857647Y-95196733D01*
X131780485Y-95348172D01*
X131732510Y-95398968D01*
X131664689Y-95415763D01*
X131598554Y-95393225D01*
X131559515Y-95348172D01*
X131482486Y-95196996D01*
X131482353Y-95196734D01*
X131365269Y-95035582D01*
X131224418Y-94894731D01*
X131063266Y-94777647D01*
X130885780Y-94687213D01*
X130696342Y-94625661D01*
X130548782Y-94602290D01*
X130499597Y-94594500D01*
X130300403Y-94594500D01*
X130234822Y-94604887D01*
X130103659Y-94625661D01*
X130103656Y-94625661D01*
X129914219Y-94687213D01*
X129736733Y-94777647D01*
X129698286Y-94805581D01*
X129575582Y-94894731D01*
X129575580Y-94894733D01*
X129575579Y-94894733D01*
X129434733Y-95035579D01*
X129434733Y-95035580D01*
X129434731Y-95035582D01*
X129384447Y-95104790D01*
X129317647Y-95196733D01*
X129240485Y-95348172D01*
X129192510Y-95398968D01*
X129124689Y-95415763D01*
X129058554Y-95393225D01*
X129019515Y-95348172D01*
X128942486Y-95196996D01*
X128942353Y-95196734D01*
X128825269Y-95035582D01*
X128684418Y-94894731D01*
X128523266Y-94777647D01*
X128345780Y-94687213D01*
X128156342Y-94625661D01*
X128008782Y-94602290D01*
X127959597Y-94594500D01*
X127760403Y-94594500D01*
X127694822Y-94604887D01*
X127563659Y-94625661D01*
X127563656Y-94625661D01*
X127374219Y-94687213D01*
X127196733Y-94777647D01*
X127158286Y-94805581D01*
X127035582Y-94894731D01*
X127035580Y-94894733D01*
X127035579Y-94894733D01*
X126894733Y-95035579D01*
X126894733Y-95035580D01*
X126894731Y-95035582D01*
X126844447Y-95104790D01*
X126777647Y-95196733D01*
X126700485Y-95348172D01*
X126652510Y-95398968D01*
X126584689Y-95415763D01*
X126518554Y-95393225D01*
X126479515Y-95348172D01*
X126402486Y-95196996D01*
X126402353Y-95196734D01*
X126285269Y-95035582D01*
X126144418Y-94894731D01*
X125983266Y-94777647D01*
X125805780Y-94687213D01*
X125616342Y-94625661D01*
X125468782Y-94602290D01*
X125419597Y-94594500D01*
X125220403Y-94594500D01*
X125154822Y-94604887D01*
X125023659Y-94625661D01*
X125023656Y-94625661D01*
X124834219Y-94687213D01*
X124656733Y-94777647D01*
X124618286Y-94805581D01*
X124495582Y-94894731D01*
X124495580Y-94894733D01*
X124495579Y-94894733D01*
X124354733Y-95035579D01*
X124354733Y-95035580D01*
X124354731Y-95035582D01*
X124304447Y-95104790D01*
X124237647Y-95196733D01*
X124160485Y-95348172D01*
X124112510Y-95398968D01*
X124044689Y-95415763D01*
X123978554Y-95393225D01*
X123939515Y-95348172D01*
X123862486Y-95196996D01*
X123862353Y-95196734D01*
X123745269Y-95035582D01*
X123604418Y-94894731D01*
X123443266Y-94777647D01*
X123265780Y-94687213D01*
X123076342Y-94625661D01*
X122928782Y-94602290D01*
X122879597Y-94594500D01*
X122680403Y-94594500D01*
X122614822Y-94604887D01*
X122483659Y-94625661D01*
X122483656Y-94625661D01*
X122294219Y-94687213D01*
X122116733Y-94777647D01*
X122078286Y-94805581D01*
X121955582Y-94894731D01*
X121955580Y-94894733D01*
X121955579Y-94894733D01*
X121814733Y-95035579D01*
X121814733Y-95035580D01*
X121814731Y-95035582D01*
X121764447Y-95104790D01*
X121697647Y-95196733D01*
X121620485Y-95348172D01*
X121572510Y-95398968D01*
X121504689Y-95415763D01*
X121438554Y-95393225D01*
X121399515Y-95348172D01*
X121322486Y-95196996D01*
X121322353Y-95196734D01*
X121205269Y-95035582D01*
X121064418Y-94894731D01*
X120903266Y-94777647D01*
X120725780Y-94687213D01*
X120536342Y-94625661D01*
X120388782Y-94602290D01*
X120339597Y-94594500D01*
X120140403Y-94594500D01*
X120074822Y-94604887D01*
X119943659Y-94625661D01*
X119943656Y-94625661D01*
X119754219Y-94687213D01*
X119576733Y-94777647D01*
X119538286Y-94805581D01*
X119415582Y-94894731D01*
X119415580Y-94894733D01*
X119415579Y-94894733D01*
X119274733Y-95035579D01*
X119274733Y-95035580D01*
X119274731Y-95035582D01*
X119224447Y-95104790D01*
X119157647Y-95196733D01*
X119080485Y-95348172D01*
X119032510Y-95398968D01*
X118964689Y-95415763D01*
X118898554Y-95393225D01*
X118859515Y-95348172D01*
X118782486Y-95196996D01*
X118782353Y-95196734D01*
X118665269Y-95035582D01*
X118524418Y-94894731D01*
X118363266Y-94777647D01*
X118185780Y-94687213D01*
X117996342Y-94625661D01*
X117848782Y-94602290D01*
X117799597Y-94594500D01*
X117600403Y-94594500D01*
X117534822Y-94604887D01*
X117403659Y-94625661D01*
X117403656Y-94625661D01*
X117214219Y-94687213D01*
X117036733Y-94777647D01*
X116998286Y-94805581D01*
X116875582Y-94894731D01*
X116875580Y-94894733D01*
X116875579Y-94894733D01*
X116734733Y-95035579D01*
X116734733Y-95035580D01*
X116734731Y-95035582D01*
X116684447Y-95104790D01*
X116617647Y-95196733D01*
X116540485Y-95348172D01*
X116492510Y-95398968D01*
X116424689Y-95415763D01*
X116358554Y-95393225D01*
X116319515Y-95348172D01*
X116242486Y-95196996D01*
X116242353Y-95196734D01*
X116125269Y-95035582D01*
X115984418Y-94894731D01*
X115823266Y-94777647D01*
X115645780Y-94687213D01*
X115456342Y-94625661D01*
X115308782Y-94602290D01*
X115259597Y-94594500D01*
X115060403Y-94594500D01*
X114994822Y-94604887D01*
X114863659Y-94625661D01*
X114863656Y-94625661D01*
X114674219Y-94687213D01*
X114496733Y-94777647D01*
X114458286Y-94805581D01*
X114335582Y-94894731D01*
X114335580Y-94894733D01*
X114335579Y-94894733D01*
X114194733Y-95035579D01*
X114194733Y-95035580D01*
X114194731Y-95035582D01*
X114144447Y-95104790D01*
X114077647Y-95196733D01*
X114000485Y-95348172D01*
X113952510Y-95398968D01*
X113884689Y-95415763D01*
X113818554Y-95393225D01*
X113779515Y-95348172D01*
X113702486Y-95196996D01*
X113702353Y-95196734D01*
X113585269Y-95035582D01*
X113444418Y-94894731D01*
X113283266Y-94777647D01*
X113105780Y-94687213D01*
X112916342Y-94625661D01*
X112768782Y-94602290D01*
X112719597Y-94594500D01*
X112520403Y-94594500D01*
X112454822Y-94604887D01*
X112323659Y-94625661D01*
X112323656Y-94625661D01*
X112134219Y-94687213D01*
X111956733Y-94777647D01*
X111918286Y-94805581D01*
X111795582Y-94894731D01*
X111795580Y-94894733D01*
X111795579Y-94894733D01*
X111654733Y-95035579D01*
X111654733Y-95035580D01*
X111654731Y-95035582D01*
X111604447Y-95104790D01*
X111537647Y-95196733D01*
X111460485Y-95348172D01*
X111412510Y-95398968D01*
X111344689Y-95415763D01*
X111278554Y-95393225D01*
X111239515Y-95348172D01*
X111162486Y-95196996D01*
X111162353Y-95196734D01*
X111045269Y-95035582D01*
X110904418Y-94894731D01*
X110743266Y-94777647D01*
X110565780Y-94687213D01*
X110376342Y-94625661D01*
X110228782Y-94602290D01*
X110179597Y-94594500D01*
X109980403Y-94594500D01*
X109914822Y-94604887D01*
X109783659Y-94625661D01*
X109783656Y-94625661D01*
X109594219Y-94687213D01*
X109416733Y-94777647D01*
X109378286Y-94805581D01*
X109255582Y-94894731D01*
X109255580Y-94894733D01*
X109255579Y-94894733D01*
X109114733Y-95035579D01*
X109114733Y-95035580D01*
X109114731Y-95035582D01*
X109079555Y-95083997D01*
X108997645Y-95196735D01*
X108920203Y-95348723D01*
X108872229Y-95399518D01*
X108804408Y-95416313D01*
X108738273Y-95393775D01*
X108699234Y-95348722D01*
X108621924Y-95196994D01*
X108594417Y-95159135D01*
X108594417Y-95159134D01*
X108031128Y-95722424D01*
X108015245Y-95663147D01*
X107948102Y-95546853D01*
X107853147Y-95451898D01*
X107736853Y-95384755D01*
X107677574Y-95368871D01*
X108240864Y-94805581D01*
X108240863Y-94805580D01*
X108203008Y-94778077D01*
X108025594Y-94687679D01*
X107836222Y-94626147D01*
X107639563Y-94595000D01*
X107440437Y-94595000D01*
X107243777Y-94626147D01*
X107054405Y-94687679D01*
X106876990Y-94778077D01*
X106839135Y-94805580D01*
X106839135Y-94805581D01*
X107402425Y-95368871D01*
X107343147Y-95384755D01*
X107226853Y-95451898D01*
X107131898Y-95546853D01*
X107064755Y-95663147D01*
X107048871Y-95722425D01*
X106485581Y-95159135D01*
X106485580Y-95159135D01*
X106458074Y-95196995D01*
X106458073Y-95196996D01*
X106380484Y-95349272D01*
X106332510Y-95400068D01*
X106264689Y-95416863D01*
X106198554Y-95394325D01*
X106159516Y-95349272D01*
X106081928Y-95196999D01*
X106054417Y-95159135D01*
X106054417Y-95159134D01*
X105491128Y-95722424D01*
X105475245Y-95663147D01*
X105408102Y-95546853D01*
X105313147Y-95451898D01*
X105196853Y-95384755D01*
X105137574Y-95368871D01*
X105700864Y-94805581D01*
X105700863Y-94805580D01*
X105663008Y-94778077D01*
X105485594Y-94687679D01*
X105296222Y-94626147D01*
X105099563Y-94595000D01*
X104900437Y-94595000D01*
X104703777Y-94626147D01*
X104514405Y-94687679D01*
X104336990Y-94778077D01*
X104299135Y-94805580D01*
X104299135Y-94805581D01*
X104862425Y-95368871D01*
X104803147Y-95384755D01*
X104686853Y-95451898D01*
X104591898Y-95546853D01*
X104524755Y-95663147D01*
X104508871Y-95722425D01*
X103945581Y-95159135D01*
X103945580Y-95159135D01*
X103918077Y-95196990D01*
X103827679Y-95374405D01*
X103766147Y-95563777D01*
X103735000Y-95760436D01*
X75500000Y-95760436D01*
X75500000Y-66921153D01*
X77199500Y-66921153D01*
X77199500Y-67078846D01*
X77230261Y-67233489D01*
X77230264Y-67233501D01*
X77290602Y-67379172D01*
X77290609Y-67379185D01*
X77378602Y-67510874D01*
X77399480Y-67577551D01*
X77399500Y-67579765D01*
X77399500Y-74913330D01*
X77399499Y-74913348D01*
X77399499Y-75079054D01*
X77399498Y-75079054D01*
X77440423Y-75231785D01*
X77460468Y-75266503D01*
X77519480Y-75368716D01*
X77631284Y-75480520D01*
X77631285Y-75480521D01*
X77661056Y-75510292D01*
X77665425Y-75514660D01*
X77698911Y-75575983D01*
X77699362Y-75578151D01*
X77730261Y-75733491D01*
X77730264Y-75733501D01*
X77790602Y-75879172D01*
X77790609Y-75879185D01*
X77878210Y-76010288D01*
X77878213Y-76010292D01*
X77989707Y-76121786D01*
X77989711Y-76121789D01*
X78120814Y-76209390D01*
X78120827Y-76209397D01*
X78266498Y-76269735D01*
X78266503Y-76269737D01*
X78421153Y-76300499D01*
X78421156Y-76300500D01*
X78421158Y-76300500D01*
X78578844Y-76300500D01*
X78578845Y-76300499D01*
X78733497Y-76269737D01*
X78879179Y-76209394D01*
X79010289Y-76121789D01*
X79121789Y-76010289D01*
X79209394Y-75879179D01*
X79269737Y-75733497D01*
X79300500Y-75578842D01*
X79300500Y-75421158D01*
X79300500Y-75421155D01*
X79300499Y-75421153D01*
X79292148Y-75379172D01*
X79269737Y-75266503D01*
X79256062Y-75233489D01*
X79209397Y-75120827D01*
X79209390Y-75120814D01*
X79121789Y-74989711D01*
X79121786Y-74989707D01*
X79010292Y-74878213D01*
X79010288Y-74878210D01*
X78879185Y-74790609D01*
X78879172Y-74790602D01*
X78733501Y-74730264D01*
X78733489Y-74730261D01*
X78700309Y-74723661D01*
X78638398Y-74691276D01*
X78603824Y-74630561D01*
X78600500Y-74602044D01*
X78600500Y-67579765D01*
X78620185Y-67512726D01*
X78621398Y-67510874D01*
X78709390Y-67379185D01*
X78709390Y-67379184D01*
X78709394Y-67379179D01*
X78722520Y-67347491D01*
X78744242Y-67295048D01*
X78769737Y-67233497D01*
X78800500Y-67078842D01*
X78800500Y-66921158D01*
X78800500Y-66921155D01*
X78800499Y-66921153D01*
X78776499Y-66800498D01*
X78769737Y-66766503D01*
X78744352Y-66705218D01*
X78709397Y-66620827D01*
X78709390Y-66620814D01*
X78621789Y-66489711D01*
X78621786Y-66489707D01*
X78510292Y-66378213D01*
X78510288Y-66378210D01*
X78379185Y-66290609D01*
X78379172Y-66290602D01*
X78233501Y-66230264D01*
X78233489Y-66230261D01*
X78078845Y-66199500D01*
X78078842Y-66199500D01*
X77921158Y-66199500D01*
X77921155Y-66199500D01*
X77766510Y-66230261D01*
X77766498Y-66230264D01*
X77620827Y-66290602D01*
X77620814Y-66290609D01*
X77489711Y-66378210D01*
X77489707Y-66378213D01*
X77378213Y-66489707D01*
X77378210Y-66489711D01*
X77290609Y-66620814D01*
X77290602Y-66620827D01*
X77230264Y-66766498D01*
X77230261Y-66766510D01*
X77199500Y-66921153D01*
X75500000Y-66921153D01*
X75500000Y-55082135D01*
X79649500Y-55082135D01*
X79649500Y-56877870D01*
X79649501Y-56877876D01*
X79655908Y-56937483D01*
X79706202Y-57072328D01*
X79706206Y-57072335D01*
X79792452Y-57187544D01*
X79792455Y-57187547D01*
X79907664Y-57273793D01*
X79907671Y-57273797D01*
X80039082Y-57322810D01*
X80095016Y-57364681D01*
X80119433Y-57430145D01*
X80104582Y-57498418D01*
X80083431Y-57526673D01*
X79969889Y-57640215D01*
X79844951Y-57812179D01*
X79748444Y-58001585D01*
X79682753Y-58203760D01*
X79649500Y-58413713D01*
X79649500Y-58626286D01*
X79676570Y-58797203D01*
X79682754Y-58836243D01*
X79703469Y-58899998D01*
X79748444Y-59038414D01*
X79844951Y-59227820D01*
X79969890Y-59399786D01*
X80120213Y-59550109D01*
X80292182Y-59675050D01*
X80300946Y-59679516D01*
X80351742Y-59727491D01*
X80368536Y-59795312D01*
X80345998Y-59861447D01*
X80300946Y-59900484D01*
X80292182Y-59904949D01*
X80120213Y-60029890D01*
X79969890Y-60180213D01*
X79844951Y-60352179D01*
X79748444Y-60541585D01*
X79682753Y-60743760D01*
X79649500Y-60953713D01*
X79649500Y-61166286D01*
X79682753Y-61376239D01*
X79748444Y-61578414D01*
X79844951Y-61767820D01*
X79969890Y-61939786D01*
X80120213Y-62090109D01*
X80292182Y-62215050D01*
X80300946Y-62219516D01*
X80351742Y-62267491D01*
X80368536Y-62335312D01*
X80345998Y-62401447D01*
X80300946Y-62440484D01*
X80292182Y-62444949D01*
X80120213Y-62569890D01*
X79969890Y-62720213D01*
X79844951Y-62892179D01*
X79748444Y-63081585D01*
X79682753Y-63283760D01*
X79674951Y-63333023D01*
X79649500Y-63493713D01*
X79649500Y-63706287D01*
X79653298Y-63730264D01*
X79676730Y-63878213D01*
X79682754Y-63916243D01*
X79734451Y-64075350D01*
X79748444Y-64118414D01*
X79844951Y-64307820D01*
X79969890Y-64479786D01*
X80120213Y-64630109D01*
X80292182Y-64755050D01*
X80300946Y-64759516D01*
X80351742Y-64807491D01*
X80368536Y-64875312D01*
X80345998Y-64941447D01*
X80300946Y-64980484D01*
X80292182Y-64984949D01*
X80120213Y-65109890D01*
X79969890Y-65260213D01*
X79844951Y-65432179D01*
X79748444Y-65621585D01*
X79682753Y-65823760D01*
X79674129Y-65878210D01*
X79649500Y-66033713D01*
X79649500Y-66246287D01*
X79682754Y-66456243D01*
X79722590Y-66578846D01*
X79748444Y-66658414D01*
X79844951Y-66847820D01*
X79969890Y-67019786D01*
X80120213Y-67170109D01*
X80292182Y-67295050D01*
X80300946Y-67299516D01*
X80351742Y-67347491D01*
X80368536Y-67415312D01*
X80345998Y-67481447D01*
X80300946Y-67520484D01*
X80292182Y-67524949D01*
X80120213Y-67649890D01*
X79969890Y-67800213D01*
X79844951Y-67972179D01*
X79748444Y-68161585D01*
X79682753Y-68363760D01*
X79649500Y-68573713D01*
X79649500Y-68786287D01*
X79650184Y-68790606D01*
X79681718Y-68989707D01*
X79682754Y-68996243D01*
X79739883Y-69172068D01*
X79748444Y-69198414D01*
X79844951Y-69387820D01*
X79969890Y-69559786D01*
X80120213Y-69710109D01*
X80292182Y-69835050D01*
X80300946Y-69839516D01*
X80351742Y-69887491D01*
X80368536Y-69955312D01*
X80345998Y-70021447D01*
X80300946Y-70060484D01*
X80292182Y-70064949D01*
X80120213Y-70189890D01*
X79969890Y-70340213D01*
X79844951Y-70512179D01*
X79748444Y-70701585D01*
X79682753Y-70903760D01*
X79649500Y-71113713D01*
X79649500Y-71326286D01*
X79678800Y-71511282D01*
X79682754Y-71536243D01*
X79747334Y-71735000D01*
X79748444Y-71738414D01*
X79844951Y-71927820D01*
X79969890Y-72099786D01*
X80120213Y-72250109D01*
X80292182Y-72375050D01*
X80300946Y-72379516D01*
X80351742Y-72427491D01*
X80368536Y-72495312D01*
X80345998Y-72561447D01*
X80300946Y-72600484D01*
X80292182Y-72604949D01*
X80120213Y-72729890D01*
X79969890Y-72880213D01*
X79844951Y-73052179D01*
X79748444Y-73241585D01*
X79682753Y-73443760D01*
X79649500Y-73653713D01*
X79649500Y-73866286D01*
X79682250Y-74073066D01*
X79682754Y-74076243D01*
X79745624Y-74269737D01*
X79748444Y-74278414D01*
X79844951Y-74467820D01*
X79969890Y-74639786D01*
X80120213Y-74790109D01*
X80292182Y-74915050D01*
X80300946Y-74919516D01*
X80351742Y-74967491D01*
X80368536Y-75035312D01*
X80345998Y-75101447D01*
X80300946Y-75140484D01*
X80292182Y-75144949D01*
X80120213Y-75269890D01*
X79969890Y-75420213D01*
X79844951Y-75592179D01*
X79748444Y-75781585D01*
X79682753Y-75983760D01*
X79678551Y-76010292D01*
X79649500Y-76193713D01*
X79649500Y-76406287D01*
X79682754Y-76616243D01*
X79739409Y-76790609D01*
X79748444Y-76818414D01*
X79844951Y-77007820D01*
X79969890Y-77179786D01*
X80120213Y-77330109D01*
X80292182Y-77455050D01*
X80300946Y-77459516D01*
X80351742Y-77507491D01*
X80368536Y-77575312D01*
X80345998Y-77641447D01*
X80300946Y-77680484D01*
X80292182Y-77684949D01*
X80120213Y-77809890D01*
X79969890Y-77960213D01*
X79844951Y-78132179D01*
X79748444Y-78321585D01*
X79748443Y-78321587D01*
X79748443Y-78321588D01*
X79737837Y-78354230D01*
X79682753Y-78523760D01*
X79649500Y-78733713D01*
X79649500Y-78946287D01*
X79682754Y-79156243D01*
X79707855Y-79233497D01*
X79748444Y-79358414D01*
X79844951Y-79547820D01*
X79969890Y-79719786D01*
X80120213Y-79870109D01*
X80292182Y-79995050D01*
X80300946Y-79999516D01*
X80351742Y-80047491D01*
X80368536Y-80115312D01*
X80345998Y-80181447D01*
X80300946Y-80220484D01*
X80292182Y-80224949D01*
X80120213Y-80349890D01*
X79969890Y-80500213D01*
X79844951Y-80672179D01*
X79748444Y-80861585D01*
X79682753Y-81063760D01*
X79649500Y-81273713D01*
X79649500Y-81486286D01*
X79682753Y-81696239D01*
X79748444Y-81898414D01*
X79844951Y-82087820D01*
X79969890Y-82259786D01*
X80120213Y-82410109D01*
X80292182Y-82535050D01*
X80300946Y-82539516D01*
X80351742Y-82587491D01*
X80368536Y-82655312D01*
X80345998Y-82721447D01*
X80300946Y-82760484D01*
X80292182Y-82764949D01*
X80120213Y-82889890D01*
X79969890Y-83040213D01*
X79844951Y-83212179D01*
X79748444Y-83401585D01*
X79682753Y-83603760D01*
X79649500Y-83813713D01*
X79649500Y-84026286D01*
X79682753Y-84236239D01*
X79748444Y-84438414D01*
X79844951Y-84627820D01*
X79969890Y-84799786D01*
X80120213Y-84950109D01*
X80292179Y-85075048D01*
X80292181Y-85075049D01*
X80292184Y-85075051D01*
X80301493Y-85079794D01*
X80352290Y-85127766D01*
X80369087Y-85195587D01*
X80346552Y-85261722D01*
X80301505Y-85300760D01*
X80292446Y-85305376D01*
X80292440Y-85305380D01*
X80238282Y-85344727D01*
X80238282Y-85344728D01*
X80870591Y-85977037D01*
X80807007Y-85994075D01*
X80692993Y-86059901D01*
X80599901Y-86152993D01*
X80534075Y-86267007D01*
X80517037Y-86330591D01*
X79884728Y-85698282D01*
X79884727Y-85698282D01*
X79845380Y-85752439D01*
X79748904Y-85941782D01*
X79683242Y-86143869D01*
X79683242Y-86143872D01*
X79650000Y-86353753D01*
X79650000Y-86566246D01*
X79683242Y-86776127D01*
X79683242Y-86776130D01*
X79748904Y-86978217D01*
X79845375Y-87167550D01*
X79884728Y-87221716D01*
X80517037Y-86589408D01*
X80534075Y-86652993D01*
X80599901Y-86767007D01*
X80692993Y-86860099D01*
X80807007Y-86925925D01*
X80870590Y-86942962D01*
X80238282Y-87575269D01*
X80238282Y-87575270D01*
X80292452Y-87614626D01*
X80292451Y-87614626D01*
X80301495Y-87619234D01*
X80352292Y-87667208D01*
X80369087Y-87735029D01*
X80346550Y-87801164D01*
X80301499Y-87840202D01*
X80292182Y-87844949D01*
X80120213Y-87969890D01*
X79969890Y-88120213D01*
X79844951Y-88292179D01*
X79748444Y-88481585D01*
X79682753Y-88683760D01*
X79649500Y-88893713D01*
X79649500Y-89106286D01*
X79682753Y-89316239D01*
X79748444Y-89518414D01*
X79844951Y-89707820D01*
X79969890Y-89879786D01*
X80120213Y-90030109D01*
X80292179Y-90155048D01*
X80292181Y-90155049D01*
X80292184Y-90155051D01*
X80481588Y-90251557D01*
X80683757Y-90317246D01*
X80893713Y-90350500D01*
X80893714Y-90350500D01*
X81106286Y-90350500D01*
X81106287Y-90350500D01*
X81316243Y-90317246D01*
X81518412Y-90251557D01*
X81707816Y-90155051D01*
X81729789Y-90139086D01*
X81879786Y-90030109D01*
X81879788Y-90030106D01*
X81879792Y-90030104D01*
X82030104Y-89879792D01*
X82030106Y-89879788D01*
X82030109Y-89879786D01*
X82155048Y-89707820D01*
X82155047Y-89707820D01*
X82155051Y-89707816D01*
X82251557Y-89518412D01*
X82317246Y-89316243D01*
X82350500Y-89106287D01*
X82350500Y-88893713D01*
X82317246Y-88683757D01*
X82251557Y-88481588D01*
X82155051Y-88292184D01*
X82155049Y-88292181D01*
X82155048Y-88292179D01*
X82030109Y-88120213D01*
X81879786Y-87969890D01*
X81707817Y-87844949D01*
X81698504Y-87840204D01*
X81647707Y-87792230D01*
X81630912Y-87724409D01*
X81653449Y-87658274D01*
X81698507Y-87619232D01*
X81707555Y-87614622D01*
X81761716Y-87575270D01*
X81761717Y-87575270D01*
X81129408Y-86942962D01*
X81192993Y-86925925D01*
X81307007Y-86860099D01*
X81400099Y-86767007D01*
X81465925Y-86652993D01*
X81482962Y-86589408D01*
X82115270Y-87221717D01*
X82115270Y-87221716D01*
X82154622Y-87167554D01*
X82251095Y-86978217D01*
X82316757Y-86776130D01*
X82316757Y-86776127D01*
X82350000Y-86566246D01*
X82350000Y-86353753D01*
X82316757Y-86143872D01*
X82316757Y-86143869D01*
X82251095Y-85941782D01*
X82154624Y-85752449D01*
X82115270Y-85698282D01*
X82115269Y-85698282D01*
X81482962Y-86330590D01*
X81465925Y-86267007D01*
X81400099Y-86152993D01*
X81307007Y-86059901D01*
X81192993Y-85994075D01*
X81129409Y-85977037D01*
X81761716Y-85344728D01*
X81707547Y-85305373D01*
X81707547Y-85305372D01*
X81698500Y-85300763D01*
X81647706Y-85252788D01*
X81630912Y-85184966D01*
X81653451Y-85118832D01*
X81698508Y-85079793D01*
X81707816Y-85075051D01*
X81787007Y-85017515D01*
X81879786Y-84950109D01*
X81879788Y-84950106D01*
X81879792Y-84950104D01*
X82030104Y-84799792D01*
X82030106Y-84799788D01*
X82030109Y-84799786D01*
X82155048Y-84627820D01*
X82155047Y-84627820D01*
X82155051Y-84627816D01*
X82251557Y-84438412D01*
X82317246Y-84236243D01*
X82350500Y-84026287D01*
X82350500Y-83813713D01*
X82317246Y-83603757D01*
X82251557Y-83401588D01*
X82155051Y-83212184D01*
X82155049Y-83212181D01*
X82155048Y-83212179D01*
X82030109Y-83040213D01*
X81879786Y-82889890D01*
X81707820Y-82764951D01*
X81707115Y-82764591D01*
X81699054Y-82760485D01*
X81648259Y-82712512D01*
X81631463Y-82644692D01*
X81653999Y-82578556D01*
X81699054Y-82539515D01*
X81707816Y-82535051D01*
X81729789Y-82519086D01*
X81879786Y-82410109D01*
X81879788Y-82410106D01*
X81879792Y-82410104D01*
X82030104Y-82259792D01*
X82030106Y-82259788D01*
X82030109Y-82259786D01*
X82155048Y-82087820D01*
X82155047Y-82087820D01*
X82155051Y-82087816D01*
X82251557Y-81898412D01*
X82317246Y-81696243D01*
X82350500Y-81486287D01*
X82350500Y-81421153D01*
X111699500Y-81421153D01*
X111699500Y-81578846D01*
X111730261Y-81733489D01*
X111730264Y-81733501D01*
X111790602Y-81879172D01*
X111790609Y-81879185D01*
X111878210Y-82010288D01*
X111878213Y-82010292D01*
X111989707Y-82121786D01*
X111989711Y-82121789D01*
X112120814Y-82209390D01*
X112120827Y-82209397D01*
X112242479Y-82259786D01*
X112266503Y-82269737D01*
X112421153Y-82300499D01*
X112421156Y-82300500D01*
X112421158Y-82300500D01*
X112578844Y-82300500D01*
X112578845Y-82300499D01*
X112733497Y-82269737D01*
X112879179Y-82209394D01*
X112879185Y-82209390D01*
X113010875Y-82121398D01*
X113077553Y-82100520D01*
X113079766Y-82100500D01*
X117920234Y-82100500D01*
X117987273Y-82120185D01*
X117989125Y-82121398D01*
X118120814Y-82209390D01*
X118120827Y-82209397D01*
X118242479Y-82259786D01*
X118266503Y-82269737D01*
X118421153Y-82300499D01*
X118421156Y-82300500D01*
X118421158Y-82300500D01*
X118578844Y-82300500D01*
X118578845Y-82300499D01*
X118733497Y-82269737D01*
X118879179Y-82209394D01*
X119010289Y-82121789D01*
X119121789Y-82010289D01*
X119209394Y-81879179D01*
X119269737Y-81733497D01*
X119300500Y-81578842D01*
X119300500Y-81421158D01*
X119300500Y-81421155D01*
X119300499Y-81421153D01*
X119269738Y-81266510D01*
X119269737Y-81266503D01*
X119269735Y-81266498D01*
X119209397Y-81120827D01*
X119209390Y-81120814D01*
X119121789Y-80989711D01*
X119121786Y-80989707D01*
X119010292Y-80878213D01*
X119010288Y-80878210D01*
X118879185Y-80790609D01*
X118879172Y-80790602D01*
X118733501Y-80730264D01*
X118733489Y-80730261D01*
X118578845Y-80699500D01*
X118578842Y-80699500D01*
X118421158Y-80699500D01*
X118421155Y-80699500D01*
X118266510Y-80730261D01*
X118266498Y-80730264D01*
X118120827Y-80790602D01*
X118120814Y-80790609D01*
X117989125Y-80878602D01*
X117922447Y-80899480D01*
X117920234Y-80899500D01*
X113079766Y-80899500D01*
X113012727Y-80879815D01*
X113010875Y-80878602D01*
X112879185Y-80790609D01*
X112879172Y-80790602D01*
X112733501Y-80730264D01*
X112733489Y-80730261D01*
X112578845Y-80699500D01*
X112578842Y-80699500D01*
X112421158Y-80699500D01*
X112421155Y-80699500D01*
X112266510Y-80730261D01*
X112266498Y-80730264D01*
X112120827Y-80790602D01*
X112120814Y-80790609D01*
X111989711Y-80878210D01*
X111989707Y-80878213D01*
X111878213Y-80989707D01*
X111878210Y-80989711D01*
X111790609Y-81120814D01*
X111790602Y-81120827D01*
X111730264Y-81266498D01*
X111730261Y-81266510D01*
X111699500Y-81421153D01*
X82350500Y-81421153D01*
X82350500Y-81273713D01*
X82317246Y-81063757D01*
X82251557Y-80861588D01*
X82155051Y-80672184D01*
X82155049Y-80672181D01*
X82155048Y-80672179D01*
X82030109Y-80500213D01*
X81879786Y-80349890D01*
X81707820Y-80224951D01*
X81707115Y-80224591D01*
X81699054Y-80220485D01*
X81648259Y-80172512D01*
X81631463Y-80104692D01*
X81653999Y-80038556D01*
X81699054Y-79999515D01*
X81707816Y-79995051D01*
X81729789Y-79979086D01*
X81879786Y-79870109D01*
X81879788Y-79870106D01*
X81879792Y-79870104D01*
X82030104Y-79719792D01*
X82030106Y-79719788D01*
X82030109Y-79719786D01*
X82155048Y-79547820D01*
X82155047Y-79547820D01*
X82155051Y-79547816D01*
X82251557Y-79358412D01*
X82317246Y-79156243D01*
X82350500Y-78946287D01*
X82350500Y-78921153D01*
X113199500Y-78921153D01*
X113199500Y-79078846D01*
X113230261Y-79233489D01*
X113230264Y-79233501D01*
X113290602Y-79379172D01*
X113290609Y-79379185D01*
X113378210Y-79510288D01*
X113378213Y-79510292D01*
X113489707Y-79621786D01*
X113489711Y-79621789D01*
X113620814Y-79709390D01*
X113620827Y-79709397D01*
X113766498Y-79769735D01*
X113766503Y-79769737D01*
X113921153Y-79800499D01*
X113921156Y-79800500D01*
X113921158Y-79800500D01*
X114078844Y-79800500D01*
X114078845Y-79800499D01*
X114233497Y-79769737D01*
X114379179Y-79709394D01*
X114379185Y-79709390D01*
X114510875Y-79621398D01*
X114577553Y-79600520D01*
X114579766Y-79600500D01*
X119420234Y-79600500D01*
X119487273Y-79620185D01*
X119489125Y-79621398D01*
X119620814Y-79709390D01*
X119620827Y-79709397D01*
X119766498Y-79769735D01*
X119766503Y-79769737D01*
X119921153Y-79800499D01*
X119921156Y-79800500D01*
X119921158Y-79800500D01*
X120078844Y-79800500D01*
X120078845Y-79800499D01*
X120233497Y-79769737D01*
X120379179Y-79709394D01*
X120510289Y-79621789D01*
X120621789Y-79510289D01*
X120709394Y-79379179D01*
X120769737Y-79233497D01*
X120800500Y-79078842D01*
X120800500Y-78921158D01*
X120800500Y-78921155D01*
X120800499Y-78921153D01*
X120769738Y-78766510D01*
X120769737Y-78766503D01*
X120756155Y-78733713D01*
X120709397Y-78620827D01*
X120709390Y-78620814D01*
X120621789Y-78489711D01*
X120621786Y-78489707D01*
X120510292Y-78378213D01*
X120510288Y-78378210D01*
X120434548Y-78327602D01*
X120389743Y-78273990D01*
X120381036Y-78204665D01*
X120411190Y-78141637D01*
X120470634Y-78104918D01*
X120503439Y-78100500D01*
X138920234Y-78100500D01*
X138987273Y-78120185D01*
X138989125Y-78121398D01*
X139120814Y-78209390D01*
X139120827Y-78209397D01*
X139266498Y-78269735D01*
X139266503Y-78269737D01*
X139395192Y-78295335D01*
X139421153Y-78300499D01*
X139421156Y-78300500D01*
X139421158Y-78300500D01*
X139578844Y-78300500D01*
X139578845Y-78300499D01*
X139733497Y-78269737D01*
X139879179Y-78209394D01*
X140010289Y-78121789D01*
X140121789Y-78010289D01*
X140209394Y-77879179D01*
X140269737Y-77733497D01*
X140300500Y-77578842D01*
X140300500Y-77421158D01*
X140300500Y-77421155D01*
X140300499Y-77421153D01*
X140269738Y-77266510D01*
X140269737Y-77266503D01*
X140269735Y-77266498D01*
X140209397Y-77120827D01*
X140209390Y-77120814D01*
X140121789Y-76989711D01*
X140121786Y-76989707D01*
X140010292Y-76878213D01*
X140010288Y-76878210D01*
X139879185Y-76790609D01*
X139879172Y-76790602D01*
X139733501Y-76730264D01*
X139733489Y-76730261D01*
X139578845Y-76699500D01*
X139578842Y-76699500D01*
X139421158Y-76699500D01*
X139421155Y-76699500D01*
X139266510Y-76730261D01*
X139266498Y-76730264D01*
X139120827Y-76790602D01*
X139120814Y-76790609D01*
X138989125Y-76878602D01*
X138922447Y-76899480D01*
X138920234Y-76899500D01*
X117579766Y-76899500D01*
X117512727Y-76879815D01*
X117510875Y-76878602D01*
X117379185Y-76790609D01*
X117379172Y-76790602D01*
X117233501Y-76730264D01*
X117233489Y-76730261D01*
X117078845Y-76699500D01*
X117078842Y-76699500D01*
X116921158Y-76699500D01*
X116921155Y-76699500D01*
X116766510Y-76730261D01*
X116766498Y-76730264D01*
X116620827Y-76790602D01*
X116620814Y-76790609D01*
X116489711Y-76878210D01*
X116489707Y-76878213D01*
X116378213Y-76989707D01*
X116378210Y-76989711D01*
X116290609Y-77120814D01*
X116290602Y-77120827D01*
X116230264Y-77266498D01*
X116230261Y-77266510D01*
X116199500Y-77421153D01*
X116199500Y-77578846D01*
X116230261Y-77733489D01*
X116230264Y-77733501D01*
X116290602Y-77879172D01*
X116290609Y-77879185D01*
X116378210Y-78010288D01*
X116378213Y-78010292D01*
X116489707Y-78121786D01*
X116489711Y-78121789D01*
X116565452Y-78172398D01*
X116610257Y-78226010D01*
X116618964Y-78295335D01*
X116588810Y-78358363D01*
X116529366Y-78395082D01*
X116496561Y-78399500D01*
X114579766Y-78399500D01*
X114512727Y-78379815D01*
X114510875Y-78378602D01*
X114379185Y-78290609D01*
X114379172Y-78290602D01*
X114233501Y-78230264D01*
X114233489Y-78230261D01*
X114078845Y-78199500D01*
X114078842Y-78199500D01*
X113921158Y-78199500D01*
X113921155Y-78199500D01*
X113766510Y-78230261D01*
X113766498Y-78230264D01*
X113620827Y-78290602D01*
X113620814Y-78290609D01*
X113489711Y-78378210D01*
X113489707Y-78378213D01*
X113378213Y-78489707D01*
X113378210Y-78489711D01*
X113290609Y-78620814D01*
X113290602Y-78620827D01*
X113230264Y-78766498D01*
X113230261Y-78766510D01*
X113199500Y-78921153D01*
X82350500Y-78921153D01*
X82350500Y-78733713D01*
X82317246Y-78523757D01*
X82251557Y-78321588D01*
X82155051Y-78132184D01*
X82155049Y-78132181D01*
X82155048Y-78132179D01*
X82030109Y-77960213D01*
X81879786Y-77809890D01*
X81707820Y-77684951D01*
X81707115Y-77684591D01*
X81699054Y-77680485D01*
X81648259Y-77632512D01*
X81631463Y-77564692D01*
X81653999Y-77498556D01*
X81699054Y-77459515D01*
X81707816Y-77455051D01*
X81754473Y-77421153D01*
X81879786Y-77330109D01*
X81879788Y-77330106D01*
X81879792Y-77330104D01*
X82030104Y-77179792D01*
X82030106Y-77179788D01*
X82030109Y-77179786D01*
X82155048Y-77007820D01*
X82155047Y-77007820D01*
X82155051Y-77007816D01*
X82251557Y-76818412D01*
X82317246Y-76616243D01*
X82350500Y-76406287D01*
X82350500Y-76193713D01*
X82317246Y-75983757D01*
X82251557Y-75781588D01*
X82155051Y-75592184D01*
X82155049Y-75592181D01*
X82155048Y-75592179D01*
X82030109Y-75420213D01*
X81879786Y-75269890D01*
X81707820Y-75144951D01*
X81707115Y-75144591D01*
X81699054Y-75140485D01*
X81648259Y-75092512D01*
X81631463Y-75024692D01*
X81653999Y-74958556D01*
X81699054Y-74919515D01*
X81707816Y-74915051D01*
X81758524Y-74878210D01*
X81879786Y-74790109D01*
X81879788Y-74790106D01*
X81879792Y-74790104D01*
X82030104Y-74639792D01*
X82030106Y-74639788D01*
X82030109Y-74639786D01*
X82155048Y-74467820D01*
X82155047Y-74467820D01*
X82155051Y-74467816D01*
X82251557Y-74278412D01*
X82317246Y-74076243D01*
X82350500Y-73866287D01*
X82350500Y-73653713D01*
X82317246Y-73443757D01*
X82309901Y-73421153D01*
X84199500Y-73421153D01*
X84199500Y-73578846D01*
X84230261Y-73733489D01*
X84230264Y-73733501D01*
X84290602Y-73879172D01*
X84290609Y-73879185D01*
X84378210Y-74010288D01*
X84378213Y-74010292D01*
X84489707Y-74121786D01*
X84489711Y-74121789D01*
X84620814Y-74209390D01*
X84620827Y-74209397D01*
X84737812Y-74257853D01*
X84766503Y-74269737D01*
X84831147Y-74282595D01*
X84921849Y-74300638D01*
X84983760Y-74333023D01*
X84985339Y-74334574D01*
X88165425Y-77514660D01*
X88198910Y-77575983D01*
X88199361Y-77578149D01*
X88230261Y-77733491D01*
X88230264Y-77733501D01*
X88290602Y-77879172D01*
X88290609Y-77879185D01*
X88378210Y-78010288D01*
X88378213Y-78010292D01*
X88489707Y-78121786D01*
X88489711Y-78121789D01*
X88620814Y-78209390D01*
X88620827Y-78209397D01*
X88766498Y-78269735D01*
X88766503Y-78269737D01*
X88895192Y-78295335D01*
X88921153Y-78300499D01*
X88921156Y-78300500D01*
X88921158Y-78300500D01*
X89078844Y-78300500D01*
X89078845Y-78300499D01*
X89233497Y-78269737D01*
X89379179Y-78209394D01*
X89510289Y-78121789D01*
X89621789Y-78010289D01*
X89709394Y-77879179D01*
X89769737Y-77733497D01*
X89800500Y-77578842D01*
X89800500Y-77421158D01*
X89800500Y-77421155D01*
X89800499Y-77421153D01*
X89769738Y-77266510D01*
X89769737Y-77266503D01*
X89769735Y-77266498D01*
X89709397Y-77120827D01*
X89709390Y-77120814D01*
X89621789Y-76989711D01*
X89621786Y-76989707D01*
X89510292Y-76878213D01*
X89510288Y-76878210D01*
X89379185Y-76790609D01*
X89379172Y-76790602D01*
X89233501Y-76730264D01*
X89233491Y-76730261D01*
X89078149Y-76699361D01*
X89016238Y-76666976D01*
X89014660Y-76665425D01*
X85834574Y-73485339D01*
X85801089Y-73424016D01*
X85800638Y-73421849D01*
X85775672Y-73296339D01*
X85769737Y-73266503D01*
X85759416Y-73241585D01*
X85709397Y-73120827D01*
X85709390Y-73120814D01*
X85621789Y-72989711D01*
X85621786Y-72989707D01*
X85510292Y-72878213D01*
X85510288Y-72878210D01*
X85379185Y-72790609D01*
X85379172Y-72790602D01*
X85233501Y-72730264D01*
X85233489Y-72730261D01*
X85078845Y-72699500D01*
X85078842Y-72699500D01*
X84921158Y-72699500D01*
X84921155Y-72699500D01*
X84766510Y-72730261D01*
X84766498Y-72730264D01*
X84620827Y-72790602D01*
X84620814Y-72790609D01*
X84489711Y-72878210D01*
X84489707Y-72878213D01*
X84378213Y-72989707D01*
X84378210Y-72989711D01*
X84290609Y-73120814D01*
X84290602Y-73120827D01*
X84230264Y-73266498D01*
X84230261Y-73266510D01*
X84199500Y-73421153D01*
X82309901Y-73421153D01*
X82251557Y-73241588D01*
X82155051Y-73052184D01*
X82155049Y-73052181D01*
X82155048Y-73052179D01*
X82030109Y-72880213D01*
X81879786Y-72729890D01*
X81707820Y-72604951D01*
X81707115Y-72604591D01*
X81699054Y-72600485D01*
X81648259Y-72552512D01*
X81631463Y-72484692D01*
X81653999Y-72418556D01*
X81699054Y-72379515D01*
X81707816Y-72375051D01*
X81752886Y-72342306D01*
X81879786Y-72250109D01*
X81879788Y-72250106D01*
X81879792Y-72250104D01*
X82030104Y-72099792D01*
X82030106Y-72099788D01*
X82030109Y-72099786D01*
X82155048Y-71927820D01*
X82155047Y-71927820D01*
X82155051Y-71927816D01*
X82251557Y-71738412D01*
X82317246Y-71536243D01*
X82350500Y-71326287D01*
X82350500Y-71113713D01*
X82317246Y-70903757D01*
X82251557Y-70701588D01*
X82155051Y-70512184D01*
X82155049Y-70512181D01*
X82155048Y-70512179D01*
X82030109Y-70340213D01*
X81879786Y-70189890D01*
X81707820Y-70064951D01*
X81707115Y-70064591D01*
X81699054Y-70060485D01*
X81696249Y-70057835D01*
X81692506Y-70056896D01*
X81671053Y-70034039D01*
X81648259Y-70012512D01*
X81647330Y-70008764D01*
X81644690Y-70005951D01*
X81638999Y-69975123D01*
X81631463Y-69944692D01*
X81632707Y-69941038D01*
X81632007Y-69937242D01*
X81643886Y-69908232D01*
X81653999Y-69878556D01*
X81657447Y-69875118D01*
X81658485Y-69872584D01*
X81666736Y-69865857D01*
X81678919Y-69853713D01*
X87649500Y-69853713D01*
X87649500Y-70066286D01*
X87681723Y-70269738D01*
X87682754Y-70276243D01*
X87703539Y-70340213D01*
X87748444Y-70478414D01*
X87844951Y-70667820D01*
X87969890Y-70839786D01*
X88083430Y-70953326D01*
X88116915Y-71014649D01*
X88111931Y-71084341D01*
X88070059Y-71140274D01*
X88039083Y-71157189D01*
X87907669Y-71206203D01*
X87907664Y-71206206D01*
X87792455Y-71292452D01*
X87792452Y-71292455D01*
X87706206Y-71407664D01*
X87706202Y-71407671D01*
X87655908Y-71542517D01*
X87649501Y-71602116D01*
X87649501Y-71602123D01*
X87649500Y-71602135D01*
X87649500Y-73397870D01*
X87649501Y-73397876D01*
X87655908Y-73457483D01*
X87706202Y-73592328D01*
X87706206Y-73592335D01*
X87792452Y-73707544D01*
X87792455Y-73707547D01*
X87907664Y-73793793D01*
X87907671Y-73793797D01*
X88042517Y-73844091D01*
X88042516Y-73844091D01*
X88049444Y-73844835D01*
X88102127Y-73850500D01*
X89897872Y-73850499D01*
X89957483Y-73844091D01*
X90092331Y-73793796D01*
X90207546Y-73707546D01*
X90293796Y-73592331D01*
X90344091Y-73457483D01*
X90350500Y-73397873D01*
X90350499Y-72495312D01*
X90350499Y-71992840D01*
X90350499Y-71602129D01*
X90350498Y-71602123D01*
X90350497Y-71602116D01*
X90344091Y-71542517D01*
X90344090Y-71542515D01*
X90293797Y-71407671D01*
X90293793Y-71407664D01*
X90207547Y-71292455D01*
X90207544Y-71292452D01*
X90092335Y-71206206D01*
X90092328Y-71206202D01*
X89960917Y-71157189D01*
X89904983Y-71115318D01*
X89880566Y-71049853D01*
X89895418Y-70981580D01*
X89916563Y-70953332D01*
X90030104Y-70839792D01*
X90155051Y-70667816D01*
X90251557Y-70478412D01*
X90317246Y-70276243D01*
X90350500Y-70066287D01*
X90350500Y-69853713D01*
X90317246Y-69643757D01*
X90251557Y-69441588D01*
X90155051Y-69252184D01*
X90155049Y-69252181D01*
X90155048Y-69252179D01*
X90030109Y-69080213D01*
X89879786Y-68929890D01*
X89707820Y-68804951D01*
X89518414Y-68708444D01*
X89518413Y-68708443D01*
X89518412Y-68708443D01*
X89316243Y-68642754D01*
X89316241Y-68642753D01*
X89316240Y-68642753D01*
X89154957Y-68617208D01*
X89106287Y-68609500D01*
X88893713Y-68609500D01*
X88845042Y-68617208D01*
X88683760Y-68642753D01*
X88481585Y-68708444D01*
X88292179Y-68804951D01*
X88120213Y-68929890D01*
X87969890Y-69080213D01*
X87844951Y-69252179D01*
X87748444Y-69441585D01*
X87682753Y-69643760D01*
X87649500Y-69853713D01*
X81678919Y-69853713D01*
X81684219Y-69848430D01*
X81691325Y-69843453D01*
X81707816Y-69835051D01*
X81827755Y-69747910D01*
X81827789Y-69747887D01*
X81879785Y-69710109D01*
X81879783Y-69710109D01*
X81879792Y-69710104D01*
X82030104Y-69559792D01*
X82030106Y-69559788D01*
X82030109Y-69559786D01*
X82155048Y-69387820D01*
X82155047Y-69387820D01*
X82155051Y-69387816D01*
X82251557Y-69198412D01*
X82317246Y-68996243D01*
X82350500Y-68786287D01*
X82350500Y-68573713D01*
X82317246Y-68363757D01*
X82251557Y-68161588D01*
X82155051Y-67972184D01*
X82155049Y-67972181D01*
X82155048Y-67972179D01*
X82030109Y-67800213D01*
X81879786Y-67649890D01*
X81707820Y-67524951D01*
X81707115Y-67524591D01*
X81699054Y-67520485D01*
X81648259Y-67472512D01*
X81631463Y-67404692D01*
X81653999Y-67338556D01*
X81699054Y-67299515D01*
X81707816Y-67295051D01*
X81792533Y-67233501D01*
X81879786Y-67170109D01*
X81879788Y-67170106D01*
X81879792Y-67170104D01*
X82030104Y-67019792D01*
X82030106Y-67019788D01*
X82030109Y-67019786D01*
X82155048Y-66847820D01*
X82155047Y-66847820D01*
X82155051Y-66847816D01*
X82251557Y-66658412D01*
X82317246Y-66456243D01*
X82322804Y-66421153D01*
X88199500Y-66421153D01*
X88199500Y-66578846D01*
X88230261Y-66733489D01*
X88230264Y-66733501D01*
X88290602Y-66879172D01*
X88290609Y-66879185D01*
X88378210Y-67010288D01*
X88378213Y-67010292D01*
X88489707Y-67121786D01*
X88489711Y-67121789D01*
X88620814Y-67209390D01*
X88620827Y-67209397D01*
X88766498Y-67269735D01*
X88766503Y-67269737D01*
X88831147Y-67282595D01*
X88921849Y-67300638D01*
X88983760Y-67333023D01*
X88985338Y-67334573D01*
X91631284Y-69980520D01*
X91631286Y-69980521D01*
X91631290Y-69980524D01*
X91686696Y-70012512D01*
X91768216Y-70059577D01*
X91920943Y-70100501D01*
X91920945Y-70100501D01*
X91929002Y-70101562D01*
X91928810Y-70103018D01*
X91987275Y-70120186D01*
X91989127Y-70121399D01*
X92120814Y-70209390D01*
X92120827Y-70209397D01*
X92266498Y-70269735D01*
X92266503Y-70269737D01*
X92421153Y-70300499D01*
X92421156Y-70300500D01*
X92421158Y-70300500D01*
X92578844Y-70300500D01*
X92578845Y-70300499D01*
X92733497Y-70269737D01*
X92879179Y-70209394D01*
X93010289Y-70121789D01*
X93121789Y-70010289D01*
X93209394Y-69879179D01*
X93269737Y-69733497D01*
X93300500Y-69578842D01*
X93300500Y-69421158D01*
X93300500Y-69421155D01*
X93300499Y-69421153D01*
X93292150Y-69379179D01*
X93269737Y-69266503D01*
X93228557Y-69167084D01*
X93209397Y-69120827D01*
X93209390Y-69120814D01*
X93121789Y-68989711D01*
X93121786Y-68989707D01*
X93010292Y-68878213D01*
X93010288Y-68878210D01*
X92879185Y-68790609D01*
X92879172Y-68790602D01*
X92733501Y-68730264D01*
X92733489Y-68730261D01*
X92578845Y-68699500D01*
X92578842Y-68699500D01*
X92421158Y-68699500D01*
X92421155Y-68699500D01*
X92266505Y-68730261D01*
X92266497Y-68730264D01*
X92210814Y-68753328D01*
X92141345Y-68760795D01*
X92078866Y-68729519D01*
X92075683Y-68726447D01*
X89834573Y-66485337D01*
X89801088Y-66424014D01*
X89800637Y-66421847D01*
X89790191Y-66369331D01*
X89769737Y-66266503D01*
X89761363Y-66246286D01*
X89709397Y-66120827D01*
X89709390Y-66120814D01*
X89621789Y-65989711D01*
X89621786Y-65989707D01*
X89510292Y-65878213D01*
X89510288Y-65878210D01*
X89379185Y-65790609D01*
X89379172Y-65790602D01*
X89233501Y-65730264D01*
X89233489Y-65730261D01*
X89078845Y-65699500D01*
X89078842Y-65699500D01*
X88921158Y-65699500D01*
X88921155Y-65699500D01*
X88766510Y-65730261D01*
X88766498Y-65730264D01*
X88620827Y-65790602D01*
X88620814Y-65790609D01*
X88489711Y-65878210D01*
X88489707Y-65878213D01*
X88378213Y-65989707D01*
X88378210Y-65989711D01*
X88290609Y-66120814D01*
X88290602Y-66120827D01*
X88230264Y-66266498D01*
X88230261Y-66266510D01*
X88199500Y-66421153D01*
X82322804Y-66421153D01*
X82350500Y-66246287D01*
X82350500Y-66033713D01*
X82317246Y-65823757D01*
X82251557Y-65621588D01*
X82155051Y-65432184D01*
X82155050Y-65432182D01*
X82129960Y-65397648D01*
X90224500Y-65397648D01*
X90224500Y-65602351D01*
X90256522Y-65804534D01*
X90319781Y-65999223D01*
X90412715Y-66181613D01*
X90533028Y-66347213D01*
X90677786Y-66491971D01*
X90797362Y-66578846D01*
X90843390Y-66612287D01*
X90959607Y-66671503D01*
X91025776Y-66705218D01*
X91025778Y-66705218D01*
X91025781Y-66705220D01*
X91112784Y-66733489D01*
X91220465Y-66768477D01*
X91321557Y-66784488D01*
X91422648Y-66800500D01*
X91422649Y-66800500D01*
X91627351Y-66800500D01*
X91627352Y-66800500D01*
X91829534Y-66768477D01*
X92024219Y-66705220D01*
X92206610Y-66612287D01*
X92335482Y-66518657D01*
X92372213Y-66491971D01*
X92372215Y-66491968D01*
X92372219Y-66491966D01*
X92516966Y-66347219D01*
X92516968Y-66347215D01*
X92516971Y-66347213D01*
X92590297Y-66246287D01*
X92637287Y-66181610D01*
X92730220Y-65999219D01*
X92793477Y-65804534D01*
X92825500Y-65602352D01*
X92825500Y-65397648D01*
X92803731Y-65260208D01*
X92793477Y-65195465D01*
X92730218Y-65000776D01*
X92678865Y-64899991D01*
X92637287Y-64818390D01*
X92594513Y-64759516D01*
X92516971Y-64652786D01*
X92372213Y-64508028D01*
X92206611Y-64387713D01*
X92113369Y-64340203D01*
X92062574Y-64292229D01*
X92045779Y-64224407D01*
X92068317Y-64158273D01*
X92113371Y-64119234D01*
X92206346Y-64071861D01*
X92206347Y-64071861D01*
X92250921Y-64039474D01*
X91571447Y-63360000D01*
X91577661Y-63360000D01*
X91679394Y-63332741D01*
X91770606Y-63280080D01*
X91845080Y-63205606D01*
X91897741Y-63114394D01*
X91925000Y-63012661D01*
X91925000Y-63006447D01*
X92604474Y-63685921D01*
X92636859Y-63641349D01*
X92729755Y-63459031D01*
X92792990Y-63264417D01*
X92825000Y-63062317D01*
X92825000Y-62857682D01*
X92824995Y-62857648D01*
X97844500Y-62857648D01*
X97844500Y-63062351D01*
X97876522Y-63264534D01*
X97939781Y-63459223D01*
X98003691Y-63584653D01*
X98032585Y-63641359D01*
X98032715Y-63641613D01*
X98153028Y-63807213D01*
X98153034Y-63807219D01*
X98297781Y-63951966D01*
X98391452Y-64020021D01*
X98434117Y-64075350D01*
X98440096Y-64144963D01*
X98407491Y-64206759D01*
X98357571Y-64238045D01*
X98275666Y-64265186D01*
X98275663Y-64265187D01*
X98126342Y-64357289D01*
X98002289Y-64481342D01*
X97910187Y-64630663D01*
X97910186Y-64630666D01*
X97855001Y-64797203D01*
X97855001Y-64797204D01*
X97855000Y-64797204D01*
X97844500Y-64899983D01*
X97844500Y-66100001D01*
X97844501Y-66100018D01*
X97855000Y-66202796D01*
X97855001Y-66202799D01*
X97910185Y-66369331D01*
X97910187Y-66369336D01*
X97926429Y-66395668D01*
X98002288Y-66518656D01*
X98126344Y-66642712D01*
X98275666Y-66734814D01*
X98442203Y-66789999D01*
X98544991Y-66800500D01*
X99745008Y-66800499D01*
X99847797Y-66789999D01*
X100014334Y-66734814D01*
X100163656Y-66642712D01*
X100287712Y-66518656D01*
X100379814Y-66369334D01*
X100434999Y-66202797D01*
X100445500Y-66100009D01*
X100445499Y-64899992D01*
X100434999Y-64797203D01*
X100379814Y-64630666D01*
X100287712Y-64481344D01*
X100163656Y-64357288D01*
X100016481Y-64266510D01*
X100014336Y-64265187D01*
X100014335Y-64265186D01*
X100014334Y-64265186D01*
X99932427Y-64238044D01*
X99874984Y-64198272D01*
X99848161Y-64133756D01*
X99860476Y-64064980D01*
X99898547Y-64020021D01*
X99992219Y-63951966D01*
X100136966Y-63807219D01*
X100136968Y-63807215D01*
X100136971Y-63807213D01*
X100210297Y-63706287D01*
X100257287Y-63641610D01*
X100350220Y-63459219D01*
X100413477Y-63264534D01*
X100445500Y-63062352D01*
X100445500Y-62857648D01*
X100437257Y-62805606D01*
X100413477Y-62655465D01*
X100358199Y-62485339D01*
X100350220Y-62460781D01*
X100350218Y-62460778D01*
X100350218Y-62460776D01*
X100330029Y-62421153D01*
X119199500Y-62421153D01*
X119199500Y-62578846D01*
X119230261Y-62733489D01*
X119230264Y-62733501D01*
X119290602Y-62879172D01*
X119290609Y-62879185D01*
X119378210Y-63010288D01*
X119378213Y-63010292D01*
X119489707Y-63121786D01*
X119489711Y-63121789D01*
X119620814Y-63209390D01*
X119620827Y-63209397D01*
X119766498Y-63269735D01*
X119766503Y-63269737D01*
X119831147Y-63282595D01*
X119921849Y-63300638D01*
X119983760Y-63333023D01*
X119985339Y-63334574D01*
X121165425Y-64514660D01*
X121198910Y-64575983D01*
X121199361Y-64578149D01*
X121230261Y-64733491D01*
X121230264Y-64733501D01*
X121290602Y-64879172D01*
X121290609Y-64879185D01*
X121378210Y-65010288D01*
X121378213Y-65010292D01*
X121489707Y-65121786D01*
X121489711Y-65121789D01*
X121620814Y-65209390D01*
X121620827Y-65209397D01*
X121743510Y-65260213D01*
X121766503Y-65269737D01*
X121921153Y-65300499D01*
X121921156Y-65300500D01*
X121921158Y-65300500D01*
X122078844Y-65300500D01*
X122078845Y-65300499D01*
X122233497Y-65269737D01*
X122379179Y-65209394D01*
X122510289Y-65121789D01*
X122621789Y-65010289D01*
X122709394Y-64879179D01*
X122769737Y-64733497D01*
X122800500Y-64578842D01*
X122800500Y-64421158D01*
X122800500Y-64421155D01*
X122800499Y-64421153D01*
X122793847Y-64387713D01*
X122769737Y-64266503D01*
X122769192Y-64265187D01*
X122709397Y-64120827D01*
X122709390Y-64120814D01*
X122621789Y-63989711D01*
X122621786Y-63989707D01*
X122510292Y-63878213D01*
X122510288Y-63878210D01*
X122379185Y-63790609D01*
X122379172Y-63790602D01*
X122233501Y-63730264D01*
X122233491Y-63730261D01*
X122078149Y-63699361D01*
X122016238Y-63666976D01*
X122014660Y-63665425D01*
X120834574Y-62485339D01*
X120801089Y-62424016D01*
X120800638Y-62421849D01*
X120772101Y-62278390D01*
X120769737Y-62266503D01*
X120756306Y-62234077D01*
X120709397Y-62120827D01*
X120709390Y-62120814D01*
X120621789Y-61989711D01*
X120621786Y-61989707D01*
X120510292Y-61878213D01*
X120510288Y-61878210D01*
X120379185Y-61790609D01*
X120379172Y-61790602D01*
X120233501Y-61730264D01*
X120233489Y-61730261D01*
X120078845Y-61699500D01*
X120078842Y-61699500D01*
X119921158Y-61699500D01*
X119921155Y-61699500D01*
X119766510Y-61730261D01*
X119766498Y-61730264D01*
X119620827Y-61790602D01*
X119620814Y-61790609D01*
X119489711Y-61878210D01*
X119489707Y-61878213D01*
X119378213Y-61989707D01*
X119378210Y-61989711D01*
X119290609Y-62120814D01*
X119290602Y-62120827D01*
X119230264Y-62266498D01*
X119230261Y-62266510D01*
X119199500Y-62421153D01*
X100330029Y-62421153D01*
X100303624Y-62369331D01*
X100257287Y-62278390D01*
X100225092Y-62234077D01*
X100136971Y-62112786D01*
X99992213Y-61968028D01*
X99826613Y-61847715D01*
X99826612Y-61847714D01*
X99826610Y-61847713D01*
X99769653Y-61818691D01*
X99644223Y-61754781D01*
X99449534Y-61691522D01*
X99274995Y-61663878D01*
X99247352Y-61659500D01*
X99042648Y-61659500D01*
X99018329Y-61663351D01*
X98840465Y-61691522D01*
X98645776Y-61754781D01*
X98463386Y-61847715D01*
X98297786Y-61968028D01*
X98153028Y-62112786D01*
X98032715Y-62278386D01*
X97939781Y-62460776D01*
X97876522Y-62655465D01*
X97844500Y-62857648D01*
X92824995Y-62857648D01*
X92792990Y-62655582D01*
X92729755Y-62460968D01*
X92636859Y-62278650D01*
X92604474Y-62234077D01*
X92604474Y-62234076D01*
X91925000Y-62913551D01*
X91925000Y-62907339D01*
X91897741Y-62805606D01*
X91845080Y-62714394D01*
X91770606Y-62639920D01*
X91679394Y-62587259D01*
X91577661Y-62560000D01*
X91571446Y-62560000D01*
X92250922Y-61880524D01*
X92250921Y-61880523D01*
X92206359Y-61848147D01*
X92206350Y-61848141D01*
X92024031Y-61755244D01*
X91829417Y-61692009D01*
X91627317Y-61660000D01*
X91422683Y-61660000D01*
X91220582Y-61692009D01*
X91025968Y-61755244D01*
X90843644Y-61848143D01*
X90799077Y-61880523D01*
X90799077Y-61880524D01*
X91478554Y-62560000D01*
X91472339Y-62560000D01*
X91370606Y-62587259D01*
X91279394Y-62639920D01*
X91204920Y-62714394D01*
X91152259Y-62805606D01*
X91125000Y-62907339D01*
X91125000Y-62913553D01*
X90445524Y-62234077D01*
X90445523Y-62234077D01*
X90413143Y-62278644D01*
X90320244Y-62460968D01*
X90257009Y-62655582D01*
X90225000Y-62857682D01*
X90225000Y-63062317D01*
X90257009Y-63264417D01*
X90320244Y-63459031D01*
X90413141Y-63641350D01*
X90413147Y-63641359D01*
X90445523Y-63685921D01*
X90445524Y-63685922D01*
X91125000Y-63006446D01*
X91125000Y-63012661D01*
X91152259Y-63114394D01*
X91204920Y-63205606D01*
X91279394Y-63280080D01*
X91370606Y-63332741D01*
X91472339Y-63360000D01*
X91478553Y-63360000D01*
X90799076Y-64039474D01*
X90843652Y-64071861D01*
X90936628Y-64119234D01*
X90987425Y-64167208D01*
X91004220Y-64235029D01*
X90981683Y-64301164D01*
X90936630Y-64340203D01*
X90843388Y-64387713D01*
X90677786Y-64508028D01*
X90533028Y-64652786D01*
X90412715Y-64818386D01*
X90319781Y-65000776D01*
X90256522Y-65195465D01*
X90224500Y-65397648D01*
X82129960Y-65397648D01*
X82030109Y-65260213D01*
X81879786Y-65109890D01*
X81707820Y-64984951D01*
X81707115Y-64984591D01*
X81699054Y-64980485D01*
X81648259Y-64932512D01*
X81631463Y-64864692D01*
X81653999Y-64798556D01*
X81699054Y-64759515D01*
X81707816Y-64755051D01*
X81848580Y-64652781D01*
X81879786Y-64630109D01*
X81879788Y-64630106D01*
X81879792Y-64630104D01*
X82030104Y-64479792D01*
X82030106Y-64479788D01*
X82030109Y-64479786D01*
X82155048Y-64307820D01*
X82155047Y-64307820D01*
X82155051Y-64307816D01*
X82251557Y-64118412D01*
X82317246Y-63916243D01*
X82350500Y-63706287D01*
X82350500Y-63493713D01*
X82317246Y-63283757D01*
X82251557Y-63081588D01*
X82155051Y-62892184D01*
X82155049Y-62892180D01*
X82030109Y-62720213D01*
X81879786Y-62569890D01*
X81707820Y-62444951D01*
X81707115Y-62444591D01*
X81699054Y-62440485D01*
X81648259Y-62392512D01*
X81631463Y-62324692D01*
X81653999Y-62258556D01*
X81699054Y-62219515D01*
X81707816Y-62215051D01*
X81729789Y-62199086D01*
X81879786Y-62090109D01*
X81879788Y-62090106D01*
X81879792Y-62090104D01*
X82030104Y-61939792D01*
X82038963Y-61927597D01*
X82091781Y-61854901D01*
X82091783Y-61854898D01*
X82138496Y-61790602D01*
X82155051Y-61767816D01*
X82251557Y-61578412D01*
X82317246Y-61376243D01*
X82350500Y-61166287D01*
X82350500Y-60953713D01*
X82317246Y-60743757D01*
X82251557Y-60541588D01*
X82155051Y-60352184D01*
X82155049Y-60352181D01*
X82155048Y-60352179D01*
X82030109Y-60180213D01*
X81879786Y-60029890D01*
X81707820Y-59904951D01*
X81707115Y-59904591D01*
X81699054Y-59900485D01*
X81648259Y-59852512D01*
X81631463Y-59784692D01*
X81653999Y-59718556D01*
X81699054Y-59679515D01*
X81707816Y-59675051D01*
X81840235Y-59578844D01*
X81879786Y-59550109D01*
X81879788Y-59550106D01*
X81879792Y-59550104D01*
X82008743Y-59421153D01*
X98199500Y-59421153D01*
X98199500Y-59578846D01*
X98230261Y-59733489D01*
X98230264Y-59733501D01*
X98290602Y-59879172D01*
X98290609Y-59879185D01*
X98378210Y-60010288D01*
X98378213Y-60010292D01*
X98489707Y-60121786D01*
X98489711Y-60121789D01*
X98620814Y-60209390D01*
X98620827Y-60209397D01*
X98766498Y-60269735D01*
X98766503Y-60269737D01*
X98921153Y-60300499D01*
X98921156Y-60300500D01*
X98921158Y-60300500D01*
X99078844Y-60300500D01*
X99078845Y-60300499D01*
X99233497Y-60269737D01*
X99379179Y-60209394D01*
X99379185Y-60209390D01*
X99510875Y-60121398D01*
X99577553Y-60100520D01*
X99579766Y-60100500D01*
X107420234Y-60100500D01*
X107487273Y-60120185D01*
X107489125Y-60121398D01*
X107620814Y-60209390D01*
X107620827Y-60209397D01*
X107766498Y-60269735D01*
X107766503Y-60269737D01*
X107921153Y-60300499D01*
X107921156Y-60300500D01*
X107921158Y-60300500D01*
X108078844Y-60300500D01*
X108078845Y-60300499D01*
X108233497Y-60269737D01*
X108379179Y-60209394D01*
X108510289Y-60121789D01*
X108621789Y-60010289D01*
X108709394Y-59879179D01*
X108769737Y-59733497D01*
X108800500Y-59578842D01*
X108800500Y-59421158D01*
X108800500Y-59421155D01*
X108800499Y-59421153D01*
X108796249Y-59399786D01*
X108769737Y-59266503D01*
X108753714Y-59227819D01*
X108709397Y-59120827D01*
X108709390Y-59120814D01*
X108621789Y-58989711D01*
X108621786Y-58989707D01*
X108532062Y-58899983D01*
X144164500Y-58899983D01*
X144164500Y-62100001D01*
X144164501Y-62100018D01*
X144175000Y-62202796D01*
X144175001Y-62202799D01*
X144215393Y-62324692D01*
X144230186Y-62369334D01*
X144322288Y-62518656D01*
X144446344Y-62642712D01*
X144595666Y-62734814D01*
X144762203Y-62789999D01*
X144864991Y-62800500D01*
X146805008Y-62800499D01*
X146907797Y-62789999D01*
X147074334Y-62734814D01*
X147223656Y-62642712D01*
X147347712Y-62518656D01*
X147439814Y-62369334D01*
X147494999Y-62202797D01*
X147505500Y-62100009D01*
X147505499Y-58899992D01*
X147494999Y-58797203D01*
X147439814Y-58630666D01*
X147347712Y-58481344D01*
X147223656Y-58357288D01*
X147074334Y-58265186D01*
X146907797Y-58210001D01*
X146907795Y-58210000D01*
X146805010Y-58199500D01*
X144864998Y-58199500D01*
X144864981Y-58199501D01*
X144762203Y-58210000D01*
X144762200Y-58210001D01*
X144595668Y-58265185D01*
X144595663Y-58265187D01*
X144446342Y-58357289D01*
X144322289Y-58481342D01*
X144230187Y-58630663D01*
X144230186Y-58630666D01*
X144175001Y-58797203D01*
X144175001Y-58797204D01*
X144175000Y-58797204D01*
X144164500Y-58899983D01*
X108532062Y-58899983D01*
X108510292Y-58878213D01*
X108510288Y-58878210D01*
X108379185Y-58790609D01*
X108379172Y-58790602D01*
X108233501Y-58730264D01*
X108233489Y-58730261D01*
X108078845Y-58699500D01*
X108078842Y-58699500D01*
X107921158Y-58699500D01*
X107921155Y-58699500D01*
X107766510Y-58730261D01*
X107766498Y-58730264D01*
X107620827Y-58790602D01*
X107620814Y-58790609D01*
X107489125Y-58878602D01*
X107422447Y-58899480D01*
X107420234Y-58899500D01*
X99579766Y-58899500D01*
X99512727Y-58879815D01*
X99510875Y-58878602D01*
X99379185Y-58790609D01*
X99379172Y-58790602D01*
X99233501Y-58730264D01*
X99233489Y-58730261D01*
X99078845Y-58699500D01*
X99078842Y-58699500D01*
X98921158Y-58699500D01*
X98921155Y-58699500D01*
X98766510Y-58730261D01*
X98766498Y-58730264D01*
X98620827Y-58790602D01*
X98620814Y-58790609D01*
X98489711Y-58878210D01*
X98489707Y-58878213D01*
X98378213Y-58989707D01*
X98378210Y-58989711D01*
X98290609Y-59120814D01*
X98290602Y-59120827D01*
X98230264Y-59266498D01*
X98230261Y-59266510D01*
X98199500Y-59421153D01*
X82008743Y-59421153D01*
X82030104Y-59399792D01*
X82155051Y-59227816D01*
X82251557Y-59038412D01*
X82317246Y-58836243D01*
X82350500Y-58626287D01*
X82350500Y-58413713D01*
X82317246Y-58203757D01*
X82251557Y-58001588D01*
X82155051Y-57812184D01*
X82155049Y-57812181D01*
X82155048Y-57812179D01*
X82030109Y-57640213D01*
X81916569Y-57526673D01*
X81883084Y-57465350D01*
X81888068Y-57395658D01*
X81929940Y-57339725D01*
X81960915Y-57322810D01*
X82092331Y-57273796D01*
X82207546Y-57187546D01*
X82293796Y-57072331D01*
X82344091Y-56937483D01*
X82350500Y-56877873D01*
X82350499Y-55082128D01*
X82344091Y-55022517D01*
X82293796Y-54887669D01*
X82293795Y-54887668D01*
X82293793Y-54887664D01*
X82207547Y-54772455D01*
X82207544Y-54772452D01*
X82092335Y-54686206D01*
X82092328Y-54686202D01*
X81957482Y-54635908D01*
X81957483Y-54635908D01*
X81897883Y-54629501D01*
X81897881Y-54629500D01*
X81897873Y-54629500D01*
X81897864Y-54629500D01*
X80102129Y-54629500D01*
X80102123Y-54629501D01*
X80042516Y-54635908D01*
X79907671Y-54686202D01*
X79907664Y-54686206D01*
X79792455Y-54772452D01*
X79792452Y-54772455D01*
X79706206Y-54887664D01*
X79706202Y-54887671D01*
X79655908Y-55022517D01*
X79649501Y-55082116D01*
X79649501Y-55082123D01*
X79649500Y-55082135D01*
X75500000Y-55082135D01*
X75500000Y-52243713D01*
X94055452Y-52243713D01*
X94055452Y-52756286D01*
X94088705Y-52966239D01*
X94154396Y-53168414D01*
X94250903Y-53357820D01*
X94375842Y-53529786D01*
X94526165Y-53680109D01*
X94698131Y-53805048D01*
X94698133Y-53805049D01*
X94698136Y-53805051D01*
X94887540Y-53901557D01*
X95089709Y-53967246D01*
X95299665Y-54000500D01*
X95299666Y-54000500D01*
X95512238Y-54000500D01*
X95512239Y-54000500D01*
X95722195Y-53967246D01*
X95924364Y-53901557D01*
X96113768Y-53805051D01*
X96285744Y-53680104D01*
X96424556Y-53541291D01*
X96485875Y-53507809D01*
X96555567Y-53512793D01*
X96611501Y-53554664D01*
X96617773Y-53563878D01*
X96621137Y-53569333D01*
X96621138Y-53569334D01*
X96713240Y-53718656D01*
X96837296Y-53842712D01*
X96986618Y-53934814D01*
X97153155Y-53989999D01*
X97255943Y-54000500D01*
X98555960Y-54000499D01*
X98596060Y-53996402D01*
X98664749Y-54009170D01*
X98715634Y-54057050D01*
X98732556Y-54124840D01*
X98723222Y-54167211D01*
X98688136Y-54251918D01*
X98688134Y-54251925D01*
X98655452Y-54416228D01*
X98655452Y-54583771D01*
X98688134Y-54748074D01*
X98688136Y-54748082D01*
X98752247Y-54902860D01*
X98845325Y-55042162D01*
X98963789Y-55160626D01*
X99056446Y-55222537D01*
X99103089Y-55253703D01*
X99257870Y-55317816D01*
X99422180Y-55350499D01*
X99422184Y-55350500D01*
X99422185Y-55350500D01*
X99589720Y-55350500D01*
X99589721Y-55350499D01*
X99754034Y-55317816D01*
X99908815Y-55253703D01*
X100048114Y-55160626D01*
X100166578Y-55042162D01*
X100259655Y-54902863D01*
X100323768Y-54748082D01*
X100356452Y-54583767D01*
X100356452Y-54416233D01*
X100323768Y-54251918D01*
X100259655Y-54097137D01*
X100195084Y-54000500D01*
X100166578Y-53957837D01*
X100048114Y-53839373D01*
X99908812Y-53746295D01*
X99754034Y-53682184D01*
X99754026Y-53682182D01*
X99589723Y-53649500D01*
X99589719Y-53649500D01*
X99422185Y-53649500D01*
X99402652Y-53653385D01*
X99354886Y-53662886D01*
X99285294Y-53656657D01*
X99230117Y-53613794D01*
X99206874Y-53547904D01*
X99212989Y-53502268D01*
X99245951Y-53402797D01*
X99256452Y-53300009D01*
X99256451Y-52243713D01*
X106149500Y-52243713D01*
X106149500Y-52756286D01*
X106182753Y-52966239D01*
X106248444Y-53168414D01*
X106344951Y-53357820D01*
X106469890Y-53529786D01*
X106620213Y-53680109D01*
X106792179Y-53805048D01*
X106792181Y-53805049D01*
X106792184Y-53805051D01*
X106981588Y-53901557D01*
X107183757Y-53967246D01*
X107393713Y-54000500D01*
X107393714Y-54000500D01*
X107606286Y-54000500D01*
X107606287Y-54000500D01*
X107816243Y-53967246D01*
X108018412Y-53901557D01*
X108207816Y-53805051D01*
X108379792Y-53680104D01*
X108518604Y-53541291D01*
X108579923Y-53507809D01*
X108649615Y-53512793D01*
X108705549Y-53554664D01*
X108711821Y-53563878D01*
X108715185Y-53569333D01*
X108715186Y-53569334D01*
X108807288Y-53718656D01*
X108931344Y-53842712D01*
X109080666Y-53934814D01*
X109247203Y-53989999D01*
X109349991Y-54000500D01*
X110650008Y-54000499D01*
X110690108Y-53996402D01*
X110758797Y-54009170D01*
X110809682Y-54057050D01*
X110826604Y-54124840D01*
X110817270Y-54167211D01*
X110782184Y-54251918D01*
X110782182Y-54251925D01*
X110749500Y-54416228D01*
X110749500Y-54583771D01*
X110782182Y-54748074D01*
X110782184Y-54748082D01*
X110846295Y-54902860D01*
X110939373Y-55042162D01*
X111057837Y-55160626D01*
X111150494Y-55222537D01*
X111197137Y-55253703D01*
X111351918Y-55317816D01*
X111516228Y-55350499D01*
X111516232Y-55350500D01*
X111516233Y-55350500D01*
X111683768Y-55350500D01*
X111683769Y-55350499D01*
X111848082Y-55317816D01*
X112002863Y-55253703D01*
X112142162Y-55160626D01*
X112260626Y-55042162D01*
X112353703Y-54902863D01*
X112417816Y-54748082D01*
X112450500Y-54583767D01*
X112450500Y-54416233D01*
X112417816Y-54251918D01*
X112353703Y-54097137D01*
X112289132Y-54000500D01*
X112260626Y-53957837D01*
X112142162Y-53839373D01*
X112002860Y-53746295D01*
X111848082Y-53682184D01*
X111848074Y-53682182D01*
X111683771Y-53649500D01*
X111683767Y-53649500D01*
X111516233Y-53649500D01*
X111496700Y-53653385D01*
X111448934Y-53662886D01*
X111379342Y-53656657D01*
X111324165Y-53613794D01*
X111300922Y-53547904D01*
X111307037Y-53502268D01*
X111339999Y-53402797D01*
X111350500Y-53300009D01*
X111350499Y-52243713D01*
X125555452Y-52243713D01*
X125555452Y-52756286D01*
X125588705Y-52966239D01*
X125654396Y-53168414D01*
X125750903Y-53357820D01*
X125875842Y-53529786D01*
X126026165Y-53680109D01*
X126198131Y-53805048D01*
X126198133Y-53805049D01*
X126198136Y-53805051D01*
X126387540Y-53901557D01*
X126589709Y-53967246D01*
X126799665Y-54000500D01*
X126799666Y-54000500D01*
X127012238Y-54000500D01*
X127012239Y-54000500D01*
X127222195Y-53967246D01*
X127424364Y-53901557D01*
X127613768Y-53805051D01*
X127785744Y-53680104D01*
X127924556Y-53541291D01*
X127985875Y-53507809D01*
X128055567Y-53512793D01*
X128111501Y-53554664D01*
X128117773Y-53563878D01*
X128121137Y-53569333D01*
X128121138Y-53569334D01*
X128213240Y-53718656D01*
X128337296Y-53842712D01*
X128486618Y-53934814D01*
X128653155Y-53989999D01*
X128755943Y-54000500D01*
X130055960Y-54000499D01*
X130096060Y-53996402D01*
X130164749Y-54009170D01*
X130215634Y-54057050D01*
X130232556Y-54124840D01*
X130223222Y-54167211D01*
X130188136Y-54251918D01*
X130188134Y-54251925D01*
X130155452Y-54416228D01*
X130155452Y-54583771D01*
X130188134Y-54748074D01*
X130188136Y-54748082D01*
X130252247Y-54902860D01*
X130345325Y-55042162D01*
X130463789Y-55160626D01*
X130556446Y-55222537D01*
X130603089Y-55253703D01*
X130757870Y-55317816D01*
X130922180Y-55350499D01*
X130922184Y-55350500D01*
X130922185Y-55350500D01*
X131089720Y-55350500D01*
X131089721Y-55350499D01*
X131254034Y-55317816D01*
X131408815Y-55253703D01*
X131548114Y-55160626D01*
X131666578Y-55042162D01*
X131759655Y-54902863D01*
X131823768Y-54748082D01*
X131856452Y-54583767D01*
X131856452Y-54416233D01*
X131823768Y-54251918D01*
X131759655Y-54097137D01*
X131695084Y-54000500D01*
X131666578Y-53957837D01*
X131548114Y-53839373D01*
X131408812Y-53746295D01*
X131254034Y-53682184D01*
X131254026Y-53682182D01*
X131089723Y-53649500D01*
X131089719Y-53649500D01*
X130922185Y-53649500D01*
X130902652Y-53653385D01*
X130854886Y-53662886D01*
X130785294Y-53656657D01*
X130730117Y-53613794D01*
X130706874Y-53547904D01*
X130712989Y-53502268D01*
X130745951Y-53402797D01*
X130756452Y-53300009D01*
X130756451Y-52243713D01*
X138305452Y-52243713D01*
X138305452Y-52756286D01*
X138338705Y-52966239D01*
X138404396Y-53168414D01*
X138500903Y-53357820D01*
X138625842Y-53529786D01*
X138776165Y-53680109D01*
X138948131Y-53805048D01*
X138948133Y-53805049D01*
X138948136Y-53805051D01*
X139137540Y-53901557D01*
X139339709Y-53967246D01*
X139549665Y-54000500D01*
X139549666Y-54000500D01*
X139762238Y-54000500D01*
X139762239Y-54000500D01*
X139972195Y-53967246D01*
X140174364Y-53901557D01*
X140363768Y-53805051D01*
X140535744Y-53680104D01*
X140674556Y-53541291D01*
X140735875Y-53507809D01*
X140805567Y-53512793D01*
X140861501Y-53554664D01*
X140867773Y-53563878D01*
X140871137Y-53569333D01*
X140871138Y-53569334D01*
X140963240Y-53718656D01*
X141087296Y-53842712D01*
X141236618Y-53934814D01*
X141403155Y-53989999D01*
X141505943Y-54000500D01*
X142805960Y-54000499D01*
X142846060Y-53996402D01*
X142914749Y-54009170D01*
X142965634Y-54057050D01*
X142982556Y-54124840D01*
X142973222Y-54167211D01*
X142938136Y-54251918D01*
X142938134Y-54251925D01*
X142905452Y-54416228D01*
X142905452Y-54583771D01*
X142938134Y-54748074D01*
X142938136Y-54748082D01*
X143002247Y-54902860D01*
X143095325Y-55042162D01*
X143213789Y-55160626D01*
X143306446Y-55222537D01*
X143353089Y-55253703D01*
X143507870Y-55317816D01*
X143672180Y-55350499D01*
X143672184Y-55350500D01*
X143672185Y-55350500D01*
X143839720Y-55350500D01*
X143839721Y-55350499D01*
X144004034Y-55317816D01*
X144158815Y-55253703D01*
X144298114Y-55160626D01*
X144416578Y-55042162D01*
X144509655Y-54902863D01*
X144573768Y-54748082D01*
X144606452Y-54583767D01*
X144606452Y-54416233D01*
X144573768Y-54251918D01*
X144509655Y-54097137D01*
X144445084Y-54000500D01*
X144416578Y-53957837D01*
X144298114Y-53839373D01*
X144158812Y-53746295D01*
X144004034Y-53682184D01*
X144004026Y-53682182D01*
X143839723Y-53649500D01*
X143839719Y-53649500D01*
X143672185Y-53649500D01*
X143652652Y-53653385D01*
X143604886Y-53662886D01*
X143535294Y-53656657D01*
X143480117Y-53613794D01*
X143456874Y-53547904D01*
X143462989Y-53502268D01*
X143495951Y-53402797D01*
X143506452Y-53300009D01*
X143506451Y-51699992D01*
X143495951Y-51597203D01*
X143440766Y-51430666D01*
X143348664Y-51281344D01*
X143224608Y-51157288D01*
X143075286Y-51065186D01*
X142908749Y-51010001D01*
X142908747Y-51010000D01*
X142805962Y-50999500D01*
X141505950Y-50999500D01*
X141505933Y-50999501D01*
X141403155Y-51010000D01*
X141403152Y-51010001D01*
X141236620Y-51065185D01*
X141236615Y-51065187D01*
X141087294Y-51157289D01*
X140963241Y-51281342D01*
X140867773Y-51436121D01*
X140815825Y-51482845D01*
X140746862Y-51494068D01*
X140682780Y-51466224D01*
X140674553Y-51458705D01*
X140535738Y-51319890D01*
X140363772Y-51194951D01*
X140174366Y-51098444D01*
X140174365Y-51098443D01*
X140174364Y-51098443D01*
X139972195Y-51032754D01*
X139972193Y-51032753D01*
X139972192Y-51032753D01*
X139810909Y-51007208D01*
X139762239Y-50999500D01*
X139549665Y-50999500D01*
X139500994Y-51007208D01*
X139339712Y-51032753D01*
X139137537Y-51098444D01*
X138948131Y-51194951D01*
X138776165Y-51319890D01*
X138625842Y-51470213D01*
X138500903Y-51642179D01*
X138404396Y-51831585D01*
X138338705Y-52033760D01*
X138305452Y-52243713D01*
X130756451Y-52243713D01*
X130756451Y-51699992D01*
X130745951Y-51597203D01*
X130690766Y-51430666D01*
X130598664Y-51281344D01*
X130474608Y-51157288D01*
X130325286Y-51065186D01*
X130158749Y-51010001D01*
X130158747Y-51010000D01*
X130055962Y-50999500D01*
X128755950Y-50999500D01*
X128755933Y-50999501D01*
X128653155Y-51010000D01*
X128653152Y-51010001D01*
X128486620Y-51065185D01*
X128486615Y-51065187D01*
X128337294Y-51157289D01*
X128213241Y-51281342D01*
X128117773Y-51436121D01*
X128065825Y-51482845D01*
X127996862Y-51494068D01*
X127932780Y-51466224D01*
X127924553Y-51458705D01*
X127785738Y-51319890D01*
X127613772Y-51194951D01*
X127424366Y-51098444D01*
X127424365Y-51098443D01*
X127424364Y-51098443D01*
X127222195Y-51032754D01*
X127222193Y-51032753D01*
X127222192Y-51032753D01*
X127060909Y-51007208D01*
X127012239Y-50999500D01*
X126799665Y-50999500D01*
X126750994Y-51007208D01*
X126589712Y-51032753D01*
X126387537Y-51098444D01*
X126198131Y-51194951D01*
X126026165Y-51319890D01*
X125875842Y-51470213D01*
X125750903Y-51642179D01*
X125654396Y-51831585D01*
X125588705Y-52033760D01*
X125555452Y-52243713D01*
X111350499Y-52243713D01*
X111350499Y-51699992D01*
X111339999Y-51597203D01*
X111284814Y-51430666D01*
X111192712Y-51281344D01*
X111068656Y-51157288D01*
X110919334Y-51065186D01*
X110752797Y-51010001D01*
X110752795Y-51010000D01*
X110650010Y-50999500D01*
X109349998Y-50999500D01*
X109349981Y-50999501D01*
X109247203Y-51010000D01*
X109247200Y-51010001D01*
X109080668Y-51065185D01*
X109080663Y-51065187D01*
X108931342Y-51157289D01*
X108807289Y-51281342D01*
X108711821Y-51436121D01*
X108659873Y-51482845D01*
X108590910Y-51494068D01*
X108526828Y-51466224D01*
X108518601Y-51458705D01*
X108379786Y-51319890D01*
X108207820Y-51194951D01*
X108018414Y-51098444D01*
X108018413Y-51098443D01*
X108018412Y-51098443D01*
X107816243Y-51032754D01*
X107816241Y-51032753D01*
X107816240Y-51032753D01*
X107654957Y-51007208D01*
X107606287Y-50999500D01*
X107393713Y-50999500D01*
X107345042Y-51007208D01*
X107183760Y-51032753D01*
X106981585Y-51098444D01*
X106792179Y-51194951D01*
X106620213Y-51319890D01*
X106469890Y-51470213D01*
X106344951Y-51642179D01*
X106248444Y-51831585D01*
X106182753Y-52033760D01*
X106149500Y-52243713D01*
X99256451Y-52243713D01*
X99256451Y-51699992D01*
X99245951Y-51597203D01*
X99190766Y-51430666D01*
X99098664Y-51281344D01*
X98974608Y-51157288D01*
X98825286Y-51065186D01*
X98658749Y-51010001D01*
X98658747Y-51010000D01*
X98555962Y-50999500D01*
X97255950Y-50999500D01*
X97255933Y-50999501D01*
X97153155Y-51010000D01*
X97153152Y-51010001D01*
X96986620Y-51065185D01*
X96986615Y-51065187D01*
X96837294Y-51157289D01*
X96713241Y-51281342D01*
X96617773Y-51436121D01*
X96565825Y-51482845D01*
X96496862Y-51494068D01*
X96432780Y-51466224D01*
X96424553Y-51458705D01*
X96285738Y-51319890D01*
X96113772Y-51194951D01*
X95924366Y-51098444D01*
X95924365Y-51098443D01*
X95924364Y-51098443D01*
X95722195Y-51032754D01*
X95722193Y-51032753D01*
X95722192Y-51032753D01*
X95560909Y-51007208D01*
X95512239Y-50999500D01*
X95299665Y-50999500D01*
X95250994Y-51007208D01*
X95089712Y-51032753D01*
X94887537Y-51098444D01*
X94698131Y-51194951D01*
X94526165Y-51319890D01*
X94375842Y-51470213D01*
X94250903Y-51642179D01*
X94154396Y-51831585D01*
X94088705Y-52033760D01*
X94055452Y-52243713D01*
X75500000Y-52243713D01*
X75500000Y-49124000D01*
X75519685Y-49056961D01*
X75572489Y-49011206D01*
X75624000Y-49000000D01*
X159377272Y-49000000D01*
X159444311Y-49019685D01*
G37*
%TD.AperFunction*%
%TD*%
M02*
